<svg viewBox="0 0 800 800" xmlns="http://www.w3.org/2000/svg"><path d="M113.32248779728116,475.30784881144655 L113.1647248408508,432.2502233543038 M113.16137997399494,475.0140881378436 L113.00352724144363,431.95662101627977 M113.32248779728116,475.30784881144655 L113.26870833649059,475.2099505043799 M113.26870833649059,475.2099505043799 L113.21498670336854,475.11201907543443 M113.21498670336854,475.11201907543443 L113.16137997399494,475.0140881378436 M113.1647248408508,432.2502233543038 L113.11091541105316,432.15237781367296 M113.11091541105316,432.15237781367296 L113.05716384186076,432.0544991692931 M113.05716384186076,432.0544991692931 L113.00352724144363,431.95662101627977 M113.32248779728116,475.30784881144655 L124.77152753004736,473.9920021671836 M124.77152753004736,473.9920021671836 L136.41179704433085,474.33888727528426 M136.41179704433085,474.33888727528426 L147.55270499207424,476.32793636810527 M147.55270499207424,476.32793636810527 L157.53305080817788,479.8413723432948 M157.53305080817788,479.8413723432948 L165.76008950276864,484.67107804538455 M165.76008950276864,484.67107804538455 L171.7447089755116,490.53069679248927 M171.7447089755116,490.53069679248927 L175.13039286905203,497.07263178255675 M175.13039286905203,497.07263178255675 L175.71463143509717,503.9084086984865 M175.71463143509717,503.9084086984865 L173.4612739067246,510.6316655213841 M173.4612739067246,510.6316655213841 L168.502883386459,516.842357913052 M168.502883386459,516.842357913052 L161.13337139177426,522.1705883686125 M161.13337139177426,522.1705883686125 L151.79062089036714,526.2987063635028 M151.79062089036714,526.2987063635028 L151.65440000152,483.2136348839633 M151.65440000152,483.2136348839633 L161.00244633525605,479.08773606768204 M161.00244633525605,479.08773606768204 L168.37614159058572,473.76237067117415 M168.37614159058572,473.76237067117415 L173.33735440507579,467.5550188858324 M173.33735440507579,467.5550188858324 L175.5920064913455,460.83537962439766 M175.5920064913455,460.83537962439766 L175.00745933776568,454.00328215312175 M175.00745933776568,454.00328215312175 L171.61988367582975,447.46486970863805 M171.61988367582975,447.46486970863805 L165.6319030975733,441.608407160174 M165.6319030975733,441.608407160174 L157.40023457886,436.78130365530296 M157.40023457886,436.78130365530296 L147.41426547385427,433.26976110808835 M147.41426547385427,433.26976110808835 L136.26707436297772,431.2817840931705 M136.26707436297772,431.2817840931705 L124.62023403069475,430.93508596444576 M124.62023403069475,430.93508596444576 L113.1647248408508,432.2502233543038 M113.00352724144363,431.95662101627977 L101.79020268696354,433.2496533878847 M101.79020268696354,433.2496533878847 L90.38461924132747,432.95035821959937 M90.38461924132747,432.95035821959937 L79.43788149645576,431.0759245120887 M79.43788149645576,431.0759245120887 L69.57497513088327,427.73349640212734 M69.57497513088327,427.73349640212734 L61.35858798638867,423.11427338849376 M61.35858798638867,423.11427338849376 L55.256838428909305,417.4822637467312 M55.256838428909305,417.4822637467312 L51.616923468231164,411.1590979855631 M51.616923468231164,411.1590979855631 L50.64508655617294,404.5055264744914 M50.64508655617294,404.5055264744914 L52.39546448385323,397.9008413262736 M52.39546448385323,397.9008413262736 L56.766873302333465,391.7211612160287 M56.766873302333465,391.7211612160287 L63.50937996789696,386.31799780113636 M63.50937996789696,386.31799780113636 L72.23835488556949,381.9984796156359 M72.23835488556949,381.9984796156359 L82.45659366317261,379.00798405930607 M82.45659366317261,379.00798405930607 L93.58275253983118,377.5161999647022 M93.75132880590388,420.54426499448925 L93.58275253983118,377.5161999647022 M93.75132880590388,420.54426499448925 L82.63144632047323,422.03685591304315 M82.63144632047323,422.03685591304315 L72.41897970061859,425.0289686698219 M72.41897970061859,425.0289686698219 L63.69494477769092,429.350822307552 M63.69494477769092,429.350822307552 L56.95626469243513,434.75690631309794 M56.95626469243513,434.75690631309794 L52.58735052176155,440.9399257108589 M52.58735052176155,440.9399257108589 L50.83799214321368,447.5481785821821 M50.83799214321368,447.5481785821821 L51.80931386331895,454.2053429465441 M51.80931386331895,454.2053429465441 L55.44720678984265,460.5319219575588 M55.44720678984265,460.5319219575588 L61.54554141937086,466.16697078764116 M61.54554141937086,466.16697078764116 L69.75731472282246,470.78868577626133 M69.75731472282246,470.78868577626133 L79.61467122876672,474.1329166715368 M79.61467122876672,474.1329166715368 L90.5552400995847,476.0083612394768 M90.5552400995847,476.0083612394768 L101.95438850513852,476.3078178047663 M101.95438850513852,476.3078178047663 L113.16137997399494,475.0140881378436 M93.75132880590388,420.54426499448925 L105.3919503608355,420.4210998396434 M105.3919503608355,420.4210998396434 L116.64727654280864,418.65197500210456 M116.64727654280864,418.65197500210456 L126.84674929067592,415.3425431479036 M126.84674929067592,415.3425431479036 L135.38323186874845,410.69027841090997 M135.38323186874845,410.69027841090997 L141.74911482993173,404.97258538558424 M141.74911482993173,404.97258538558424 L145.5664418872291,398.5302664733223 M145.5664418872291,398.5302664733223 L146.60935721830836,391.7468280231866 M146.60935721830836,391.7468280231866 L144.81738731094651,385.0257412966073 M144.81738731094651,385.0257412966073 L140.2983491731021,378.7663484638575 M140.2983491731021,378.7663484638575 L133.32197757831761,373.34021489404495 M133.32197757831761,373.34021489404495 L124.30344796533956,369.0691130305237 M124.30344796533956,369.0691130305237 L113.77871578923146,366.20614903976104 M113.77871578923146,366.20614903976104 L113.83328479114584,366.10869690521076 M113.83328479114584,366.10869690521076 L113.88793889628573,366.0112953964989 M113.88793889628573,366.0112953964989 L113.94270704175761,365.9138943752006 M113.94270704175761,365.9138943752006 L103.63697078200295,363.11669758860853 M103.63697078200295,363.11669758860853 L94.7706903426058,358.9688604816017 M94.7706903426058,358.9688604816017 L87.84944102134443,353.70742926886726 M87.84944102134443,353.70742926886726 L83.26718172266027,347.6330138254408 M83.26718172266027,347.6330138254408 L81.28417257834508,341.09231590938805 M81.28417257834508,341.09231590938805 L82.01210424839007,334.4582748655289 M82.01210424839007,334.4582748655289 L85.40814134722837,328.1088381977919 M85.40814134722837,328.1088381977919 L91.27761604683667,322.4053437134396 M91.27761604683667,322.4053437134396 L99.2855843719409,317.67202544531915 M99.2855843719409,317.67202544531915 L108.97559097077709,314.1778977773255 M108.97559097077709,314.1778977773255 L119.79619731580391,312.1212552775909 M119.79619731580391,312.1212552775909 L131.1318593724086,311.61888649003697 M131.1318593724086,311.61888649003697 L142.33814357200686,312.69925460566026 M142.33814357200686,312.69925460566026 L152.77766161560245,315.30106438588143 M152.77766161560245,315.30106438588143 L162.26926820801438,319.1872928305344 M162.26926820801438,319.1872928305344 L173.09863145816357,321.613453699778 M173.09863145816357,321.613453699778 L184.6209136546131,322.4346254197112 M184.6209136546131,322.4346254197112 L196.14961831699597,321.6018315491358 M196.14961831699597,321.6018315491358 L206.99783621956016,319.1648183689921 M206.99783621956016,319.1648183689921 L216.51957911407467,315.2690096827354 M216.51957911407467,315.2690096827354 L224.14818720553228,310.14682055243804 M224.14818720553228,310.14682055243804 L229.43033255617047,304.10365443604826 M229.43033255617047,304.10365443604826 L232.05275302692525,297.4994915432453 M232.05275302692525,297.4994915432453 L231.86087017794964,290.727328832946 M231.86087017794964,290.727328832946 L228.8674926945718,284.189803523827 M228.8674926945718,284.189803523827 L223.25189421319826,278.2751757602516 M223.25189421319826,278.2751757602516 L223.3933294082669,278.2151315103861 M223.3933294082669,278.2151315103861 L223.53487807720367,278.1551207207443 M223.53487807720367,278.1551207207443 L223.6764830470387,278.0951766654895 M223.6764830470387,278.0951766654895 L218.1723165524224,272.30954125744483 M218.1723165524224,272.30954125744483 L215.17973181733788,265.9261070125576 M215.17973181733788,265.9261070125576 L214.86807449355763,259.3090152262797 M214.86807449355763,259.3090152262797 L217.25376668176634,252.83537732317177 M217.25376668176634,252.83537732317177 L222.1996450806178,246.87371744815277 M222.1996450806178,246.87371744815277 L229.42298324881938,241.76312388147608 M229.42298324881938,241.76312388147608 L238.51205490719397,237.79401837346825 M238.51205490719397,237.79401837346825 L248.94929655545673,235.19183149651144 M248.94929655545673,235.19183149651144 L260.1408786275899,234.10423035007614 M260.1408786275899,234.10423035007614 L271.4504555920519,234.59296106036504 M271.4504555920519,234.59296106036504 L282.23484981055367,236.6302850529146 M282.23484981055367,236.6302850529146 L291.880754747961,240.10054005677694 M291.880754747961,240.10054005677694 L299.83909999602827,244.80675053400205 M299.83909999602827,244.80675053400205 L305.656412088873,250.48152110524643 M305.656412088873,250.48152110524643 L309.42304499009794,256.8711786154212 M309.42304499009794,256.8711786154212 L315.7326069711336,262.53912169215334 M315.7326069711336,262.53912169215334 L324.21054288232534,267.1475843538931 M324.21054288232534,267.1475843538931 L334.3526550016425,270.421719542004 M334.3526550016425,270.421719542004 L345.55517360393065,272.16615489941603 M345.55517360393065,272.16615489941603 L357.150824112671,272.2767424286268 M357.150824112671,272.2767424286268 L368.44872701187546,270.74688499079514 M368.44872701187546,270.74688499079514 L378.77590257565885,267.6679269141073 M378.77590257565885,267.6679269141073 L387.51739647212037,263.22359009237425 M387.51739647212037,263.22359009237425 L394.1533356299031,257.6789813900482 M394.1533356299031,257.6789813900482 L398.2896888310421,251.364503556332 M398.2896888310421,251.364503556332 L399.6816062210609,244.6561763698162 M399.6816062210609,244.6561763698162 L399.85616097788505,244.6560268924046 M399.85616097788505,244.6560268924046 L400.03077272472575,244.65594384939857 M400.03077272472575,244.65594384939857 L400.2053275047296,244.6559272407975 M400.2053275047296,244.6559272407975 L401.5579093375396,238.0903461276564 M401.5579093375396,238.0903461276564 L405.54029489106614,231.9009119057538 M405.54029489106614,231.9009119057538 L411.9244777466788,226.43978098507273 M411.9244777466788,226.43978098507273 L420.3462863910456,222.01736803117763 M420.3462863910456,222.01736803117763 L430.3259054889142,218.88492764646844 M430.3259054889142,218.88492764646844 L441.2955045393456,217.2202734942225 M441.2955045393456,217.2202734942225 L452.6311651765474,217.1178606152422 M452.6311651765474,217.1178606152422 L463.6883596045693,218.58348604206014 M463.6883596045693,218.58348604206014 L473.8382400305427,221.53403028079515 M473.8382400305427,221.53403028079515 L482.50326190908606,225.80195607775215 M482.50326190908606,225.80195607775215 L489.18997300335997,231.14486889044542 M489.18997300335997,231.14486889044542 L493.5169415844115,237.25906924719413 M493.5169415844115,237.25906924719413 L495.236584973799,243.79671689304507 M495.236584973799,243.79671689304507 L494.2497299479949,250.3855612579639 M494.2497299479949,250.3855612579639 L490.8840514186638,256.8506873269172 M490.8840514186638,256.8506873269172 L490.30258234049944,263.60323084703805 M490.30258234049944,263.60323084703805 L492.54128084247714,270.2418098615083 M492.54128084247714,270.2418098615083 L497.4683509177986,276.37138592447957 M497.4683509177986,276.37138592447957 L504.7918069282287,281.62688429609557 M504.7918069282287,281.62688429609557 L514.0765368547768,285.6950390434396 M514.0765368547768,285.6950390434396 L524.7700154972072,288.3331190674263 M524.7700154972072,288.3331190674263 L536.2355469024315,289.38371036226306 M536.2355469024315,289.38371036226306 L547.7900368092758,288.7840646705936 M547.7900368092758,288.7840646705936 L558.7450815361974,286.57000393194073 M558.7450815361974,286.57000393194073 L568.4481625635717,282.87367931688186 M568.4481625635717,282.87367931688186 L576.3218489160213,277.91562844030034 M576.3218489160213,277.91562844030034 L576.4636461011933,277.97543884427114 M576.4636461011933,277.97543884427114 L576.6053868527151,278.0352827068193 M576.6053868527151,278.0352827068193 L576.7470427355252,278.0951766654895 M576.7470427355252,278.0951766654895 L584.4460829464688,273.23887551951236 M584.4460829464688,273.23887551951236 L593.9017608632807,269.58952236181574 M593.9017608632807,269.58952236181574 L604.5758649466104,267.3543861359344 M604.5758649466104,267.3543861359344 L615.861176211575,266.66029443753973 M615.861176211575,266.66029443753973 L627.116015904413,267.5466653821096 M627.116015904413,267.5466653821096 L637.7003625345722,269.9631510514138 M637.7003625345722,269.9631510514138 L647.0121477420382,273.7726465888784 M647.0121477420382,273.7726465888784 L654.5212038492134,278.7588057710036 M654.5212038492134,278.7588057710036 L659.7995190794552,284.63828966266794 M659.7995190794552,284.63828966266794 L662.5455438570079,291.07673313834016 M662.5455438570079,291.07673313834016 L662.6016189058369,297.70764930852147 M662.6016189058369,297.70764930852147 L659.96324071802,304.1532332470546 M659.96324071802,304.1532332470546 L654.7794913940852,310.0457993639309 M654.7794913940852,310.0457993639309 L647.3449791741496,315.0489954946796 M647.3449791741496,315.0489954946796 L638.1027410716174,319.1334575354408 M638.1027410716174,319.1334575354408 L630.8342793464149,324.4079071665109 M630.8342793464149,324.4079071665109 L625.9718788579264,330.55953444149714 M625.9718788579264,330.55953444149714 L623.8056391419882,337.2232683641589 M623.8056391419882,337.2232683641589 L624.4656595260435,344.0031872786009 M624.4656595260435,344.0031872786009 L627.9142202864175,350.4961354343561 M627.9142202864175,350.4961354343561 L633.9473877214184,356.3155498451704 M633.9473877214184,356.3155498451704 L642.2071419910303,361.1147068184217 M642.2071419910303,361.1147068184217 L652.2024463554694,364.60745085256053 M652.2024463554694,364.60745085256053 L663.3382144390048,366.58531618876793 M663.3382144390048,366.58531618876793 L674.9512570776158,366.93031173192423 M674.9512570776158,366.93031173192423 L686.349633860463,365.6217610849709 M686.349633860463,365.6217610849709 L686.4047242025015,365.71912721960734 M686.4047242025015,365.71912721960734 L686.4597289588667,365.81647712883944 M686.4597289588667,365.81647712883944 L686.5146201810126,365.9138943752006 M686.5146201810126,365.9138943752006 L697.6705461373233,364.6274377384384 M697.6705461373233,364.6274377384384 L709.0418718745489,364.9251879494735 M709.0418718745489,364.9251879494735 L719.981959194233,366.7902035612108 M719.981959194233,366.7902035612108 L729.868581819903,370.11658661177876 M729.868581819903,370.11658661177876 L738.1391196441809,374.7155629341793 M738.1391196441809,374.7155629341793 L744.3224088977208,380.3258860311653 M744.3224088977208,380.3258860311653 L748.065492406962,386.6285262700419 M748.065492406962,386.6285262700419 L749.1540964726594,393.2649126202973 M749.1540964726594,393.2649126202973 L747.5247801210669,399.85700212049164 M747.5247801210669,399.85700212049164 L743.2691700587154,406.028992165664 M743.2691700587154,406.028992165664 L736.6286291676358,411.42857708252734 M736.6286291676358,411.42857708252734 L727.9812995963455,415.7474157699106 M727.9812995963455,415.7474157699106 L717.8200051264284,418.7385966247864 M717.8200051264284,418.7385966247864 L706.7244739275989,420.2310157518815 M706.7244739275989,420.2310157518815 L695.0858377889517,420.3541964649173 M695.0858377889517,420.3541964649173 L683.8563307561321,422.1234758191181 M683.8563307561321,422.1234758191181 L673.7023569917496,425.4340760787751 M673.7023569917496,425.4340760787751 L665.2269006912943,430.0898449344335 M665.2269006912943,430.0898449344335 L658.9338027665258,435.81489511349366 M658.9338027665258,435.81489511349366 L655.1978199454186,442.2695681410605 M655.1978199454186,442.2695681410605 L654.2421467173244,449.07059892168536 M654.2421467173244,449.07059892168536 L656.1251774937432,455.81384378064524 M656.1251774937432,455.81384378064524 L660.7362085094126,462.09801579454006 M660.7362085094126,462.09801579454006 L667.8021555973689,467.5489519756205 M667.8021555973689,467.5489519756205 L676.9032500041646,471.8416739000477 M676.9032500041646,471.8416739000477 L687.4980712455792,474.7201638242601 M687.4980712455792,474.7201638242601 L687.444847423312,474.81816051192254 M687.444847423312,474.81816051192254 L687.3914225976021,474.9161408853221 M687.3914225976021,474.9161408853221 L687.3379399329338,475.0140881378436 M687.3379399329338,475.0140881378436 L697.7154273765548,477.8273907520536 M697.7154273765548,477.8273907520536 L706.6732107810974,482.00058480610653 M706.6732107810974,482.00058480610653 L713.7012218363664,487.29676625604066 M713.7012218363664,487.29676625604066 L718.39867694188,493.41485411022427 M718.39867694188,493.41485411022427 L720.4970457684631,500.00690971677614 M720.4970457684631,500.00690971677614 L719.8753191535388,506.6975129626146 M719.8753191535388,506.6975129626146 L716.5677761187176,513.1054201972706 M716.5677761187176,513.1054201972706 L710.7616494479664,518.8650160062973 M710.7616494479664,518.8650160062973 L702.7871219466738,523.64741797836 M702.7871219466738,523.64741797836 L693.0985295536123,527.1793192561149 M693.0985295536123,527.1793192561149 L682.2485856464673,529.2587638556081 M682.2485856464673,529.2587638556081 L670.8565343151629,529.7667904635957 M670.8565343151629,529.7667904635957 L659.5729657194624,528.6743237552389 M659.5729657194624,528.6743237552389 L649.0420241162924,526.0438939607998 M649.0420241162924,526.0438939607998 L639.4510697479118,522.1161726534433 M639.4510697479118,522.1161726534433 L628.5365629699072,519.6649608032524 M628.5365629699072,519.6649608032524 L616.9464447172602,518.8354208667884 M616.9464447172602,518.8354208667884 L605.3683759736257,519.676684811297 M605.3683759736257,519.676684811297 L594.4892504324766,522.1388991984111 M594.4892504324766,522.1388991984111 L584.9549421371914,526.0762971787808 M584.9549421371914,526.0762971787808 L577.3317314784588,531.2555374942931 M577.3317314784588,531.2555374942931 L572.0731488782437,537.3695370560768 M572.0731488782437,537.3695370560768 L569.4926526576676,544.0555072853806 M569.4926526576676,544.0555072853806 L569.7450498645105,550.9162946108031 M569.7450498645105,550.9162946108031 L572.816745241761,557.5439120786684 M572.816745241761,557.5439120786684 L578.5263420399363,563.5439068248393 M578.5263420399363,563.5439068248393 L578.3843920687577,563.6048196307479 M578.3843920687577,563.6048196307479 L578.2423840482254,563.6656988607504 M578.2423840482254,563.6656988607504 L578.1003179784354,563.7265445145331 M578.1003179784354,563.7265445145331 L583.6997626710945,569.5993445071292 M583.6997626710945,569.5993445071292 L586.7767875314207,576.0830442575993 M586.7767875314207,576.0830442575993 L587.1549837560692,582.8085574768736 M587.1549837560692,582.8085574768736 L584.8111957357437,589.3927233513116 M584.8111957357437,589.3927233513116 L579.8778540575831,595.4601225138688 M579.8778540575831,595.4601225138688 L572.6352143520742,600.6642964416046 M572.6352143520742,600.6642964416046 L563.4956576326947,604.7079772966488 M563.4956576326947,604.7079772966488 L552.9803285999135,607.3599869250413 M552.9803285999135,607.3599869250413 L541.6893003328366,608.4685827590943 M541.6893003328366,608.4685827590943 L530.2672993479157,607.970420936231 M530.2672993479157,607.970420936231 L519.3665446777763,605.8939468584306 M519.3665446777763,605.8939468584306 L509.60914856069684,602.3579063368761 M509.60914856069684,602.3579063368761 L501.5518132336789,597.5645791259838 M501.5518132336789,597.5645791259838 L495.65358917449277,591.7879020000403 M495.65358917449277,591.7879020000403 L491.8235745864368,585.2874714363161 M491.8235745864368,585.2874714363161 L485.4356191909064,579.5249252335484 M485.4356191909064,579.5249252335484 L476.8702555351898,574.8420530554913 M476.8702555351898,574.8420530554913 L466.6365321624834,571.5163847082292 M466.6365321624834,571.5163847082292 L455.3421252185406,569.7449525805837 M455.3421252185406,569.7449525805837 L443.65739981909445,569.6326474875034 M443.65739981909445,569.6326474875034 L432.27549330127425,571.1861627899993 M432.27549330127425,571.1861627899993 L421.87189126686854,574.3134284231862 M421.87189126686854,574.3134284231862 L413.06431145505917,578.8292759322158 M413.06431145505917,578.8292759322158 L406.37613196335246,584.4660105790492 M406.37613196335246,584.4660105790492 L402.20560101744223,590.8893459917649 M402.20560101744223,590.8893459917649 L400.8017892001915,597.7179043997983 M400.8017892001915,597.7179043997983 L400.62561759868765,597.7180396972831 M400.62561759868765,597.7180396972831 L400.4494459959665,597.7181749947688 M400.4494459959665,597.7181749947688 L400.2732743659901,597.7181749947688 M400.2732743659901,597.7181749947688 L398.9079630117516,604.4060570021966 M398.9079630117516,604.4060570021966 L394.8862634263063,610.7149017110764 M394.8862634263063,610.7149017110764 L388.4364010878418,616.284816689363 M388.4364010878418,616.284816689363 L379.9252644039485,620.7975552326561 M379.9252644039485,620.7975552326561 L369.83806919369033,623.995278964275 M369.83806919369033,623.995278964275 L358.750357207234,625.6950737719119 M358.750357207234,625.6950737719119 L347.2949841619246,625.7996391351226 M347.2949841619246,625.7996391351226 L336.12616158508985,624.3030560793966 M336.12616158508985,624.3030560793966 L325.88143885828106,621.290929749518 M325.88143885828106,621.290929749518 L317.1454566606328,616.935548528596 M317.1454566606328,616.935548528596 L310.41618766065756,611.4858460680839 M310.41618766065756,611.4858460680839 L306.07665228161534,605.25312389138 M306.07665228161534,605.25312389138 L304.37315875449536,598.5931295627058 M304.37315875449536,598.5931295627058 L305.401417496548,591.8855574444697 M305.401417496548,591.8855574444697 L308.8272399620431,585.3083616401534 M308.8272399620431,585.3083616401534 L309.44537864892544,578.4434455494559 M309.44537864892544,578.4434455494559 L307.2204936202441,571.699063057245 M307.2204936202441,571.699063057245 L302.2861602196506,565.475921112514 M302.2861602196506,565.475921112514 L294.93682311088315,560.1433552553688 M294.93682311088315,560.1433552553688 L285.6096452959105,556.017502772768 M285.6096452959105,556.017502772768 L274.8587863346279,553.3429452123223 M274.8587863346279,553.3429452123223 L263.3224752578472,552.2780300072807 M263.3224752578472,552.2780300072807 L251.6852561299292,552.8858371949807 M251.6852561299292,552.8858371949807 L240.63745890657208,555.1303755576218 M240.63745890657208,555.1303755576218 L230.83495227875156,558.8786980560749 M230.83495227875156,558.8786980560749 L222.8598795354586,563.9087449514564 M222.8598795354586,563.9087449514564 L222.7176156446033,563.8480675604096 M222.7176156446033,563.8480675604096 L222.57535248870164,563.7873228260003 M222.57535248870164,563.7873228260003 L222.4331473688728,563.7265445145331 M222.4331473688728,563.7265445145331 L214.63096028641175,568.6558061345565 M214.63096028641175,568.6558061345565 L205.06647594571012,572.3615566143455 M205.06647594571012,572.3615566143455 L194.28545835702306,574.6319461120283 M194.28545835702306,574.6319461120283 L182.90295342756434,575.3370751492564 M182.90295342756434,575.3370751492564 L171.56916526887758,574.4366388829005 M171.56916526887758,574.4366388829005 L160.93102567260058,571.9820692370924 M160.93102567260058,571.9820692370924 L151.59580599827203,568.1138730733933 M151.59580599827203,568.1138730733933 L144.09591743934914,563.0531503424404 M144.09591743934914,563.0531503424404 L138.85834662098443,557.0891192968354 M138.85834662098443,557.0891192968354 L136.18088549457173,550.5621928022067 M136.18088549457173,550.5621928022067 L136.2148427509161,543.8447188267535 M136.2148427509161,543.8447188267535 L138.95691238836457,537.3194120445557 M138.95691238836457,537.3194120445557 L144.24961534402303,531.3577117228542 M144.24961534402303,531.3577117228542 L151.79062089036714,526.2987063635028 M486.39254196304375,369.92933303193536 L469.0765430955805,361.52948144561174 M469.0765430955805,361.52948144561174 L449.426893502858,355.13383891474393 M449.426893502858,355.13383891474393 L428.11050061993393,350.9580942213072 M428.11050061993393,350.9580942213072 L405.85002439222797,349.1430031514243 M405.85002439222797,349.1430031514243 L383.39951655499846,349.7497569222048 M383.39951655499846,349.7497569222048 L361.5193798069669,352.7578558595735 M361.5193798069669,352.7578558595735 L340.95100931344524,358.0659735846625 M340.95100931344524,358.0659735846625 L322.39201863848024,365.4951323590748 M322.39201863848024,365.4951323590748 L306.47296213075435,374.7945990760875 M306.47296213075435,374.7945990760875 L293.7359444550909,385.6501099420717 M293.7359444550909,385.6501099420717 L284.6161385308701,397.69426015999306 M284.6161385308701,397.69426015999306 L279.4269264520356,410.5186984149814 M279.4269264520356,410.5186984149814 L278.34867011659924,423.6877956619056 M278.34867011659924,423.6877956619056 L281.4223225865774,436.7533295741812 M281.4223225865774,436.7533295741812 L288.5471113018712,449.26974250569856 M288.5471113018712,449.26974250569856 L299.48379648895195,460.8092583599562 M299.48379648895195,460.8092583599562 L313.8621413069691,470.9769276396462 M313.8621413069691,470.9769276396462 L331.1932507761605,479.4240892080296 M331.1932507761605,479.4240892080296 L350.8861735367493,485.8606857583194 M350.8861735367493,485.8606857583194 L372.2681580159718,490.06540136058754 M372.2681580159718,490.06540136058754 L394.60765684725914,491.89364697801216 M394.60765684725914,491.89364697801216 L417.14005674010997,491.28248586034147 M417.14005674010997,491.28248586034147 L439.09375936421986,488.2529337894624 M439.09375936421986,488.2529337894624 L459.71749138453646,482.90924793833665 M459.71749138453646,482.90924793833665 L478.30610511136433,475.4352097817198 M478.30610511136433,475.4352097817198 L494.22515222089487,466.0876136606671 M494.22515222089487,466.0876136606671 L506.93252936999505,455.18722353862086 M506.93252936999505,455.18722353862086 L515.9969600522072,443.1075053655816 M515.9969600522072,443.1075053655816 L521.1125981612113,430.2616140695218 M521.1125981612113,430.2616140695218 L522.1089609987246,417.0880424986344 M522.1089609987246,417.0880424986344 L518.9562912254396,404.03569652277724 M518.9562912254396,404.03569652277724 L511.765922151923,391.5483214917192 M511.765922151923,391.5483214917192 L500.78597942627243,380.04969244241363 M500.78597942627243,380.04969244241363 L486.39254196304375,369.92933303193536 M113.62165087346432,323.2075004765808 L124.15229778236949,326.0689124436251 M124.15229778236949,326.0689124436251 L133.17588953541656,330.33769936697854 M133.17588953541656,330.33769936697854 L140.15617001002454,335.7608927292782 M140.15617001002454,335.7608927292782 L144.67773091490602,342.01689490158105 M144.67773091490602,342.01689490158105 L146.47068632283265,348.7343421331773 M146.47068632283265,348.7343421331773 L145.427159138013,355.51410864887623 M145.427159138013,355.51410864887623 L141.6076575838017,361.95294150938196 M141.6076575838017,361.95294150938196 L135.238165504106,367.66754159579773 M135.238165504106,367.66754159579773 L126.69685314039327,372.3172904259327 M126.69685314039327,372.3172904259327 L116.4916171967547,375.62493294724607 M116.4916171967547,375.62493294724607 L105.22993790663179,377.393101389982 M105.22993790663179,377.393101389982 L93.58275253983118,377.5161999647022 M113.62165087346432,323.2075004765808 L113.67625099329638,323.11010117537546 M113.67625099329638,323.11010117537546 L113.73093626391187,323.0127524728364 M113.73093626391187,323.0127524728364 L113.78573563891223,322.91540425772075 M152.64273147518102,272.33005122991494 L142.19735267488284,269.72965593544177 M142.19735267488284,269.72965593544177 L130.98477164665496,268.6498752243758 M130.98477164665496,268.6498752243758 L119.64273411935602,269.1519708659106 M119.64273411935602,269.1519708659106 L108.816035354201,271.20749521199843 M108.816035354201,271.20749521199843 L99.12056534275689,274.69972347600094 M99.12056534275689,274.69972347600094 L91.10807317889805,279.43046928042145 M91.10807317889805,279.43046928042145 L85.2352720788216,285.1308648902226 M85.2352720788216,285.1308648902226 L81.83729619293149,291.47685283050714 M81.83729619293149,291.47685283050714 L81.10892510070158,298.1072918077747 M81.10892510070158,298.1072918077747 L83.09302074662145,304.64443958517086 M83.09302074662145,304.64443958517086 L87.67783201117066,310.7155590849534 M87.67783201117066,310.7155590849534 L94.60295433914098,315.9741363368937 M94.60295433914098,315.9741363368937 L103.47420857470132,320.11972409470104 M103.47420857470132,320.11972409470104 L113.78573563891223,322.91540425772075 M223.156682844827,235.32431032241118 L228.7754219654783,241.23571696836132 M228.7754219654783,241.23571696836132 L231.77046606953496,247.76968310544112 M231.77046606953496,247.76968310544112 L231.9624409989902,254.53816020492786 M231.9624409989902,254.53816020492786 L229.33853099797744,261.1387301943863 M229.33853099797744,261.1387301943863 L224.05340158682955,267.1786097148056 M224.05340158682955,267.1786097148056 L216.4204914035576,272.2980139522638 M216.4204914035576,272.2980139522638 L206.8933839256121,276.1917050266828 M206.8933839256121,276.1917050266828 L196.03905848474358,278.62739376324373 M196.03905848474358,278.62739376324373 L184.50386762383985,279.45973507468807 M184.50386762383985,279.45973507468807 L172.97510782030446,278.63900959800696 M172.97510782030446,278.63900959800696 L162.13966227628694,276.2141672732446 M162.13966227628694,276.2141672732446 L152.64273147518102,272.33005122991494 M223.156682844827,235.32431032241118 L223.29819764086525,235.26429877794533 M223.29819764086525,235.26429877794533 L223.4398259741898,235.2043206755818 M223.4398259741898,235.2043206755818 L223.58151063963146,235.14440927135956 M305.6075279983341,207.545805688237 L299.78695789246694,201.87413111861713 M299.78695789246694,201.87413111861713 L291.8241526212895,197.17048892901005 M291.8241526212895,197.17048892901005 L282.17283979788834,193.70212813352464 M282.17283979788834,193.70212813352464 L271.38239732316265,191.665916358681 M271.38239732316265,191.665916358681 L260.06647508324545,191.17745247453786 M260.06647508324545,191.17745247453786 L248.8686108250667,192.26445984649956 M248.8686108250667,192.26445984649956 L238.42550656421088,194.86522620161043 M238.42550656421088,194.86522620161043 L229.33132489677314,198.83216537021462 M229.33132489677314,198.83216537021462 L222.10392008961492,203.9399702436216 M222.10392008961492,203.9399702436216 L217.1552503603928,209.89837797894268 M217.1552503603928,209.89837797894268 L214.7682021805134,216.368485617386 M214.7682021805134,216.368485617386 L215.08001749500914,222.98197016157656 M215.08001749500914,222.98197016157656 L218.0742667086226,229.36192574012057 M218.0742667086226,229.36192574012057 L223.58151063963146,235.14440927135956 M399.6855041067588,201.7236391163101 L398.2928059978292,208.42830649163864 M398.2928059978292,208.42830649163864 L394.15413086457056,214.73934057229428 M394.15413086457056,214.73934057229428 L387.51446540512427,220.28092633881135 M387.51446540512427,220.28092633881135 L378.7680618199856,224.72284073771903 M378.7680618199856,224.72284073771903 L368.4350852785989,227.80012093749622 M368.4350852785989,227.80012093749622 L357.13083601784035,229.32914478208443 M357.13083601784035,229.32914478208443 L345.5286725214439,229.21861750786456 M345.5286725214439,229.21861750786456 L334.3198631627735,227.47513267453564 M334.3198631627735,227.47513267453564 L324.1720579252209,224.20278176503814 M324.1720579252209,224.20278176503814 L315.68936587858127,219.59683106454338 M315.68936587858127,219.59683106454338 L309.3762676558203,213.93197828812583 M309.3762676558203,213.93197828812583 L305.6075279983341,207.545805688237 M399.6855041067588,201.7236391163101 L399.86015683798473,201.7234897204621 M399.86015683798473,201.7234897204621 L400.034866591221,201.72340672276937 M400.034866591221,201.72340672276937 L400.2095193456527,201.72339012323084 M494.3067156221549,207.4498981863179 L495.29411486009263,200.8646486223504 M495.29411486009263,200.8646486223504 L493.57349675260065,194.33056908561753 M493.57349675260065,194.33056908561753 L489.2440914513813,188.21970684768917 M489.2440914513813,188.21970684768917 L482.5536215941716,182.87971194530212 M482.5536215941716,182.87971194530212 L473.8837335512289,178.61411757189103 M473.8837335512289,178.61411757189103 L463.7281565483102,175.66518542358574 M463.7281565483102,175.66518542358574 L452.66475881941193,174.20036086487744 M452.66475881941193,174.20036086487744 L441.32274027112965,174.30271777992243 M441.32274027112965,174.30271777992243 L430.3469894447619,175.9664623176402 M430.3469894447619,175.9664623176402 L420.36177394130664,179.09719126476136 M420.36177394130664,179.09719126476136 L411.93524227574403,183.5171884756753 M411.93524227574403,183.5171884756753 L405.54747878902975,188.97533703395732 M405.54747878902975,188.97533703395732 L401.5628595199749,195.16139220425669 M401.5628595199749,195.16139220425669 L400.2095193456527,201.72339012323084 M576.4249801274693,234.96495884523006 L568.5468832355177,239.92030943769498 M568.5468832355177,239.92030943769498 L558.8383595584712,243.6146214001708 M558.8383595584712,243.6146214001708 L547.8771642869074,245.8274767696239 M547.8771642869074,245.8274767696239 L536.3161829210742,246.4267960292159 M536.3161829210742,246.4267960292159 L524.8442066922921,245.37677665678325 M524.8442066922921,245.37677665678325 L514.1447146027956,242.74013289527306 M514.1447146027956,242.74013289527306 L504.85476121460414,238.6741933871806 M504.85476121460414,238.6741933871806 L497.5271827975152,233.42155750940321 M497.5271827975152,233.42155750940321 L492.59733613261085,227.2953210298965 M492.59733613261085,227.2953210298965 L490.3573708876052,220.66036014481085 M490.3573708876052,220.66036014481085 L490.93915690224725,213.91149817365533 M490.93915690224725,213.91149817365533 L494.3067156221549,207.4498981863179 M576.4249801274693,234.96495884523006 L576.566857128104,235.02473667065635 M576.566857128104,235.02473667065635 L576.7086776637207,235.08454793653868 M576.7086776637207,235.08454793653868 L576.850413283328,235.14440927135956 M647.488145386614,272.07811936855296 L654.9268190637667,267.07764345832993 M654.9268190637667,267.07764345832993 L660.1134600496475,261.18828203749604 M660.1134600496475,261.18828203749604 L662.753296210373,254.74620470560922 M662.753296210373,254.74620470560922 L662.6971637535817,248.11889722225942 M662.6971637535817,248.11889722225942 L659.9495709538096,241.68395890204374 M659.9495709538096,241.68395890204374 L654.6682677727379,235.80767690936239 M654.6682677727379,235.80767690936239 L647.1549749147214,230.82423391508473 M647.1549749147214,230.82423391508473 L637.8379457427563,227.01681406759224 M637.8379457427563,227.01681406759224 L627.2476462381776,224.60164529275187 M627.2476462381776,224.60164529275187 L615.9864828176687,223.71575742957168 M615.9864828176687,223.71575742957168 L604.6948358464906,224.40947083883782 M604.6948358464906,224.40947083883782 L594.0147435829217,226.64338898064625 M594.0147435829217,226.64338898064625 L584.5537650784265,230.29075365770632 M584.5537650784265,230.29075365770632 L576.850413283328,235.14440927135956 M686.5149472996918,322.6234293498561 L675.1101582053475,323.93127057499214 M675.1101582053475,323.93127057499214 L663.490575476168,323.5864620640135 M663.490575476168,323.5864620640135 L652.3485300120633,321.6096690528865 M652.3485300120633,321.6096690528865 L642.3475855040988,318.1188189309722 M642.3475855040988,318.1188189309722 L634.0831645111348,313.3222648370569 M634.0831645111348,313.3222648370569 L628.0465812138204,307.5060075474987 M628.0465812138204,307.5060075474987 L624.5960577825783,301.0165830709923 M624.5960577825783,301.0165830709923 L623.9356433203482,294.2403448737548 M623.9356433203482,294.2403448737548 L626.1030793170617,287.5802298882073 M626.1030793170617,287.5802298882073 L630.9681938309643,281.43194457534855 M630.9681938309643,281.43194457534855 L638.240724871823,276.16036123792276 M638.240724871823,276.16036123792276 L647.488145386614,272.07811936855296 M686.5149472996918,322.6234293498561 L686.570069073174,322.72074269640143 M686.570069073174,322.72074269640143 L686.6251052128814,322.818039826613 M686.6251052128814,322.818039826613 L686.6800277548869,322.91540425772075 M706.9015072040897,377.2031200579745 L718.0032872944032,375.7115077398822 M718.0032872944032,375.7115077398822 L728.1702962016313,372.721944125723 M728.1702962016313,372.721944125723 L736.8224792791034,368.4054409597371 M736.8224792791034,368.4054409597371 L743.4667360210151,363.00877676373887 M743.4667360210151,363.00877676373887 L747.7247129289049,356.8401262780054 M747.7247129289049,356.8401262780054 L749.354913443827,350.25160486229765 M749.354913443827,350.25160486229765 L748.2656618974697,343.6188118420397 M748.2656618974697,343.6188118420397 L744.5204377047414,337.3195854022488 M744.5204377047414,337.3195854022488 L738.3336376994675,331.71230207978374 M738.3336376994675,331.71230207978374 L730.0584197678961,327.11581824466145 M730.0584197678961,327.11581824466145 L720.1662142568605,323.79123836060194 M720.1662142568605,323.79123836060194 L709.219958591158,321.92723387692865 M709.219958591158,321.92723387692865 L697.8422292294442,321.6296451020519 M697.8422292294442,321.6296451020519 L686.6800277548869,322.91540425772075 M687.6644966744791,431.6628551289739 L677.0636816400461,428.78591685333913 M677.0636816400461,428.78591685333913 L667.9574319438864,424.4955093635622 M667.9574319438864,424.4955093635622 L660.8874749347897,419.0475128398017 M660.8874749347897,419.0475128398017 L656.2738173679484,412.7667309083844 M656.2738173679484,412.7667309083844 L654.3896984069117,406.02712505492195 M654.3896984069117,406.02712505492195 L655.3458850319828,399.22976579567876 M655.3458850319828,399.22976579567876 L659.0839506110576,392.77857854588456 M659.0839506110576,392.77857854588456 L665.3805755704727,387.0566211275044 M665.3805755704727,387.0566211275044 L673.8607928043521,382.40336808887037 M673.8607928043521,382.40336808887037 L684.0204784268433,379.09455714474007 M684.0204784268433,379.09455714474007 L695.2563094769146,377.32623418179764 M695.2563094769146,377.32623418179764 L706.9015072040897,377.2031200579745 M687.6644966744791,431.6628551289739 L687.6112432193922,431.76079899578656 M687.6112432193922,431.76079899578656 L687.5577886471528,431.8587265574074 M687.5577886471528,431.8587265574074 L687.5042762030055,431.95662101627977 M649.1869271969322,482.95895944811457 L659.7238326679571,485.587975423319 M659.7238326679571,485.587975423319 L671.013785301142,486.6798550048893 M671.013785301142,486.6798550048893 L682.4122756597533,486.1721014224671 M682.4122756597533,486.1721014224671 L693.2683450922507,484.09377444367124 M693.2683450922507,484.09377444367124 L702.9623992816105,480.56377171215456 M702.9623992816105,480.56377171215456 L710.9414129270635,475.7839410581133 M710.9414129270635,475.7839410581133 L716.7507945198327,470.0274428452776 M716.7507945198327,470.0274428452776 L720.0601765312836,463.6229830054251 M720.0601765312836,463.6229830054251 L720.6822227324114,456.9359805090937 M720.6822227324114,456.9359805090937 L718.5826373074979,450.3474738814235 M718.5826373074979,450.3474738814235 L713.8825002769256,444.2326809592139 M713.8825002769256,444.2326809592139 L706.8504957865264,438.93935267263987 M706.8504957865264,438.93935267263987 L697.8876353539356,434.7684073764839 M697.8876353539356,434.7684073764839 L687.5042762030055,431.95662101627977 M578.6314796226445,520.4388354821981 L572.9186361459242,514.4420598927363 M572.9186361459242,514.4420598927363 L569.8451857955811,507.8179995276837 M569.8451857955811,507.8179995276837 L569.5926282543953,500.96089578722626 M569.5926282543953,500.96089578722626 L572.1745666893039,494.27851659218334 M572.1745666893039,494.27851659218334 L577.4361067791858,488.16780199054506 M577.4361067791858,488.16780199054506 L585.0636134183858,482.9913452486022 M585.0636134183858,482.9913452486022 L594.6033004815954,479.0560639347344 M594.6033004815954,479.0560639347344 L605.4885683887014,476.5951734126746 M605.4885683887014,476.5951734126746 L617.0731790435509,475.75436183285865 M617.0731790435509,475.75436183285865 L628.6698514378547,476.58345570872643 M628.6698514378547,476.58345570872643 L639.5905365203976,479.0333496084046 M639.5905365203976,479.0333496084046 L649.1869271969322,482.95895944811457 M578.6314796226445,520.4388354821981 L578.4894494860955,520.4997156121035 M578.4894494860955,520.4997156121035 L578.3473612670018,520.5605621842217 M578.3473612670018,520.5605621842217 L578.2052149654603,520.6213751982389 M495.711871404899,548.6676909845728 L501.61344475737826,554.441274470222 M501.61344475737826,554.441274470222 L509.67535177816393,559.2320353962145 M509.67535177816393,559.2320353962145 L519.43828153449,562.7661831935409 M519.43828153449,562.7661831935409 L530.3452157196118,564.8415459726882 M530.3452157196118,564.8415459726882 L541.773688794796,565.3394412051468 M541.773688794796,565.3394412051468 L553.0711113876048,564.2314386439448 M553.0711113876048,564.2314386439448 L563.5923911246807,561.5808484013105 M563.5923911246807,561.5808484013105 L572.7371148062487,557.5393321617128 M572.7371148062487,557.5393321617128 L579.9838428942098,552.337944766585 M579.9838428942098,552.337944766585 L584.9199617475269,546.2737953321939 M584.9199617475269,546.2737953321939 L587.2650584614596,539.6931571728335 M587.2650584614596,539.6931571728335 L586.8866292253936,532.9712486948151 M586.8866292253936,532.9712486948151 L583.8078446102211,526.4910253164614 M583.8078446102211,526.4910253164614 L578.2052149654603,520.6213751982389 M400.8063570307263,554.594517645399 L402.2109630190385,547.7696162754758 M402.2109630190385,547.7696162754758 L406.3838544372926,541.349722113983 M406.3838544372926,541.349722113983 L413.0758191146816,535.7160082859266 M413.0758191146816,535.7160082859266 L421.88838315123684,531.2025815565928 M421.88838315123684,531.2025815565928 L432.29787238190823,528.0769926809746 M432.29787238190823,528.0769926809746 L443.6862199972481,526.5243104376361 M443.6862199972481,526.5243104376361 L455.377558875769,526.6365553057408 M455.377558875769,526.6365553057408 L466.67836019554545,528.4070375295462 M466.67836019554545,528.4070375295462 L476.91788002862893,531.7309227822134 M476.91788002862893,531.7309227822134 L485.4880984781391,536.411284727672 M485.4880984781391,536.411284727672 L491.8796785372977,542.1707428135605 M491.8796785372977,542.1707428135605 L495.711871404899,548.6676909845728 M400.8063570307263,554.594517645399 L400.6300856471799,554.5946528704387 M400.6300856471799,554.5946528704387 L400.45381426241477,554.5947880954793 M400.45381426241477,554.5947880954793 L400.27754285036343,554.5947880954793 M305.35195876041104,548.7652941226117 L304.3231091308166,555.469274178472 M304.3231091308166,555.469274178472 L306.02755917086046,562.1257032107717 M306.02755917086046,562.1257032107717 L310.3695454728524,568.3550899844345 M310.3695454728524,568.3550899844345 L317.10262125117526,573.8018769904493 M317.10262125117526,573.8018769904493 L325.8435496485959,578.154928808701 M325.8435496485959,578.154928808701 L336.0940759241883,581.1654444740846 M336.0940759241883,581.1654444740846 L347.2692277375379,582.661227364375 M347.2692277375379,582.661227364375 L358.7310937130252,582.5567179061406 M358.7310937130252,582.5567179061406 L369.82509073531355,580.8578319235849 M369.82509073531355,580.8578319235849 L379.91800367379733,577.6618181373885 M379.91800367379733,577.6618181373885 L388.4339641148752,573.1514932313291 M388.4339641148752,573.1514932313291 L394.8874811589103,567.5845581327007 M394.8874811589103,567.5845581327007 L398.9114587929432,561.279089710931 M398.9114587929432,561.279089710931 L400.27754285036343,554.5947880954793 M222.7637457383252,520.8034778970282 L230.74334337667807,515.7761296319593 M230.74334337667807,515.7761296319593 L240.55140479963774,512.0298185917507 M240.55140479963774,512.0298185917507 L251.60545717170476,509.78648490775004 M251.60545717170476,509.78648490775004 L263.24926110709987,509.17900396468076 M263.24926110709987,509.17900396468076 L274.79209684692285,510.2433475762998 M274.79209684692285,510.2433475762998 L285.54903395043044,512.9164697120875 M285.54903395043044,512.9164697120875 L294.88148312926177,517.0401082712754 M294.88148312926177,517.0401082712754 L302.2349718618195,522.3698134143717 M302.2349718618195,522.3698134143717 L307.172090021809,528.5896179252052 M307.172090021809,528.5896179252052 L309.39822623864865,535.3303847096038 M309.39822623864865,535.3303847096038 L308.7797292795749,542.191621824199 M308.7797292795749,542.191621824199 L305.35195876041104,548.7652941226117 M222.7637457383252,520.8034778970282 L222.62140148934623,520.7428330551654 M222.62140148934623,520.7428330551654 L222.47905797615257,520.682120906172 M222.47905797615257,520.682120906172 L222.33677253220716,520.6213751982389 M151.65440000152,483.2136348839633 L144.10911289706274,488.26992131354814 M144.10911289706274,488.26992131354814 L138.81339538821618,494.2284185076844 M138.81339538821618,494.2284185076844 L136.06975083907605,500.75022052333884 M136.06975083907605,500.75022052333884 L136.03574943526752,507.46408780449974 M136.03574943526752,507.46408780449974 L138.71470124464986,513.9875111617596 M138.71470124464986,513.9875111617596 L143.95521403758505,519.948342264616 M143.95521403758505,519.948342264616 L151.45932904488194,525.0063505206354 M151.45932904488194,525.0063505206354 L160.79981913029414,528.8724723571443 M160.79981913029414,528.8724723571443 L171.44397225756575,531.3257259598895 M171.44397225756575,531.3257259598895 L182.78417322203887,532.2256794916404 M182.78417322203887,532.2256794916404 L194.1731234413852,531.5209284804951 M194.1731234413852,531.5209284804951 L204.96024986870836,529.2517562569064 M204.96024986870836,529.2517562569064 L214.53015749182137,525.5479929431556 M214.53015749182137,525.5479929431556 L222.33677253220716,520.6213751982389 M486.44527891306547,326.9286661627856 L500.846837070401,337.0435414388818 M500.846837070401,337.0435414388818 L511.8329839595071,348.53594307506296 M511.8329839595071,348.53594307506296 L519.027426951455,361.0165595390083 M519.027426951455,361.0165595390083 L522.1818979697982,374.06184598627055 M522.1818979697982,374.06184598627055 L521.1849978797288,387.2282974564595 M521.1849978797288,387.2282974564595 L516.0664976294929,400.06725058941663 M516.0664976294929,400.06725058941663 L506.99697317748047,412.1404487678135 M506.99697317748047,412.1404487678135 L494.2824409015759,423.0349590553527 M494.2824409015759,423.0349590553527 L478.3544192827555,432.37751567840667 M478.3544192827555,432.37751567840667 L459.7553172674406,439.84752623146517 M459.7553172674406,439.84752623146517 L439.11994199622814,445.18833347167265 M439.11994199622814,445.18833347167265 L417.15384083448055,448.2162539080649 M417.15384083448055,448.2162539080649 L394.6087135104071,448.8270859031172 M394.6087135104071,448.8270859031172 L372.25659653568226,446.9998248650878 M372.25659653568226,446.9998248650878 L350.86253734516606,442.7973740278612 M350.86253734516606,442.7973740278612 L331.158498296108,436.36424537967605 M331.158498296108,436.36424537967605 L313.81761194937155,427.9216367807767 M313.81761194937155,427.9216367807767 L299.4311634562987,417.7594505499645 M299.4311634562987,417.7594505499645 L288.48832289458164,406.22616115186486 M288.48832289458164,406.22616115186486 L281.35953423032566,393.7165061401531 M281.35953423032566,393.7165061401531 L278.28416965900277,380.6580314633635 M278.28416965900277,380.6580314633635 L279.3630555884272,367.4960544008974 M279.3630555884272,367.4960544008974 L284.5552127999459,354.67855480118544 M284.5552127999459,354.67855480118544 L293.68017495944395,342.6409253939328 M293.68017495944395,342.6409253939328 L306.42438123280834,331.79129539216103 M306.42438123280834,331.79129539216103 L322.3524122658065,322.49686927748803 M322.3524122658065,322.49686927748803 L340.9218577880501,315.0717391364634 M340.9218577880501,315.0717391364634 L361.5018090902168,309.7665008385013 M361.5018090902168,309.7665008385013 L383.3942613980396,306.76003402793845 M383.3942613980396,306.76003402793845 L405.8574043273499,306.153609499809 M405.8574043273499,306.153609499809 L428.1304095456791,307.9677156789711 M428.1304095456791,307.9677156789711 L449.45880315136617,312.14119492364694 M449.45880315136617,312.14119492364694 L469.1195202173558,318.53336863151753 M469.1195202173558,318.53336863151753 L486.44527891306547,326.9286661627856 M222.4331473688728,563.7265445145331 L222.33677253220716,520.6213751982389 M113.77871578923146,366.20614903976104 L113.62165087346432,323.2075004765808 M222.8598795354586,563.9087449514564 L222.7637457383252,520.8034778970282 M113.94270704175761,365.9138943752006 L113.78573563891223,322.91540425772075 M305.401417496548,591.8855574444697 L305.35195876041104,548.7652941226117 M152.77766161560245,315.30106438588143 L152.64273147518102,272.33005122991494 M400.2732743659901,597.7181749947688 L400.27754285036343,554.5947880954793 M223.25189421319826,278.2751757602516 L223.156682844827,235.32431032241118 M400.8017892001915,597.7179043997983 L400.8063570307263,554.594517645399 M223.6764830470387,278.0951766654895 L223.58151063963146,235.14440927135956 M495.65358917449277,591.7879020000403 L495.711871404899,548.6676909845728 M305.656412088873,250.48152110524643 L305.6075279983341,207.545805688237 M578.1003179784354,563.7265445145331 L578.2052149654603,520.6213751982389 M399.6816062210609,244.6561763698162 L399.6855041067588,201.7236391163101 M578.5263420399363,563.5439068248393 L578.6314796226445,520.4388354821981 M400.2053275047296,244.6559272407975 L400.2095193456527,201.72339012323084 M649.0420241162924,526.0438939607998 L649.1869271969322,482.95895944811457 M494.2497299479949,250.3855612579639 L494.3067156221549,207.4498981863179 M687.3379399329338,475.0140881378436 L687.5042762030055,431.95662101627977 M576.3218489160213,277.91562844030034 L576.4249801274693,234.96495884523006 M687.4980712455792,474.7201638242601 L687.6644966744791,431.6628551289739 M576.7470427355252,278.0951766654895 L576.850413283328,235.14440927135956 M706.7244739275989,420.2310157518815 L706.9015072040897,377.2031200579745 M647.3449791741496,315.0489954946796 L647.488145386614,272.07811936855296 M686.5146201810126,365.9138943752006 L686.6800277548869,322.91540425772075 M686.349633860463,365.6217610849709 L686.5149472996918,322.6234293498561 M486.39254196304375,369.92933303193536 L486.44527891306547,326.9286661627856" stroke="black"  stroke-width="4"  fill="red"/></svg>