<svg viewBox="0 0 800 800" xmlns="http://www.w3.org/2000/svg"><path d="M641.4720524666695,552.2486706242358 L642.3879126713764,455.1274691439154 M644.1728446936299,552.248675385403 L645.101023796054,455.1274738845525 M641.4720524666695,552.2486706242358 L644.1728446936299,552.248675385403 M642.3879126713764,455.1274691439154 L645.101023796054,455.1274738845525 M406.87779086483573,633.450681455417 L392.5956872663381,631.7116891700293 M392.5956872663381,631.7116891700293 L378.56680068248863,629.3718628139337 M378.56680068248863,629.3718628139337 L364.86484537656895,626.4439234170504 M364.86484537656895,626.4439234170504 L351.56159818937516,622.9437466074212 M351.56159818937516,622.9437466074212 L338.72659021512374,618.890222320812 M338.72659021512374,618.890222320812 L326.42668950765255,614.3052751689514 M326.42668950765255,614.3052751689514 L314.7257102063657,609.2135816603583 M314.7257102063657,609.2135816603583 L303.68406092373493,603.6424978481177 M303.68406092373493,603.6424978481177 L293.35848428345685,597.6218788123787 M293.35848428345685,597.6218788123787 L293.5267710035124,621.8931968475707 M239.88608922417114,552.2486706242358 L241.85300631036932,560.794851821712 M241.85300631036932,560.794851821712 L244.86917459964246,569.2409809910351 M244.86917459964246,569.2409809910351 L248.9210085812551,577.5421505520299 M248.9210085812551,577.5421505520299 L253.98936093401312,585.6540465204889 M253.98936093401312,585.6540465204889 L260.0495607408754,593.5331020991409 M260.0495607408754,593.5331020991409 L267.0714612056734,601.1368909065444 M267.0714612056734,601.1368909065444 L275.0195714102416,608.4242614282061 M275.0195714102416,608.4242614282061 L283.8532340163547,615.3556141748638 M283.8532340163547,615.3556141748638 L293.5267710035124,621.8931968475707 M239.88608922417114,552.2486706242358 L238.97022901946417,455.1274691439154 M238.97022901946417,455.1274691439154 L241.1018251517606,464.1587354339621 M241.1018251517606,464.1587354339621 L244.4206356473806,473.0746687320718 M244.4206356473806,473.0746687320718 L248.90977649939268,481.82181081490285 M248.90977649939268,481.82181081490285 L254.5451820222505,490.3474740770339 M254.5451820222505,490.3474740770339 L261.295792298823,498.60004071445405 M261.295792298823,498.60004071445405 L269.12355252046393,506.52934529366485 M269.12355252046393,506.52934529366485 L277.9837255869255,514.086934696136 M277.9837255869255,514.086934696136 L287.82501911771374,521.2264480150798 M287.82501911771374,521.2264480150798 L298.5898234044389,527.9039819709375 M298.5898234044389,527.9039819709375 L310.21469509744514,534.078209617481 M310.21469509744514,534.078209617481 L322.6305728432626,539.7108751182619 M322.6305728432626,539.7108751182619 L335.763306354906,544.7669240354837 M335.763306354906,544.7669240354837 L349.53396872107936,549.2148440699751 M349.53396872107936,549.2148440699751 L363.85957757154915,553.0267723377506 M363.85957757154915,553.0267723377506 L378.6532875128222,556.178859373244 M378.6532875128222,556.178859373244 L393.8253664810016,558.6512714644516 M393.8253664810016,558.6512714644516 L409.28339512168736,560.4284959707546 M409.28339512168736,560.4284959707546 L424.93313151340544,561.4993309018886 M424.93313151340544,561.4993309018886 L440.67907084542037,561.8570311748701 M440.67907084542037,561.8570311748701 L456.4250101774353,561.4993309018886 M456.4250101774353,561.4993309018886 L472.0747465691533,560.4284959707546 M472.0747465691533,560.4284959707546 L487.5327752098391,558.6512714644516 M487.5327752098391,558.6512714644516 L502.7048541780185,556.178859373244 M502.7048541780185,556.178859373244 L517.4985641192916,553.0267723377506 M517.4985641192916,553.0267723377506 L531.8241729697613,549.2148440699751 M531.8241729697613,549.2148440699751 L545.5948353359348,544.7669240354837 M545.5948353359348,544.7669240354837 L558.7275688475781,539.7108751182619 M558.7275688475781,539.7108751182619 L571.1434465933955,534.078209617481 M571.1434465933955,534.078209617481 L582.7683182864018,527.9039819709375 M582.7683182864018,527.9039819709375 L593.533122573127,521.2264480150798 M593.533122573127,521.2264480150798 L603.3744161039151,514.086934696136 M603.3744161039151,514.086934696136 L612.2345891703767,506.52934529366485 M612.2345891703767,506.52934529366485 L620.0623493920175,498.60004071445405 M620.0623493920175,498.60004071445405 L626.8129596685903,490.347474077034 M626.8129596685903,490.347474077034 L632.4483651914479,481.82181081490285 M632.4483651914479,481.82181081490285 L636.93750604346,473.0746687320718 M636.93750604346,473.0746687320718 L640.2563165390802,464.1587354339621 M640.2563165390802,464.1587354339621 L642.3879126713764,455.1274691439154 M587.8313706873282,621.8931968475707 L597.504907674486,615.355614174864 M597.504907674486,615.355614174864 L606.3385702805992,608.4242614282061 M606.3385702805992,608.4242614282061 L614.2866804851674,601.1368909065445 M614.2866804851674,601.1368909065445 L621.3085809499653,593.533102099141 M621.3085809499653,593.533102099141 L627.3687807568276,585.6540465204889 M627.3687807568276,585.6540465204889 L632.4371331095856,577.5421505520299 M632.4371331095856,577.5421505520299 L636.4889670911982,569.2409809910351 M636.4889670911982,569.2409809910351 L639.5051353804713,560.7948518217121 M639.5051353804713,560.7948518217121 L641.4720524666695,552.2486706242358 M587.9996574073837,597.6218788123787 L587.8313706873282,621.8931968475707 M587.9996574073837,597.6218788123787 L577.6740807671058,603.6424978481177 M577.6740807671058,603.6424978481177 L566.6324314844749,609.2135816603583 M566.6324314844749,609.2135816603583 L554.9314521831882,614.3052751689514 M554.9314521831882,614.3052751689514 L542.6315514757171,618.890222320812 M542.6315514757171,618.890222320812 L529.7965435014655,622.9437466074212 M529.7965435014655,622.9437466074212 L516.4932963142717,626.4439234170504 M516.4932963142717,626.4439234170504 L502.79134100835205,629.3718628139337 M502.79134100835205,629.3718628139337 L488.76245442450266,631.7116891700294 M488.76245442450266,631.7116891700294 L474.480350826005,633.450681455417 M474.480350826005,633.450681455417 L474.44161391267687,657.7596127930672 M406.9165277781638,657.7596127930672 L420.35966781582675,658.8313322277504 M420.35966781582675,658.8313322277504 L433.8955888052345,659.368473437925 M433.8955888052345,659.368473437925 L447.46255288560627,659.368473437925 M447.46255288560627,659.368473437925 L460.998473875014,658.8313322277504 M460.998473875014,658.8313322277504 L474.44161391267687,657.7596127930672 M406.87779086483573,633.450681455417 L406.9165277781638,657.7596127930672 M643.3926983352585,510.0951352083126 L644.3137581411329,413.1564339578257 M644.1728446936299,552.248675385403 L643.3926983352585,510.0951352083126 M645.101023796054,455.1274738845525 L644.3137581411329,413.1564339578257 M591.2545863094995,621.8931872042255 L587.8313706873282,621.8931968475707 M591.3135066442244,626.2229298718414 L591.2545863094995,621.8931872042255 M643.3926983352585,510.0951352083126 L646.6107858108139,518.8046408072813 M646.6107858108139,518.8046408072813 L648.7535882513162,527.6354649264342 M648.7535882513162,527.6354649264342 L649.8073734728662,536.5417054987647 M649.8073734728662,536.5417054987647 L649.763876286524,545.476765044274 M649.763876286524,545.476765044274 L648.620664355276,554.3937044034236 M648.620664355276,554.3937044034236 L646.3811572332963,563.2455037480117 M646.3811572332963,563.2455037480117 L643.0544798823055,571.9851581234257 M643.0544798823055,571.9851581234257 L638.6556677007673,580.5661080727446 M638.6556677007673,580.5661080727446 L633.2056456683085,588.9424240393735 M633.2056456683085,588.9424240393735 L626.7309682134255,597.06901990429 M626.7309682134255,597.06901990429 L619.2639440226096,604.9020253334758 M619.2639440226096,604.9020253334758 L610.8424096265221,612.3989424917346 M610.8424096265221,612.3989424917346 L601.5094875359584,619.5188879938138 M601.5094875359584,619.5188879938138 L591.3135066442244,626.2229298718414 M293.35848428345685,597.6218788123787 L289.9313537941201,597.621869179182 M289.9313537941201,597.621869179182 L289.8722985906354,601.9470571245821 M375.20001772203625,633.450681455417 L361.5453199483485,630.4964840924634 M361.5453199483485,630.4964840924634 L348.2762071321064,626.9933085864733 M348.2762071321064,626.9933085864733 L335.45686673582674,622.9587272965894 M335.45686673582674,622.9587272965894 L323.14919270146004,618.4129242960493 M323.14919270146004,618.4129242960493 L311.41233132873214,613.3786096223554 M311.41233132873214,613.3786096223554 L300.3024141027128,607.8808829427034 M300.3024141027128,607.8808829427034 L289.8722985906354,601.9470571245821 M375.20001772203625,633.450681455417 L406.87779086483573,633.450681455417 M293.5267710035124,621.8931968475707 L290.10355538134127,621.8931872042255 M290.10355538134127,621.8931872042255 L289.9313537941201,597.621869179182 M237.18529699721074,552.248675385403 L239.88608922417114,552.2486706242358 M237.8690089084469,515.3061990338282 L237.18529699721074,552.248675385403 M235.90564441822124,515.3061990338282 L237.8690089084469,515.3061990338282 M290.04463504661624,626.2229298718412 L279.54856371937035,619.3059620035519 M279.54856371937035,619.3059620035519 L269.9710913827805,611.9483783125557 M269.9710913827805,611.9483783125557 L261.36483740458925,604.1929220586086 M261.36483740458925,604.1929220586086 L253.77663765566004,596.0844997466381 M253.77663765566004,596.0844997466381 L247.2472524046432,587.6697853939219 M247.2472524046432,587.6697853939219 L241.81118678653397,578.9970834102201 M241.81118678653397,578.9970834102201 L237.49650986251626,570.1159179535316 M237.49650986251626,570.1159179535316 L234.32485073995636,561.0767292950525 M234.32485073995636,561.0767292950525 L232.31115761910985,551.9306624194976 M232.31115761910985,551.9306624194976 L231.46382927316708,542.7291954118638 M231.46382927316708,542.7291954118638 L231.7846706654061,533.5238613792204 M231.7846706654061,533.5238613792204 L233.26902079491103,524.3659257136072 M233.26902079491103,524.3659257136072 L235.90564441822124,515.3061990338282 M290.10355538134127,621.8931872042255 L290.04463504661624,626.2229298718412 M237.18529699721074,552.248675385403 L236.25711789478657,455.1274738845525 M236.25711789478657,455.1274738845525 L238.97022901946417,455.1274691439154 M591.4267878967205,597.621869179182 L587.9996574073837,597.6218788123787 M591.2545863094995,621.8931872042255 L591.4267878967205,597.621869179182 M591.4858431002053,601.9470571245821 L591.4267878967205,597.621869179182 M591.4858431002053,601.9470571245821 L581.0557275881279,607.8808829427034 M581.0557275881279,607.8808829427034 L569.9458103621084,613.3786096223555 M569.9458103621084,613.3786096223555 L558.2089489893808,618.4129242960493 M558.2089489893808,618.4129242960493 L545.901274955014,622.9587272965894 M545.901274955014,622.9587272965894 L533.0819345587344,626.9933085864733 M533.0819345587344,626.9933085864733 L519.8128217424924,630.4964840924634 M519.8128217424924,630.4964840924634 L506.1581239688044,633.450681455417 M474.480350826005,633.450681455417 L506.1581239688044,633.450681455417 M474.44161391267687,657.7596127930672 L506.08308372159775,657.7596127930672 M506.1581239688044,633.450681455417 L506.08308372159775,657.7596127930672 M375.275057969243,657.7596127930672 L406.9165277781638,657.7596127930672 M506.08308372159775,657.7596127930672 L491.8940226083084,660.1869351033731 M491.8940226083084,660.1869351033731 L477.4468039104696,662.018553339337 M477.4468039104696,662.018553339337 L462.814140025813,663.244968190537 M462.814140025813,663.244968190537 L448.0698710641608,663.8597832807791 M448.0698710641608,663.8597832807791 L433.28827062667995,663.8597832807791 M433.28827062667995,663.8597832807791 L418.54400166502774,663.244968190537 M418.54400166502774,663.244968190537 L403.9113377803711,662.018553339337 M403.9113377803711,662.018553339337 L389.46411908253236,660.1869351033731 M389.46411908253236,660.1869351033731 L375.275057969243,657.7596127930672 M375.20001772203625,633.450681455417 L375.275057969243,657.7596127930672 M591.4858431002053,601.9470571245821 L591.3135066442244,626.2229298718414 M289.8722985906354,601.9470571245821 L290.04463504661624,626.2229298718412 M235.67371926664728,491.14822700062325 L235.90564441822124,515.3061990338282 M235.67371926664728,491.14822700062325 L236.31852076627604,489.40700208458156 M236.31852076627604,489.40700208458156 L237.00598329910585,487.6717349883347 M237.00598329910585,487.6717349883347 L237.73596042174023,485.9427648368088 M237.73596042174023,485.9427648368088 L237.0443835497077,413.1564339578257 M237.0443835497077,413.1564339578257 L233.70221443707496,422.1835658821274 M233.70221443707496,422.1835658821274 L231.53043621346455,431.3396095069834 M231.53043621346455,431.3396095069834 L230.54436064392883,440.5729486448623 M230.54436064392883,440.5729486448623 L230.75262039721235,449.83127773035585 M230.75262039721235,449.83127773035585 L232.15707785391604,459.0618969001308 M232.15707785391604,459.0618969001308 L234.75267581067806,468.212019936248 M234.75267581067806,468.212019936248 L238.52763981865695,477.22899046927193 M238.52763981865695,477.22899046927193 L243.46313553850132,486.0607198593407 M243.46313553850132,486.0607198593407 L249.53358389021287,494.65594304249987 M249.53358389021287,494.65594304249987 L256.7066501818955,502.9644762780131 M256.7066501818955,502.9644762780131 L264.9433937420365,510.937610318107 M264.9433937420365,510.937610318107 L274.1983310032527,518.5284525632613 M274.1983310032527,518.5284525632613 L284.4198713479544,525.692101445516 M284.4198713479544,525.692101445516 L295.55042783765606,532.3860495905807 M295.55042783765606,532.3860495905807 L307.5268214036967,538.5704075585877 M307.5268214036967,538.5704075585877 L320.280518111094,544.2082153341304 M320.280518111094,544.2082153341304 L333.7381266966603,549.2656674431826 M333.7381266966603,549.2656674431826 L347.8218773153458,553.712356106594 M347.8218773153458,553.712356106594 L362.44990145884964,557.5214637873754 M362.44990145884964,557.5214637873754 L377.53698228318734,560.6699907751484 M377.53698228318734,560.6699907751484 L392.9948754882621,563.1388718695017 M392.9948754882621,563.1388718695017 L408.73299983472367,564.9131453088048 M408.73299983472367,564.9131453088048 L424.65892370077137,565.9820281880151 M424.65892370077137,565.9820281880151 L440.67907084542037,566.3390717166109 M440.67907084542037,566.3390717166109 L456.69921799006926,565.9820281880151 M456.69921799006926,565.9820281880151 L472.625141856117,564.9131453088048 M472.625141856117,564.9131453088048 L488.36326620257864,563.1388718695017 M488.36326620257864,563.1388718695017 L503.82115940765334,560.6699907751484 M503.82115940765334,560.6699907751484 L518.908240231991,557.5214637873754 M518.908240231991,557.5214637873754 L533.536264375495,553.712356106594 M533.536264375495,553.712356106594 L547.6200149941803,549.2656674431826 M547.6200149941803,549.2656674431826 L561.0776235797466,544.2082153341304 M561.0776235797466,544.2082153341304 L573.8313202871441,538.5704075585877 M573.8313202871441,538.5704075585877 L585.8077138531846,532.3860495905808 M585.8077138531846,532.3860495905808 L596.9382703428862,525.692101445516 M596.9382703428862,525.692101445516 L607.1598106875881,518.5284525632613 M607.1598106875881,518.5284525632613 L616.4147479488042,510.937610318107 M616.4147479488042,510.937610318107 L624.6514915089454,502.9644762780131 M624.6514915089454,502.9644762780131 L631.8245578006276,494.65594304249987 M631.8245578006276,494.65594304249987 L637.8950061523392,486.0607198593407 M637.8950061523392,486.0607198593407 L642.8305018721837,477.22899046927193 M642.8305018721837,477.22899046927193 L646.6054658801627,468.212019936248 M646.6054658801627,468.212019936248 L649.2010638369247,459.0618969001308 M649.2010638369247,459.0618969001308 L650.6055212936283,449.83127773035585 M650.6055212936283,449.83127773035585 L650.8137810469118,440.5729486448623 M650.8137810469118,440.5729486448623 L649.8277054773762,431.3396095069834 M649.8277054773762,431.3396095069834 L647.6559272537656,422.1835658821274 M647.6559272537656,422.1835658821274 L644.3137581411329,413.1564339578257 M237.73596042174023,485.9427648368088 L237.6393074516898,491.14822700062325 M237.8690089084469,515.3061990338282 L237.6393074516898,491.14822700062325 M237.0443835497077,413.1564339578257 L236.25711789478657,455.1274738845525 M235.67371926664728,491.14822700062325 L237.6393074516898,491.14822700062325" stroke="black"  stroke-width="4"  fill="red"/>
<path d="M241.06270649413017,342.7415726823126 L241.72063799184417,307.19122330271773 M240.84018637112743,318.7720814690965 L241.06270649413017,342.7415726823126 M240.84018637112743,318.7720814690965 L237.6393074516898,491.14822700062325 M237.8690089084469,515.3061990338282 L237.6393074516898,491.14822700062325 M237.18529699721074,552.248675385403 L237.8690089084469,515.3061990338282 M237.18529699721074,552.248675385403 L236.25711789478657,455.1274738845525 M240.83346136794106,211.15151300076792 L236.25711789478657,455.1274738845525 M241.72063799184417,307.19122330271773 L240.83346136794106,211.15151300076792 M244.36122087731417,307.19121875141326 L241.72063799184417,307.19122330271773 M244.36122087731417,307.19121875141326 L246.75297670383134,298.5348095250684 M246.75297670383134,298.5348095250684 L250.28467473959293,290.01661781809844 M250.28467473959293,290.01661781809844 L254.93289814334887,281.686276539673 M254.93289814334887,281.686276539673 L260.6678616839116,273.59210408740165 M260.6678616839116,273.59210408740165 L267.45360995948874,265.78081587698756 M267.45360995948874,265.78081587698756 L275.24833161483764,258.29730512206936 M275.24833161483764,258.29730512206936 L284.0046166408802,251.1844013709093 M284.0046166408802,251.1844013709093 L293.6697185300079,244.48261519589323 M293.6697185300079,244.48261519589323 L304.1859877486015,238.22999599448246 M304.1859877486015,238.22999599448246 L315.491150655388,232.46190267823783 M315.491150655388,232.46190267823783 L327.51867248781844,227.2108273504835 M327.51867248781844,227.2108273504835 L340.19821359561485,222.5062831353477 M340.19821359561485,222.5062831353477 L353.45591112312997,218.37460453884336 M353.45591112312997,218.37460453884336 L367.2149137284158,214.8388798962153 M367.2149137284158,214.8388798962153 L381.3957301843904,211.91882849743672 M381.3957301843904,211.91882849743672 L395.9166393438105,209.63068635164274 M395.9166393438105,209.63068635164274 L410.69418680530697,207.98716622082367 M410.69418680530697,207.98716622082367 L425.6435612472796,206.99740511660156 M425.6435612472796,206.99740511660156 L440.67907084542037,206.6668630812283 M440.67907084542037,206.6668630812283 L455.7145804435611,206.99740511660156 M455.7145804435611,206.99740511660156 L470.6639548855337,207.98716622082367 M470.6639548855337,207.98716622082367 L485.44150234703017,209.63068635164274 M485.44150234703017,209.63068635164274 L499.9624115064502,211.91882849743672 M499.9624115064502,211.91882849743672 L514.1432279624248,214.8388798962153 M514.1432279624248,214.8388798962153 L527.9022305677108,218.37460453884347 M527.9022305677108,218.37460453884347 L541.1599280952257,222.5062831353477 M541.1599280952257,222.5062831353477 L553.8394692030222,227.2108273504835 M553.8394692030222,227.2108273504835 L565.8669910354527,232.46190267823783 M565.8669910354527,232.46190267823783 L577.1721539422392,238.22999599448258 M577.1721539422392,238.22999599448258 L587.6884231608328,244.48261519589323 M587.6884231608328,244.48261519589323 L597.3535250499604,251.18440137090943 M597.3535250499604,251.18440137090943 L606.109810076003,258.29730512206936 M606.109810076003,258.29730512206936 L613.9045317313519,265.7808158769877 M613.9045317313519,265.7808158769877 L620.690280006929,273.5921040874017 M620.690280006929,273.5921040874017 L626.4252435474918,281.68627653967303 M626.4252435474918,281.68627653967303 L631.0734669512478,290.01661781809844 M631.0734669512478,290.01661781809844 L634.6051649870094,298.5348095250684 M634.6051649870094,298.5348095250684 L636.9969208135265,307.1912187514133 M639.6375036989964,307.19122330271773 L636.9969208135265,307.1912187514133 M639.6375036989964,307.19122330271773 L644.1728446936299,552.248675385403 M650.1579541179674,552.2486801465702 L644.1728446936299,552.248675385403 M650.1579541179674,552.2486801465702 L645.489220600761,307.1912187514133 M644.3538633610481,307.1912187514133 L645.489220600761,307.1912187514133 M644.3538633610481,307.1912187514133 L641.9975977616518,298.41477260711616 M641.9975977616518,298.41477260711616 L638.5118374764365,289.77194611308886 M638.5118374764365,289.77194611308886 L633.9188295070896,281.3108064276234 M633.9188295070896,281.3108064276234 L628.2468147845082,273.07817810012125 M628.2468147845082,273.07817810012125 L621.5299114615345,265.1193981922609 M621.5299114615345,265.1193981922609 L613.8077356705728,257.4781288496024 M613.8077356705728,257.4781288496024 L605.1253187306772,250.19606062164888 M605.1253187306772,250.19606062164888 L595.5326620658072,243.31278341441845 M595.5326620658072,243.31278341441845 L585.0845235409959,236.86556210696398 M585.0845235409959,236.86556210696398 L573.8400804743367,230.88916257371244 M573.8400804743367,230.88916257371244 L561.8625620319724,225.415707930481 M561.8625620319724,225.415707930481 L549.2189437190502,220.47450978484733 M549.2189437190502,220.47450978484733 L535.9795467522251,216.09196245818646 M535.9795467522251,216.09196245818646 L522.2176892249735,212.29140479855914 M522.2176892249735,212.29140479855914 L508.0093167913603,209.09301489336508 M508.0093167913603,209.09301489336508 L493.4325505132161,206.51376413891063 M493.4325505132161,206.51376413891063 L478.5673659298799,204.56731201503447 M478.5673659298799,204.56731201503447 L463.4951526322905,203.26393040541427 M463.4951526322905,203.26393040541427 L448.2983033774727,202.61051595846016 M448.2983033774727,202.61051595846016 L433.059838313368,202.61051595846016 M433.059838313368,202.61051595846016 L417.86298905855017,203.26393040541427 M417.86298905855017,203.26393040541427 L402.7907757609608,204.56731201503447 M402.7907757609608,204.56731201503447 L387.92559117762454,206.51376413891063 M387.92559117762454,206.51376413891063 L373.34882489948035,209.09301489336508 M373.34882489948035,209.09301489336508 L359.1404524658672,212.29140479855903 M359.1404524658672,212.29140479855903 L345.37859493861555,216.09196245818646 M345.37859493861555,216.09196245818646 L332.13919797179034,220.47450978484733 M332.13919797179034,220.47450978484733 L319.4955796588682,225.415707930481 M319.4955796588682,225.415707930481 L307.518061216504,230.88916257371244 M307.518061216504,230.88916257371244 L296.27361814984494,236.86556210696398 M296.27361814984494,236.86556210696398 L285.82547962503344,243.31278341441845 M285.82547962503344,243.31278341441845 L276.23282296016356,250.19606062164888 M276.23282296016356,250.19606062164888 L267.55040602026776,257.4781288496024 M267.55040602026776,257.4781288496024 L259.82823022930626,265.1193981922608 M259.82823022930626,265.1193981922608 L253.11132690633247,273.07817810012125 M253.11132690633247,273.07817810012125 L247.4393121837509,281.3108064276234 M247.4393121837509,281.3108064276234 L242.84630421440409,289.77194611308886 M242.84630421440409,289.77194611308886 L239.36054392918894,298.41477260711616 M239.36054392918894,298.41477260711616 L237.00427832979275,307.19121875141326 M235.86892109007962,307.19121875141326 L237.00427832979275,307.19121875141326 M235.86892109007962,307.19121875141326 L235.19163043342786,342.7415726823126 M241.06270649413017,342.7415726823126 L235.19163043342786,342.7415726823126 M235.19163043342786,342.7415726823126 L234.96256559365588,318.7720814690965 M240.84018637112743,318.7720814690965 L234.96256559365588,318.7720814690965 M231.66754307202314,491.14822700062325 L234.96256559365588,318.7720814690965 M231.66754307202314,491.14822700062325 L237.6393074516898,491.14822700062325 M231.90400046148267,515.3061990338282 L237.8690089084469,515.3061990338282 M231.66754307202314,491.14822700062325 L231.90400046148267,515.3061990338282 M231.90400046148267,515.3061990338282 L231.20018757287323,552.2486801465702 M237.18529699721074,552.248675385403 L231.20018757287323,552.2486801465702 M231.20018757287323,552.2486801465702 L230.2447090918346,455.1274786251895 M236.25711789478657,455.1274738845525 L230.2447090918346,455.1274786251895 M244.36122087731417,307.19121875141326 L243.48581889120817,211.1515084700099 M243.48581889120817,211.1515084700099 L240.83346136794106,211.15151300076792 M636.9969208135265,307.1912187514133 L637.8723227996325,211.1515084700099 M637.8723227996325,211.1515084700099 L635.469202471277,202.53420879541954 M635.469202471277,202.53420879541954 L631.9210932549054,194.0545625827615 M631.9210932549054,194.0545625827615 L627.251531527812,185.76197471381442 M627.251531527812,185.76197471381442 L621.4904490761869,177.70454023789466 M621.4904490761869,177.70454023789466 L614.673973681867,169.92875734322618 M614.673973681867,169.92875734322618 L606.8441132418584,162.47930928869005 M606.8441132418584,162.47930928869005 L598.0484971031206,155.39882421339036 M598.0484971031206,155.39882421339036 L588.3401125692458,148.72762117886458 M588.3401125692458,148.72762117886458 L577.776869390947,142.50356881855595 M577.776869390947,142.50356881855595 L566.4213195457658,136.76185727905693 M566.4213195457658,136.76185727905693 L554.3402926359522,131.53482291078086 M554.3402926359522,131.53482291078086 L541.6044376846963,126.85183681347121 M541.6044376846963,126.85183681347121 L528.2879403050702,122.73910630698163 M528.2879403050702,122.73910630698163 L514.4679857689962,119.2196078718257 M514.4679857689962,119.2196078718257 L500.2244090611904,116.31296500551173 M500.2244090611904,116.31296500551173 L485.6392833400167,114.03533465942155 M485.6392833400167,114.03533465942155 L470.7964213522014,112.39936758157648 M470.7964213522014,112.39936758157648 L455.7809977400352,111.4141561548654 M455.7809977400352,111.4141561548654 L440.67907084542037,111.0851337164882 M440.67907084542037,111.0851337164882 L425.57714395080546,111.4141561548654 M425.57714395080546,111.4141561548654 L410.56172033863925,112.39936758157648 M410.56172033863925,112.39936758157648 L395.71885835082395,114.03533465942155 M395.71885835082395,114.03533465942155 L381.1337326296503,116.31296500551173 M381.1337326296503,116.31296500551173 L366.8901559218444,119.21960787182559 M366.8901559218444,119.21960787182559 L353.0702013857704,122.73910630698163 M353.0702013857704,122.73910630698163 L339.75370400614423,126.85183681347115 M339.75370400614423,126.85183681347115 L327.0178490548884,131.53482291078086 M327.0178490548884,131.53482291078086 L314.93682214507487,136.76185727905693 M314.93682214507487,136.76185727905693 L303.5812722998935,142.50356881855595 M303.5812722998935,142.50356881855595 L293.01802912159496,148.72762117886458 M293.01802912159496,148.72762117886458 L283.3096445877201,155.39882421339036 M283.3096445877201,155.39882421339036 L274.51402844898223,162.47930928868993 M274.51402844898223,162.47930928868993 L266.68416800897364,169.9287573432261 M266.68416800897364,169.9287573432261 L259.8676926146537,177.70454023789466 M259.8676926146537,177.70454023789466 L254.10661016302865,185.7619747138143 M254.10661016302865,185.7619747138143 L249.43704843593534,194.0545625827615 M249.43704843593534,194.0545625827615 L245.88893921956367,202.53420879541943 M245.88893921956367,202.53420879541943 L243.48581889120817,211.1515084700099 M639.6375036989964,307.19122330271773 L640.5246803228997,211.15151300076792 M640.5246803228997,211.15151300076792 L637.8723227996325,211.1515084700099 M644.1728446936299,552.248675385403 L645.101023796054,455.1274738845525 M645.101023796054,455.1274738845525 L640.5246803228997,211.15151300076792 M650.1579541179674,552.2486801465702 L651.113432599006,455.1274786251895 M651.113432599006,455.1274786251895 L645.101023796054,455.1274738845525 M645.489220600761,307.1912187514133 L646.4024906467585,211.1515084700099 M646.4024906467585,211.1515084700099 L651.113432599006,455.1274786251895 M644.3538633610481,307.1912187514133 L645.2620707294398,211.1515084700099 M645.2620707294398,211.1515084700099 L646.4024906467585,211.1515084700099 M237.00427832979275,307.19121875141326 L236.09607096140078,211.1515084700099 M236.09607096140078,211.1515084700099 L238.46357953766824,202.4147146378083 M238.46357953766824,202.4147146378083 L241.96558282491114,193.81099892194572 M241.96558282491114,193.81099892194572 L246.5797193712705,185.38820759565272 M246.5797193712705,185.38820759565272 L252.27760839329545,177.19294869382418 M252.27760839329545,177.19294869382418 L259.0249673023438,169.27034837068868 M259.0249673023438,169.27034837068868 L266.7819928913088,161.6638644695862 M266.7819928913088,161.6638644695862 L275.503444720038,154.4149913576943 M275.503444720038,154.4149913576943 L285.13909233957577,147.56313164634588 M285.13909233957577,147.56313164634588 L295.6339300284427,141.14537302026417 M295.6339300284427,141.14537302026417 L306.92851534567063,135.19631525044184 M306.92851534567063,135.19631525044184 L318.95933838246987,129.74792729516258 M318.95933838246987,129.74792729516258 L331.65912859282207,124.82937951826233 M331.65912859282207,124.82937951826233 L344.9572571101137,120.46693858511117 M344.9572571101137,120.46693858511117 L358.78008699561735,116.68383008822946 M358.78008699561735,116.68383008822946 L373.0513440129668,113.5001339086661 M373.0513440129668,113.5001339086661 L387.69257056319884,110.9327386447008 M387.69257056319884,110.9327386447008 L402.6234477841172,108.99523699809788 M402.6234477841172,108.99523699809788 L417.7622376417995,107.6978505482274 M417.7622376417995,107.6978505482274 L433.02619532605223,107.04744213726553 M433.02619532605223,107.04744213726553 L448.3319463647884,107.04744213726553 M448.3319463647884,107.04744213726553 L463.59590404904105,107.6978505482274 M463.59590404904105,107.6978505482274 L478.7346939067234,108.99523699809788 M478.7346939067234,108.99523699809788 L493.6655711276418,110.93273864470092 M493.6655711276418,110.93273864470092 L508.3067976778738,113.5001339086661 M508.3067976778738,113.5001339086661 L522.5780546952233,116.68383008822946 M522.5780546952233,116.68383008822946 L536.4008845807269,120.46693858511117 M536.4008845807269,120.46693858511117 L549.6990130980187,124.82937951826233 M549.6990130980187,124.82937951826233 L562.3988033083708,129.74792729516258 M562.3988033083708,129.74792729516258 L574.4296263451702,135.19631525044184 M574.4296263451702,135.19631525044184 L585.7242116623979,141.14537302026417 M585.7242116623979,141.14537302026417 L596.2190493512649,147.56313164634588 M596.2190493512649,147.56313164634588 L605.8546969708027,154.4149913576943 M605.8546969708027,154.4149913576943 L614.5761487995319,161.6638644695862 M614.5761487995319,161.6638644695862 L622.3331743884969,169.27034837068868 M622.3331743884969,169.27034837068868 L629.0805332975451,177.19294869382418 M629.0805332975451,177.19294869382418 L634.7784223195702,185.38820759565277 M634.7784223195702,185.38820759565277 L639.3925588659295,193.81099892194584 M639.3925588659295,193.81099892194584 L642.8945621531725,202.4147146378083 M642.8945621531725,202.4147146378083 L645.2620707294398,211.1515084700099 M235.86892109007962,307.19121875141326 L234.95565104408217,211.1515084700099 M234.95565104408217,211.1515084700099 L236.09607096140078,211.1515084700099 M230.2447090918346,455.1274786251895 L234.95565104408217,211.1515084700099" stroke="black"  stroke-width="4"  fill="red"/>
<path d="M236.14132303420268,335.8370764671311 L234.96170864865155,398.0016011515532 M236.14132303420268,335.8370764671311 L235.91437178944727,311.97082585501505 M234.73213063024232,374.0669298286823 L235.91437178944727,311.97082585501505 M234.73213063024232,374.0669298286823 L234.96170864865155,398.0016011515532 M237.27517022414656,335.8370764671311 L236.14132303420268,335.8370764671311 M237.27517022414656,335.8370764671311 L239.6280836343453,327.0489385192753 M239.6280836343453,327.0489385192753 L243.10900030330583,318.3945795760255 M243.10900030330583,318.3945795760255 L247.695707340567,309.922131944369 M247.695707340567,309.922131944369 L253.36000550561607,301.6784840401737 M253.36000550561607,301.6784840401737 L260.06782567132143,293.7090351441008 M260.06782567132143,293.7090351441008 L267.77960748678663,286.0575076781161 M267.77960748678663,286.0575076781161 L276.4503819938949,278.76565007804237 M276.4503819938949,278.76565007804237 L286.03021607025096,271.87310751880415 M286.03021607025096,271.87310751880415 L296.464425773317,265.41719717233656 M296.464425773317,265.41719717233656 L307.69391286170685,259.43273393679436 M307.69391286170685,259.43273393679436 L319.6555319090424,253.9518864293932 M319.6555319090424,253.9518864293932 L332.282395418732,249.00400795031692 M332.282395418732,249.00400795031692 L345.50427394746924,244.61553050501107 M345.50427394746924,244.61553050501107 L359.24794451797544,240.8098263764461 M359.24794451797544,240.8098263764461 L373.43755949995773,237.6071026455803 M373.43755949995773,237.6071026455803 L387.99509823095104,235.02435515423815 M387.99509823095104,235.02435515423815 L402.8406875974249,233.0752630986754 M402.8406875974249,233.0752630986754 L417.8930419633942,231.77011321548713 M417.8930419633942,231.77011321548713 L433.0698736050277,231.11581213491155 M433.0698736050277,231.11581213491155 L448.288268085813,231.11581213491155 M448.288268085813,231.11581213491155 L463.46509972744644,231.77011321548713 M463.46509972744644,231.77011321548713 L478.5174540934157,233.0752630986754 M478.5174540934157,233.0752630986754 L493.36304345988964,235.02435515423815 M493.36304345988964,235.02435515423815 L507.92058219088295,237.6071026455803 M507.92058219088295,237.6071026455803 L522.1101971728654,240.8098263764461 M522.1101971728654,240.8098263764461 L535.8538677433714,244.61553050501107 M535.8538677433714,244.61553050501107 L549.0757462721086,249.00400795031692 M549.0757462721086,249.00400795031692 L561.7026097817984,253.9518864293932 M561.7026097817984,253.9518864293932 L573.6642288291339,259.4327339367944 M573.6642288291339,259.4327339367944 L584.8937159175237,265.41719717233656 M584.8937159175237,265.41719717233656 L595.3279256205897,271.87310751880426 M595.3279256205897,271.87310751880426 L604.9077596969457,278.7656500780424 M604.9077596969457,278.7656500780424 L613.578534204054,286.0575076781161 M613.578534204054,286.0575076781161 L621.2903160195192,293.70903514410094 M621.2903160195192,293.70903514410094 L627.9981361852247,301.67848404017377 M627.9981361852247,301.67848404017377 L633.6624343502738,309.922131944369 M633.6624343502738,309.922131944369 L638.2491413875348,318.3945795760255 M638.2491413875348,318.3945795760255 L641.7300580564954,327.0489385192753 M641.7300580564954,327.0489385192753 L644.0829714666941,335.83707646713117 M645.216818656638,335.83707646713117 L644.0829714666941,335.83707646713117 M234.96170864865155,398.0016011515532 L224.25913421451907,399.49526796188616 M224.25913421451907,399.49526796188616 L213.87449349756648,401.6426945268571 M213.87449349756648,401.6426945268571 L203.92446393815808,404.42019289777573 M203.92446393815808,404.42019289777573 L194.52106138285652,407.79706459495617 M194.52106138285652,407.79706459495617 L185.77044894022356,411.7359239838586 M185.77044894022356,411.7359239838586 L177.7717470005137,416.19308329522966 M177.7717470005137,416.19308329522966 L170.6159654004527,421.1189812560533 M170.6159654004527,421.1189812560533 L164.38496407264464,426.4586976468662 M164.38496407264464,426.4586976468662 L159.15044198556575,432.152538561891 M159.15044198556575,432.152538561891 L154.9732025913073,438.136653845124 M154.9732025913073,438.136653845124 L151.90229567800822,444.3437151277782 M151.90229567800822,444.3437151277782 L149.97445964872273,450.70366193201767 M149.97445964872273,450.70366193201767 L149.21361571254866,457.14444379130623 M149.21361571254866,457.14444379130623 L149.63051596781736,463.59283683469823 M149.63051596781736,463.59283683469823 L151.2224480054012,469.97529434841056 M151.2224480054012,469.97529434841056 L153.97328281832438,476.218752425017 M153.97328281832438,476.218752425017 L157.8535307050055,482.25147198756224 M157.8535307050055,482.25147198756224 L162.82053553561624,488.0039341573181 M162.82053553561624,488.0039341573181 L168.8189708537836,493.4096154304076 M168.8189708537836,493.4096154304076 L175.78135005817015,498.4058277577916 M175.78135005817015,498.4058277577916 L183.6287962535733,502.93446066904505 M183.6287962535733,502.93446066904505 L192.27189948979333,506.9427085826811 M192.27189948979333,506.9427085826811 L201.61175340440647,510.3837197524158 M201.61175340440647,510.3837197524158 L211.5410569767693,513.2172097098254 M211.5410569767693,513.2172097098254 L221.94546772721452,515.4099186646895 M221.94546772721452,515.4099186646895 L232.70484486959302,516.9361155328027 M645.216818656638,335.83707646713117 L649.8730002308371,581.2132925847444 M231.48514146000372,581.2132925847444 L232.70484486959302,516.9361155328027 M648.7133498273347,581.2132973519603 L649.8730002308371,581.2132925847444 M231.48514146000372,581.2132925847444 L232.6447918635059,581.2132973519603 M232.6447918635059,581.2132973519603 L234.71161649490594,590.4212743126378 M234.71161649490594,590.4212743126378 L237.9478620497414,599.5188739105596 M237.9478620497414,599.5188739105596 L242.3379960510445,608.454015192518 M242.3379960510445,608.454015192518 L247.85978962994892,617.175307254647 M247.85978962994892,617.175307254647 L254.48432860427965,625.6323576783649 M254.48432860427965,625.6323576783649 L262.1761533024986,633.776082887957 M262.1761533024986,633.776082887957 L270.8934081812964,641.5589859936425 M270.8934081812964,641.5589859936425 L280.5880655379693,648.9355167948826 M280.5880655379693,648.9355167948826 L291.206179498181,655.8622914899654 M291.206179498181,655.8622914899654 L302.68806970746124,662.2984213643642 M302.68806970746124,662.2984213643642 L314.96879476618295,668.2058147123864 M314.96879476618295,668.2058147123864 L327.97834831380476,673.5493827138354 M327.97834831380476,673.5493827138354 L341.64232328766633,678.2972444887356 M341.64232328766633,678.2972444887356 L355.8820518332961,682.4210759409536 M355.8820518332961,682.4210759409536 L370.61531336958944,685.8961647516617 M370.61531336958944,685.8961647516617 L385.75672718662895,688.701655168862 M385.75672718662895,688.701655168862 L401.2183516828759,690.8206712899507 M401.2183516828759,690.8206712899507 L416.9101457520866,692.2405023959925 M416.9101457520866,692.2405023959925 L432.7406497803308,692.9525578627345 M432.7406497803308,692.9525578627345 L448.61749191050995,692.9525578627345 M448.61749191050995,692.9525578627345 L464.4479959387541,692.2405023959925 M464.4479959387541,692.2405023959925 L480.13979000796485,690.8206712899507 M480.13979000796485,690.8206712899507 L495.60141450421173,688.701655168862 M495.60141450421173,688.701655168862 L510.74282832125124,685.8961647516617 M510.74282832125124,685.8961647516617 L525.4760898575447,682.4210759409536 M525.4760898575447,682.4210759409536 L539.7158184031744,678.2972444887356 M539.7158184031744,678.2972444887356 L553.3797933770361,673.5493827138354 M553.3797933770361,673.5493827138354 L566.3893469246577,668.2058147123864 M566.3893469246577,668.2058147123864 L578.6700719833793,662.2984213643642 M578.6700719833793,662.2984213643642 L590.1519621926598,655.8622914899654 M590.1519621926598,655.8622914899654 L600.7700761528715,648.9355167948826 M600.7700761528715,648.9355167948826 L610.4647335095442,641.5589859936425 M610.4647335095442,641.5589859936425 L619.181988388342,633.7760828879572 M619.181988388342,633.7760828879572 L626.8738130865609,625.632357678365 M626.8738130865609,625.632357678365 L633.4983520608916,617.175307254647 M633.4983520608916,617.175307254647 L639.0201456397963,608.454015192518 M639.0201456397963,608.454015192518 L643.4102796410994,599.5188739105596 M643.4102796410994,599.5188739105596 L646.6465251959346,590.4212743126378 M646.6465251959346,590.4212743126378 L648.7133498273347,581.2132973519603 M244.68563950335314,473.85913099373363 L273.3398435055203,469.37541609898915 M224.0028700388259,461.6181066791206 L244.68563950335314,473.85913099373363 M273.3398435055203,469.37541609898915 L281.2405338029462,452.67444072635726 M231.9734066530238,444.9408490344374 L224.0028700388259,461.6181066791206 M281.2405338029462,452.67444072635726 L260.55694595347893,440.48085193247664 M260.55694595347893,440.48085193247664 L231.9734066530238,444.9408490344374 M433.09623168390857,364.66937364618036 L461.3873467015244,360.2748841513564 M461.3873467015244,360.2748841513564 L468.92424147960463,343.90593539909463 M468.92424147960463,343.90593539909463 L448.2389568911057,331.9544461271862 M448.2389568911057,331.9544461271862 L420.0167011650115,336.32592135135394 M420.0167011650115,336.32592135135394 L412.4109471443605,352.671855886097 M412.4109471443605,352.671855886097 L433.09623168390857,364.66937364618036 M432.9414487118474,585.2776691078221 L461.8098687661468,580.7019847447145 M411.8345896164022,572.7856488377328 L432.9414487118474,585.2776691078221 M461.8098687661468,580.7019847447145 L469.4996538787059,563.6587783378188 M419.5960693461387,555.7668926395924 L411.8345896164022,572.7856488377328 M469.4996538787059,563.6587783378188 L448.39279473019565,551.215658553167 M448.39279473019565,551.215658553167 L419.5960693461387,555.7668926395924 M237.04947707494503,311.97082585501505 L235.91437178944727,311.97082585501505 M237.04947707494503,311.97082585501505 L237.27517022414656,335.8370764671311 M644.3086646158956,311.97082585501505 L641.9529583750029,303.1924245925275 M641.9529583750029,303.1924245925275 L638.4680062932116,294.5476696380916 M638.4680062932116,294.5476696380916 L633.876049679868,286.08463904363646 M633.876049679868,286.08463904363646 L628.2053225090085,277.85016803757605 M628.2053225090085,277.85016803757605 L621.4899347527962,269.88960408492045 M621.4899347527962,269.88960408492045 L613.7694932358447,262.24661940955923 M613.7694932358447,262.24661940955923 L605.089018871744,254.96291423951834 M605.089018871744,254.96291423951834 L595.4985016879118,248.0780877215496 M595.4985016879118,248.0780877215496 L585.0526872151061,241.6294134777158 M585.0526872151061,241.6294134777158 L573.8107395772897,235.6516655787467 M573.8107395772897,235.6516655787467 L561.835873968568,230.1769747477531 M561.835873968568,230.1769747477531 L549.1950512099252,225.2346595627298 M549.1950512099252,225.2346595627298 L535.9585772058156,220.85112064522303 M535.9585772058156,220.85112064522303 L522.1997541798703,217.04970243301398 M522.1997541798703,217.04970243301398 L507.9945114312813,213.85058786066213 M507.9945114312813,213.85058786066213 L493.4209532707268,211.27075241125868 M493.4209532707268,211.27075241125868 L478.55903814835665,209.32385886079697 M478.55903814835665,209.32385886079697 L463.49013831084324,208.02018157602504 M463.49013831084324,208.02018157602504 L448.29662899108405,207.36661887408303 M448.29662899108405,207.36661887408303 L433.0615126997566,207.36661887408303 M433.0615126997566,207.36661887408303 L417.86800337999745,208.02018157602504 M417.86800337999745,208.02018157602504 L402.79910354248403,209.32385886079697 M402.79910354248403,209.32385886079697 L387.9371884201139,211.27075241125868 M387.9371884201139,211.27075241125868 L373.36363025955933,213.85058786066213 M373.36363025955933,213.85058786066213 L359.15838751097033,217.04970243301398 M359.15838751097033,217.04970243301398 L345.3995644850251,220.85112064522303 M345.3995644850251,220.85112064522303 L332.16309048091546,225.2346595627298 M332.16309048091546,225.2346595627298 L319.5222677222727,230.1769747477531 M319.5222677222727,230.1769747477531 L307.547402113551,235.65166557874664 M307.547402113551,235.65166557874664 L296.3054544757347,241.6294134777158 M296.3054544757347,241.6294134777158 L285.8596400029289,248.0780877215496 M285.8596400029289,248.0780877215496 L276.26912281909665,254.96291423951834 M276.26912281909665,254.96291423951834 L267.588648454996,262.2466194095591 M267.588648454996,262.2466194095591 L259.8682069380445,269.88960408492045 M259.8682069380445,269.88960408492045 L253.15281918183223,277.85016803757605 M253.15281918183223,277.85016803757605 L247.4820920109728,286.08463904363634 M247.4820920109728,286.08463904363634 L242.89013539762902,294.5476696380916 M242.89013539762902,294.5476696380916 L239.4051833158377,303.1924245925274 M239.4051833158377,303.1924245925274 L237.04947707494503,311.97082585501505 M645.4437699013934,311.97082585501505 L644.3086646158956,311.97082585501505 M232.47019908338424,492.8727550373636 L221.69871713626117,491.3481911143157 M221.69871713626117,491.3481911143157 L211.28262108221432,489.15782907361154 M211.28262108221432,489.15782907361154 L201.3421884435254,486.327373339642 M201.3421884435254,486.327373339642 L191.9918912874008,482.89004917349655 M191.9918912874008,482.89004917349655 L183.3391516009833,478.8860991214302 M183.3391516009833,478.8860991214302 L175.48298652115463,474.36232603235476 M175.48298652115463,474.36232603235476 L168.51290532616582,469.3714801952498 M168.51290532616582,469.3714801952498 L162.50787164327096,463.9716110099429 M162.50787164327096,463.9716110099429 L157.53544529465626,458.225340380696 M157.53544529465626,458.225340380696 L153.65101165844888,452.1991213186575 M153.65101165844888,452.1991213186575 L150.89727101971312,445.9623987033774 M150.89727101971312,445.9623987033774 L149.30374203661162,439.58683489049577 M149.30374203661162,439.58683489049577 L148.8865674009939,433.1454152729608 M148.8865674009939,433.1454152729608 L149.64845802621932,426.7116071451794 M149.64845802621932,426.7116071451794 L151.57864524087836,420.3585549201506 M151.57864524087836,420.3585549201506 L154.6531766734416,414.15823050037227 M154.6531766734416,414.15823050037227 L158.8352687111336,408.1806176062643 M158.8352687111336,408.1806176062643 L164.07581300740333,402.4929705031763 M164.07581300740333,402.4929705031763 L170.31393494137123,397.15906876268224 M170.31393494137123,397.15906876268224 L177.47785281525975,392.23854002698755 M177.47785281525975,392.23854002698755 L185.48561329083412,387.78624331642897 M185.48561329083412,387.78624331642897 L194.2461036145026,383.85168448233316 M194.2461036145026,383.85168448233316 L203.66009213443664,380.47850228666437 M203.66009213443664,380.47850228666437 L213.62129730444045,377.70404031183625 M213.62129730444045,377.70404031183625 L224.01757894253217,375.5589624280458 M224.01757894253217,375.5589624280458 L234.73213063024232,374.0669298286823 M650.1104079058971,557.0815940590236 L645.4437699013934,311.97082585501505 M232.47019908338424,492.8727550373636 L231.24773378494356,557.0815940590236 M648.9494414513717,557.0815988212024 L650.1104079058971,557.0815940590236 M231.24773378494356,557.0815940590236 L232.4087002394689,557.0815988212024 M648.9494414513717,557.0815988212024 L646.8804667014558,566.2798556524643 M646.8804667014558,566.2798556524643 L643.6407354407447,575.3678687632032 M643.6407354407447,575.3678687632032 L639.24579357372,584.2936113156558 M639.24579357372,584.2936113156558 L633.717891290152,593.0057454279461 M633.717891290152,593.0057454279461 L627.0859720651226,601.453930313151 M627.0859720651226,601.453930313151 L619.3855327592976,609.5891323460002 M619.3855327592976,609.5891323460002 L610.6584739037196,617.3639026562996 M610.6584739037196,617.3639026562996 L600.9528757950397,624.7327368030237 M600.9528757950397,624.7327368030237 L590.3227442648824,631.6522943065601 M590.3227442648824,631.6522943065601 L578.8278268133224,638.0817270497998 M578.8278268133224,638.0817270497998 L566.5331386518017,643.9829809433988 M566.5331386518017,643.9829809433988 L553.5087663962963,649.3210016471609 M553.5087663962963,649.3210016471609 L539.8292030347654,654.0639394697628 M539.8292030347654,654.0639394697628 L525.5732078285828,658.1834979065985 M525.5732078285828,658.1834979065985 L510.82309739052874,661.6549886291145 M510.82309739052874,661.6549886291145 L495.66435257930584,664.457576068681 M495.66435257930584,664.457576068681 L480.1850185042255,666.5744006136541 M480.1850185042255,666.5744006136541 L464.4752425275406,667.9927637870129 M464.4752425275406,667.9927637870129 L448.6265923953015,668.7040832311116 M448.6265923953015,668.7040832311116 L432.73154929553925,668.7040832311116 M432.73154929553925,668.7040832311116 L416.8828991633001,667.9927637870129 M416.8828991633001,667.9927637870129 L401.1731231866152,666.5744006136541 M401.1731231866152,666.5744006136541 L385.69378911153484,664.457576068681 M385.69378911153484,664.457576068681 L370.53504430031194,661.6549886291145 M370.53504430031194,661.6549886291145 L355.7849338622579,658.1834979065985 M355.7849338622579,658.1834979065985 L341.52893865607524,654.0639394697628 M341.52893865607524,654.0639394697628 L327.8493752945443,649.3210016471609 M327.8493752945443,649.3210016471609 L314.82500303903896,643.9829809433988 M314.82500303903896,643.9829809433988 L302.5303148775182,638.0817270497998 M302.5303148775182,638.0817270497998 L291.0353974259583,631.6522943065601 M291.0353974259583,631.6522943065601 L280.405265895801,624.7327368030237 M280.405265895801,624.7327368030237 L270.6996677871211,617.3639026562995 M270.6996677871211,617.3639026562995 L261.97260893154316,609.589132346 M261.97260893154316,609.589132346 L254.272169625718,601.453930313151 M254.272169625718,601.453930313151 L247.6402504006887,593.0057454279461 M247.6402504006887,593.0057454279461 L242.1123481171206,584.2936113156557 M242.1123481171206,584.2936113156557 L237.71740625009608,575.3678687632031 M237.71740625009608,575.3678687632031 L234.47767498938487,566.2798556524643 M234.47767498938487,566.2798556524643 L232.4087002394689,557.0815988212024 M259.12840158181245,429.2720015756594 L260.5070565232344,430.31125450386554 M260.5070565232344,430.31125450386554 L261.4162266726855,431.5154027834498 M261.4162266726855,431.5154027834498 L261.80292082920056,432.81456422903807 M261.80292082920056,432.81456422903807 L261.644514526996,434.1332588389547 M261.644514526996,434.1332588389547 L260.9500037598159,435.3948460494612 M260.9500037598159,435.3948460494612 L259.7595988084802,436.5259389039444 M259.7595988084802,436.5259389039444 L258.14237719753027,437.46071170336563 M258.14237719753027,437.46071170336563 L256.19235251674843,438.1447115174425 M256.19235251674843,438.1447115174425 L254.0229286578989,438.5380959055202 M254.0229286578989,438.5380959055202 L251.76035212376797,438.61793494530593 M251.76035212376797,438.61793494530593 L249.5362897620231,438.3795854559081 M249.5362897620231,438.3795854559081 L247.4802070099649,437.83692195593756 M247.4802070099649,437.83692195593756 L245.71169873872458,437.02158053642745 M245.71169873872458,437.02158053642745 L244.33360804216457,435.9810445623476 M244.33360804216457,435.9810445623476 L243.42595692299412,434.77590717194175 M243.42595692299412,434.77590717194175 L243.0413886193313,433.4762771353011 M243.0413886193313,433.4762771353011 L243.20204055673548,432.15774180842254 M243.20204055673548,432.15774180842254 L243.8984023147427,430.8969052613569 M243.8984023147427,430.8969052613569 L245.08983956895716,429.76698248031664 M245.08983956895716,429.76698248031664 L246.70703830732054,428.83353112678384 M246.70703830732054,428.83353112678384 L248.65599018003726,428.15070138465126 M248.65599018003726,428.15070138465126 L250.82353706147353,427.7580676581784 M250.82353706147353,427.7580676581784 L253.08386244591176,427.6783878957013 M253.08386244591176,427.6783878957013 L255.30581517577556,427.916268809456 M255.30581517577556,427.916268809456 L257.36041313868867,428.45794319331156 M257.36041313868867,428.45794319331156 L259.12840158181245,429.2720015756594 M447.2516301932841,320.6107431778622 L448.63431295122575,321.6293226902241 M448.63431295122575,321.6293226902241 L449.55501672472536,322.8095205549479 M449.55501672472536,322.8095205549479 L449.96010799469803,324.08283013984135 M449.96010799469803,324.08283013984135 L449.8258673699124,325.37529002831025 M449.8258673699124,325.37529002831025 L449.1599079110275,326.61177437903433 M449.1599079110275,326.61177437903433 L448.0007764024761,327.7203606489359 M448.0007764024761,327.7203606489359 L446.4157487593134,328.63652496255094 M446.4157487593134,328.63652496255094 L444.49694110689836,329.3069133747106 M444.49694110689836,329.3069133747106 L442.3559554197433,329.69246831734574 M442.3559554197433,329.69246831734574 L440.1173749251868,329.7707204136457 M440.1173749251868,329.7707204136457 L437.9114857611115,329.53710876418654 M437.9114857611115,329.53710876418654 L435.86666421124414,329.00524873159674 M435.86666421124414,329.00524873159674 L434.10187358635903,328.20613217410494 M434.10187358635903,328.20613217410494 L432.71972207322455,327.1863077198797 M432.71972207322455,327.1863077198797 L431.80049033231325,326.00515011452023 M431.80049033231325,326.00515011452023 L431.39747465776344,324.7313858551409 M431.39747465776344,324.7313858551409 L431.53391894658415,323.43908051878867 M431.53391894658415,323.43908051878867 L432.2017053060539,322.20332454086844 M432.2017053060539,322.20332454086844 L433.3618684303657,321.09587360294347 M433.3618684303657,321.09587360294347 L434.9468960737966,320.1809914897873 M434.9468960737966,320.1809914897873 L436.86467211075586,319.5117384097041 M436.86467211075586,319.5117384097041 L439.00383089713586,319.12691183997197 M439.00383089713586,319.12691183997197 L441.24020772713664,319.04881429591757 M441.24020772713664,319.04881429591757 L443.4440212953876,319.2819712710021 M443.4440212953876,319.2819712710021 L445.48737081273134,319.8128715626761 M445.48737081273134,319.8128715626761 L447.2516301932841,320.6107431778622 M447.3856919473404,540.1495400887334 L448.7965850441891,541.2100981989082 M448.7965850441891,541.2100981989082 L449.73609099686877,542.4389342035212 M449.73609099686877,542.4389342035212 L450.14946312357586,543.7647391759443 M450.14946312357586,543.7647391759443 L450.01251351063524,545.1104796757237 M450.01251351063524,545.1104796757237 L449.33297557322015,546.3979364029447 M449.33297557322015,546.3979364029447 L448.1502095986955,547.5522313664794 M448.1502095986955,547.5522313664794 L446.5328344889814,548.506181009955 M446.5328344889814,548.506181009955 L444.5748707962431,549.2042141255245 M444.5748707962431,549.2042141255245 L442.390194997939,549.6056763403038 M442.390194997939,549.6056763403038 L440.1059175896285,549.6871517351879 M440.1059175896285,549.6871517351879 L437.8549817199485,549.4439085544833 M437.8549817199485,549.4439085544833 L435.7684290413167,548.8901125032854 M435.7684290413167,548.8901125032854 L433.9676206324855,548.0580444339213 M433.9676206324855,548.0580444339213 L432.5572806877482,546.9961636086739 M432.5572806877482,546.9961636086739 L431.6193074435245,545.7663079117974 M431.6193074435245,545.7663079117974 L431.20809649295927,544.4400198587398 M431.20809649295927,544.4400198587398 L431.34734061132696,543.094443568042 M431.34734061132696,543.094443568042 L432.02878074453844,541.8077607096545 M432.02878074453844,541.8077607096545 L433.212620859614,540.6546719950965 M433.212620859614,540.6546719950965 L434.8299959696188,539.70208465353 M434.8299959696188,539.70208465353 L436.78688552213646,539.0052577859897 M436.78688552213646,539.0052577859897 L438.96965912443795,538.6045694547857 M438.96965912443795,538.6045694547857 L441.25164202675694,538.5232582583103 M441.25164202675694,538.5232582583103 L443.50041671985997,538.7660183692126 M443.50041671985997,538.7660183692126 L445.58543669010584,539.318794724953 M445.58543669010584,539.318794724953 L447.3856919473404,540.1495400887334 M232.47019908338424,492.8727550373636 L232.70484486959302,516.9361155328027 M644.3086646158956,311.97082585501505 L644.0829714666941,335.83707646713117 M645.216818656638,335.83707646713117 L645.4437699013934,311.97082585501505 M649.8730002308371,581.2132925847444 L650.1104079058971,557.0815940590236 M231.48514146000372,581.2132925847444 L231.24773378494356,557.0815940590236 M648.9494414513717,557.0815988212024 L648.7133498273347,581.2132973519603 M232.4087002394689,557.0815988212024 L232.6447918635059,581.2132973519603 M244.68563950335314,473.85913099373363 L244.5315105678486,457.0528365563554 M273.3398435055203,469.37541609898915 L273.208302282457,452.57250507837045 M244.5315105678486,457.0528365563554 L273.208302282457,452.57250507837045 M224.0028700388259,461.6181066791206 L223.83266741507668,444.82105616875356 M223.83266741507668,444.82105616875356 L244.5315105678486,457.0528365563554 M281.2405338029462,452.67444072635726 L281.1153950794908,435.88415774915677 M273.208302282457,452.57250507837045 L281.1153950794908,435.88415774915677 M231.9734066530238,444.9408490344374 L231.80971593601018,428.15642722961275 M231.80971593601018,428.15642722961275 L223.83266741507668,444.82105616875356 M260.55694595347893,440.48085193247664 L260.4157316124498,423.6998142066188 M281.1153950794908,435.88415774915677 L260.4157316124498,423.6998142066188 M260.4157316124498,423.6998142066188 L231.80971593601018,428.15642722961275 M433.09623168390857,364.66937364618036 L433.09032823952396,347.9462968643612 M461.3873467015244,360.2748841513564 L461.4034620912957,343.555192504637 M433.09032823952396,347.9462968643612 L461.4034620912957,343.555192504637 M468.92424147960463,343.90593539909463 L468.94618882680766,327.19887744020605 M461.4034620912957,343.555192504637 L468.94618882680766,327.19887744020605 M448.2389568911057,331.9544461271862 L448.2448246365165,315.2566367875306 M468.94618882680766,327.19887744020605 L448.2448246365165,315.2566367875306 M420.0167011650115,336.32592135135394 L420.0006571730245,319.62472677544247 M448.2448246365165,315.2566367875306 L420.0006571730245,319.62472677544247 M412.4109471443605,352.671855886097 L412.38896409833603,335.95802752127486 M420.0006571730245,319.62472677544247 L412.38896409833603,335.95802752127486 M412.38896409833603,335.95802752127486 L433.09032823952396,347.9462968643612 M432.9414487118474,585.2776691078221 L432.93530170622677,568.388227640162 M461.8098687661468,580.7019847447145 L461.8266487531513,563.8159227301837 M432.93530170622677,568.388227640162 L461.8266487531513,563.8159227301837 M411.8345896164022,572.7856488377328 L411.8117006477818,555.9054406923507 M411.8117006477818,555.9054406923507 L432.93530170622677,568.388227640162 M469.4996538787059,563.6587783378188 L469.5225049201319,546.7853304088109 M461.8266487531513,563.8159227301837 L469.5225049201319,546.7853304088109 M419.5960693461387,555.7668926395924 L419.5793652136548,538.8992998492331 M419.5793652136548,538.8992998492331 L411.8117006477818,555.9054406923507 M448.39279473019565,551.215658553167 L448.39890380845327,534.3514464855269 M469.5225049201319,546.7853304088109 L448.39890380845327,534.3514464855269 M448.39890380845327,534.3514464855269 L419.5793652136548,538.8992998492331 M259.1894737190608,436.4761010605703 L257.42207539687115,435.66177728174057 M257.42207539687115,435.66177728174057 L255.36816542621168,435.1199262803581 M255.36816542621168,435.1199262803581 L253.14695866937507,434.88196779777445 M253.14695866937507,434.88196779777445 L250.88739399610407,434.9616735428265 M250.88739399610407,434.9616735428265 L248.7205784898713,435.35443529651207 M248.7205784898713,435.35443529651207 L246.7722862574109,436.03748766818137 M246.7722862574109,436.03748766818137 L245.15563715625592,436.9712433171261 M245.15563715625592,436.9712433171261 L243.96460758698777,438.10153436905705 M243.96460758698777,438.10153436905705 L243.268487815342,439.3627817618815 M243.268487815342,439.3627817618815 L243.1078979942754,440.68174663050434 M243.1078979942754,440.68174663050434 L243.49234481134354,441.98179994476493 M243.49234481134354,441.98179994476493 L244.39969776837083,443.1873297439744 M244.39969776837083,443.1873297439744 L245.77733087541043,444.22820445812056 M245.77733087541043,444.22820445812056 L247.54524868338743,445.0438112601661 M247.54524868338743,445.0438112601661 L249.6006424498203,445.58665136691206 M249.6006424498203,445.58665136691206 L251.8239574216732,445.82507842004554 M251.8239574216732,445.82507842004554 L254.0857717288889,445.7452133994161 M254.0857717288889,445.7452133994161 L256.25446294512903,445.3517009922854 M256.25446294512903,445.3517009922854 L258.2038272569407,444.6674785613902 M258.2038272569407,444.6674785613902 L259.8204992075993,443.73240148092077 M259.8204992075993,443.73240148092077 L261.0104971618249,442.6009403682651 M261.0104971618249,442.6009403682651 L261.70476718382406,441.3389423201593 M261.70476718382406,441.3389423201593 L261.8631128798737,440.01981817022966 M261.8631128798737,440.01981817022966 L261.4765416431881,438.7202334419279 M261.4765416431881,438.7202334419279 L260.5676706838078,437.51569274278904 M260.5676706838078,437.51569274278904 L259.1894737190608,436.4761010605703 M259.1894737190608,436.4761010605703 L259.12840158181245,429.2720015756594 M447.2494413283871,327.7790545973635 L445.48576961926017,326.9809174966098 M445.48576961926017,326.9809174966098 L443.44310059527936,326.44984053016367 M443.44310059527936,326.44984053016367 L441.2400208783636,326.21660595880854 M441.2400208783636,326.21660595880854 L439.0043887268023,326.29472949464616 M439.0043887268023,326.29472949464616 L436.8659422934745,326.679684133683 M436.8659422934745,326.679684133683 L434.94880498852746,327.3491599176569 M434.94880498852746,327.3491599176569 L433.36430539415636,328.26434642655204 M433.36430539415636,328.26434642655204 L432.20452894771904,329.37216576158994 M432.20452894771904,329.37216576158994 L431.5369653641326,330.6083327280859 M431.5369653641326,330.6083327280859 L431.40056689839554,331.90106775912255 M431.40056689839554,331.90106775912255 L431.8034486547281,333.1752554470694 M431.8034486547281,333.1752554470694 L432.7223744005363,334.35680560666697 M432.7223744005363,334.35680560666697 L434.10406554096573,335.3769689270627 M434.10406554096573,335.3769689270627 L435.8682681405178,336.176350969155 M435.8682681405178,336.176350969155 L437.9124082163754,336.70838767577146 M437.9124082163754,336.70838767577146 L440.11756214638325,336.9420769211481 M440.11756214638325,336.9420769211481 L442.35539649445053,336.8637988331849 M442.35539649445053,336.8637988331849 L444.4956686114984,336.47811582181095 M444.4956686114984,336.47811582181095 L446.41383684465393,335.8075047066424 M446.41383684465393,335.8075047066424 L447.99833643875724,334.89103599828417 M447.99833643875724,334.89103599828417 L449.1570819566819,333.7820813321514 M449.1570819566819,333.7820813321514 L449.8228198567382,332.5451859934172 M449.8228198567382,332.5451859934172 L449.95701612648924,331.25229641038374 M449.95701612648924,331.25229641038374 L449.5520601574654,329.9785633965699 M449.5520601574654,329.9785633965699 L448.6316633597158,328.7979729768627 M448.6316633597158,328.7979729768627 L447.2494413283871,327.7790545973635 M447.2494413283871,327.7790545973635 L447.2516301932841,320.6107431778622 M447.38341289608695,547.3894041952103 L445.5837695296121,546.5583936959525 M445.5837695296121,546.5583936959525 L443.4994580877761,546.0054408959093 M443.4994580877761,546.0054408959093 L441.2514474837977,545.7626032908411 M441.2514474837977,545.7626032908411 L438.9702399368978,545.8439404439779 M438.9702399368978,545.8439404439779 L436.78820803102025,546.244756679403 M436.78820803102025,546.244756679403 L434.8319835276355,546.941805958246 M434.8319835276355,546.941805958246 L433.215158233394,547.8946972954183 M433.215158233394,547.8946972954183 L432.03172073915243,549.0481539156821 M432.03172073915243,549.0481539156821 L431.3505125799842,550.335247207306 M431.3505125799842,550.335247207306 L431.2113161865486,551.6812526077728 M431.2113161865486,551.6812526077728 L431.6223877160376,553.0079635098264 M431.6223877160376,553.0079635098264 L432.5600423631712,554.2382112137045 M432.5600423631712,554.2382112137045 L433.96990296642946,555.3004304299433 M433.96990296642946,555.3004304299433 L435.77009910848477,556.132763606785 M435.77009910848477,556.132763606785 L437.85594221681566,556.6867360807003 M437.85594221681566,556.6867360807003 L440.10611252826527,556.9300567453446 M440.10611252826527,556.9300567453446 L442.38961302141735,556.8485553972752 M442.38961302141735,556.8485553972752 L444.5735458302393,556.4469652946566 M444.5735458302393,556.4469652946566 L446.5308437436753,555.7487097933191 M446.5308437436753,555.7487097933191 L448.14766903762643,554.7944561830758 M448.14766903762643,554.7944561830758 L449.330033121487,553.63979333937 M449.330033121487,553.63979333937 L450.00934037791677,552.3519261952939 M450.00934037791677,552.3519261952939 L450.1462438256639,551.0057565892217 M450.1462438256639,551.0057565892217 L449.7330125891381,549.6795287575766 M449.7330125891381,549.6795287575766 L448.79382627543976,548.4503007243763 M448.79382627543976,548.4503007243763 L447.38341289608695,547.3894041952103 M447.38341289608695,547.3894041952103 L447.3856919473404,540.1495400887334" stroke="black"  stroke-width="4"  fill="red"/></svg>