<svg viewBox="0 0 800 800" xmlns="http://www.w3.org/2000/svg"><path d="M130.51099147811982,516.2312759260461 L130.20986145024085,471.1138367223361 M130.2257187126105,515.9583418462873 L129.92427391164688,470.8412040505886 M130.51099147811982,516.2312759260461 L130.4158160272308,516.140323777281 M130.4158160272308,516.140323777281 L130.32072009282945,516.049348636073 M130.32072009282945,516.049348636073 L130.2257187126105,515.9583418462873 M130.20986145024085,471.1138367223361 L130.11458097918353,471.0229850134216 M130.11458097918353,471.0229850134216 L130.01938011477608,470.9321103383639 M130.01938011477608,470.9321103383639 L129.92427391164688,470.8412040505886 M130.51099147811982,516.2312759260461 L135.9706639167818,514.7802139016953 M135.9706639167818,514.7802139016953 L141.85935826613132,514.124764678494 M141.85935826613132,514.124764678494 L147.83706618980747,514.3026912054692 M147.83706618980747,514.3026912054692 L153.55866560147635,515.3037493493991 M153.55866560147635,515.3037493493991 L158.69373887793162,517.070249132616 M158.69373887793162,517.070249132616 L162.94556297085757,519.5003539740137 M162.94556297085757,519.5003539740137 L166.0681380233949,522.4539010111998 M166.0681380233949,522.4539010111998 L167.88050653159067,525.7603864936875 M167.88050653159067,525.7603864936875 L168.2772341186328,529.2287637805636 M168.2772341186328,529.2287637805636 L167.23466240944862,532.6584289401309 M167.23466240944862,532.6584289401309 L164.812400446119,535.8508434193352 M164.812400446119,535.8508434193352 L161.15012701073388,538.620996386723 M161.15012701073388,538.620996386723 L156.45951135920484,540.8082282192665 M156.45951135920484,540.8082282192665 L156.18705239786684,495.6636816053282 M156.18705239786684,495.6636816053282 L160.8829454423081,493.4788595139278 M160.8829454423081,493.4788595139278 L164.54935225184235,490.7117592641471 M164.54935225184235,490.7117592641471 L166.97436487645794,487.5228638814735 M166.97436487645794,487.5228638814735 L168.0181464541658,484.096980594415 M168.0181464541658,484.096980594415 L167.62101949686823,480.6324291816017 M167.62101949686823,480.6324291816017 L165.8066670728895,477.32959222487585 M165.8066670728895,477.32959222487585 L162.68063964417811,474.37930528058405 M162.68063964417811,474.37930528058405 L158.42409515498903,471.95188348079296 M158.42409515498903,471.95188348079296 L153.28330656555266,470.1873344701035 M153.28330656555266,470.1873344701035 L147.55532679483642,469.18738196202736 M147.55532679483642,469.18738196202736 L141.57094126049515,469.00965196057996 M141.57094126049515,469.00965196057996 L135.67565678075522,469.66437723638387 M135.67565678075522,469.66437723638387 L130.20986145024085,471.1138367223361 M129.92427391164688,470.8412040505886 L124.4272757742799,472.29013771738556 M124.4272757742799,472.29013771738556 L118.50005202437751,472.9364193394158 M118.50005202437751,472.9364193394158 L112.48932988471859,472.74216273744776 M112.48932988471859,472.74216273744776 L106.74671596574916,471.71876231068325 M106.74671596574916,471.71876231068325 L101.60807107290447,469.9261961775044 M101.60807107290447,469.9261961775044 L97.37374225572489,467.4694917732166 M97.37374225572489,467.4694917732166 L94.2909065328571,464.4924851570395 M94.2909065328571,464.4924851570395 L92.53921604802287,461.1693541336031 M92.53921604802287,461.1693541336031 L92.22031750054168,457.69434163046066 M92.22031750054168,457.69434163046066 L93.35210417687398,454.2703674979665 M93.35210417687398,454.2703674979665 L95.86784290122341,451.09717616377395 M95.86784290122341,451.09717616377395 L99.6201524103335,448.3597016668792 M99.6201524103335,448.3597016668792 L104.38983474639917,446.2173475682498 M104.71938484376938,491.3072287742885 L104.38983474639917,446.2173475682498 M104.71938484376938,491.3072287742885 L99.95505606762799,493.4519569370117 M99.95505606762799,493.4519569370117 L96.20697658277754,496.19246424861865 M96.20697658277754,496.19246424861865 L93.69409706479314,499.36917008946904 M93.69409706479314,499.36917008946904 L92.56363075744844,502.79693524152873 M92.56363075744844,502.79693524152873 L92.88223226300136,506.27579395287864 M92.88223226300136,506.27579395287864 L94.63202402004231,509.60260183451453 M94.63202402004231,509.60260183451453 L97.7114688123147,512.5829013082047 M97.7114688123147,512.5829013082047 L101.94111170926521,515.0423223298587 M101.94111170926521,515.0423223298587 L107.07404922084021,516.8368702583219 M107.07404922084021,516.8368702583219 L112.81026825925767,517.8614019602232 M112.81026825925767,517.8614019602232 L118.81428269618578,518.0558732819823 M118.81428269618578,518.0558732819823 L124.73487910687243,517.4088772822665 M124.73487910687243,517.4088772822665 L130.2257187126105,515.9583418462873 M194.06160789500652,559.708576965071 L189.59684040678664,562.0791973234705 M189.59684040678664,562.0791973234705 L184.28975962721773,563.7617696578573 M184.28975962721773,563.7617696578573 L178.4505788562561,564.6577106809697 M178.4505788562561,564.6577106809697 L172.42082777376214,564.7145084990184 M172.42082777376214,564.7145084990184 L166.55325013290533,563.9288336352702 M166.55325013290533,563.9288336352702 L161.19106373676632,562.3467330199896 M161.19106373676632,562.3467330199896 L156.64773148240454,560.0609179336361 M156.64773148240454,560.0609179336361 L153.18859260752893,557.2052562656454 M153.18859260752893,557.2052562656454 L151.01536067057074,553.9468546197 M151.01536067057074,553.9468546197 L150.25436198225546,550.4762319571034 M150.25436198225546,550.4762319571034 L150.94930608444128,546.9961213747698 M150.94930608444128,546.9961213747698 L153.05892173987644,543.7095926689624 M153.05892173987644,543.7095926689624 L156.45951135920484,540.8082282192665 M104.71938484376938,491.3072287742885 L110.32392201274604,490.0701725497763 M110.32392201274604,490.0701725497763 L115.26672370646594,488.0963362244372 M115.26672370646594,488.0963362244372 L119.2615448982155,485.5003306570622 M119.2615448982155,485.5003306570622 L122.07737596594029,482.4327375708363 M122.07737596594029,482.4327375708363 L123.55170477298833,479.0713727460543 M123.55170477298833,479.0713727460543 L123.5998625601336,475.6108978804203 M123.5998625601336,475.6108978804203 L122.2198013202505,472.2515035310496 M122.2198013202505,472.2515035310496 L119.49197185666549,469.1873619758368 M119.49197185666549,469.1873619758368 L115.57463457104086,466.5953974954717 M115.57463457104086,466.5953974954717 L110.69446437778527,464.62515823151045 M110.69446437778527,464.62515823151045 L105.13360304311061,463.39023161422773 M105.13360304311061,463.39023161422773 L99.21321614429581,462.9617955908743 M99.21321614429581,462.9617955908743 L93.27512715952696,463.3645289898681 M194.48055230405694,559.9172638386539 L194.3408279378413,559.8477503394428 M194.3408279378413,559.8477503394428 L194.2011760258934,559.7781916704657 M194.2011760258934,559.7781916704657 L194.06160789500652,559.708576965071 M93.27512715952696,463.3645289898681 L93.23356710492664,463.2612971590888 M93.23356710492664,463.2612971590888 L93.19212681253191,463.1580491558092 M93.19212681253191,463.1580491558092 L93.15078388837429,463.05478928642094 M232.44314734057633,578.6564440711525 L235.74556537935203,575.7283667939824 M235.74556537935203,575.7283667939824 L237.75373142492745,572.4305091349361 M237.75373142492745,572.4305091349361 L238.35201799721034,568.9539276325233 M238.35201799721034,568.9539276325233 L237.50654166606174,565.4998291206454 M237.50654166606174,565.4998291206454 L235.2669006235953,562.2679161561847 M235.2669006235953,562.2679161561847 L231.7631734167248,559.4448893780956 M231.7631734167248,559.4448893780956 L227.19830782334822,557.1936530906479 M227.19830782334822,557.1936530906479 L221.8362706771369,555.6440464067173 M221.8362706771369,555.6440464067173 L215.98683699826037,554.8853845158865 M215.98683699826037,554.8853845158865 L209.98777927078734,554.961370799479 M209.98777927078734,554.961370799479 L204.18542092399494,555.8676405250881 M204.18542092399494,555.8676405250881 L198.91483805569248,557.5519663633636 M198.91483805569248,557.5519663633636 L194.48055230405694,559.9172638386539 M93.15078388837429,463.05478928642094 L87.18412897752569,463.4514333173304 M87.18412897752569,463.4514333173304 L81.23997392564104,463.0093580328477 M81.23997392564104,463.0093580328477 L75.66602901286512,461.754470647427 M75.66602901286512,461.754470647427 L70.78826794945974,459.7603091791768 M70.78826794945974,459.7603091791768 L66.89166413142902,457.1436853225608 M66.89166413142902,457.1436853225608 L64.2035917252129,454.05778605216335 M64.2035917252129,454.05778605216335 L62.88057255059829,450.68309740387434 M62.88057255059829,450.68309740387434 L62.99916939806076,447.2168078260944 M62.99916939806076,447.2168078260944 L64.55176733079156,443.8612869860556 M64.55176733079156,443.8612869860556 L67.4470690302876,440.8122208365976 M67.4470690302876,440.8122208365976 L71.51565588056962,438.2472621722281 M71.51565588056962,438.2472621722281 L76.51995192522435,436.315741165172 M76.51995192522435,436.315741165172 L82.16809262952927,435.1300217023955 M278.4521961403379,589.8800494694061 L275.46618553590736,592.9415290920746 M275.46618553590736,592.9415290920746 L271.3076463102148,595.4999362892806 M271.3076463102148,595.4999362892806 L266.2192800749526,597.4054930341433 M266.2192800749526,597.4054930341433 L260.4984569341458,598.5465560211521 M260.4984569341458,598.5465560211521 L254.47978055213107,598.8562470701747 M254.47978055213107,598.8562470701747 L248.51529539020848,598.3164211198084 M248.51529539020848,598.3164211198084 L242.95392181224196,596.9587177417508 M242.95392181224196,596.9587177417508 L238.12084399093598,594.862699644747 M238.12084399093598,594.862699644747 L234.29843502394854,592.1511439983054 M234.29843502394854,592.1511439983054 L231.7097084198002,588.9827675703555 M231.7097084198002,588.9827675703555 L230.50531441808172,585.5428789552249 M230.50531441808172,585.5428789552249 L230.75489475901733,582.0324691737526 M230.75489475901733,582.0324691737526 L232.44314734057633,578.6564440711525 M82.16809262952927,435.1300217023955 L88.12755720326561,434.95466367712675 M88.12755720326561,434.95466367712675 L93.8545154793145,433.96264566610995 M93.8545154793145,433.96264566610995 L99.01698356820083,432.21157642204173 M99.01698356820083,432.21157642204173 L103.31598675454154,429.8031350858427 M103.31598675454154,429.8031350858427 L106.50279549784636,426.87706914553394 M106.50279549784636,426.87706914553394 L108.39331705490565,423.6030243635441 M108.39331705490565,423.6030243635441 L108.87878802496448,420.17065557929425 M108.87878802496448,420.17065557929425 L107.93180045192719,416.7786100831082 M107.93180045192719,416.7786100831082 L105.60782634077106,413.622974949856 M105.60782634077106,413.622974949856 L102.04181636798955,410.88602418347926 M102.04181636798955,410.88602418347926 L97.44023929399788,408.72570208149006 M97.44023929399788,408.72570208149006 L92.06920795191911,407.2665936497581 M92.06920795191911,407.2665936497581 L86.23898077327772,406.5927919344127 M278.96359510875135,590.0032484300133 L278.7930978332087,589.9622342639325 M278.7930978332087,589.9622342639325 L278.6226315100294,589.9211679435198 M278.6226315100294,589.9211679435198 L278.4521961403379,589.8800494694061 M86.23898077327772,406.5927919344127 L86.2547006805662,406.4874997540509 M86.2547006805662,406.4874997540509 L86.27053916908858,406.38220867034016 M86.27053916908858,406.38220867034016 L86.28648126109465,406.2769272468613 M325.19459992319867,600.9999315763378 L326.771517379899,597.6183857241303 M326.771517379899,597.6183857241303 L326.9171355919407,594.118216756294 M326.9171355919407,594.118216756294 L325.6237520609385,590.7019490128715 M325.6237520609385,590.7019490128715 L322.9668670669887,587.5670436186243 M322.9668670669887,587.5670436186243 L319.1005958987748,584.8945371647768 M319.1005958987748,584.8945371647768 L314.2487683426944,582.8386180527928 M314.2487683426944,582.8386180527928 L308.6918325761046,581.5178324180569 M308.6918325761046,581.5178324180569 L302.7507981046714,581.0082921661943 M302.7507981046714,581.0082921661943 L296.76863456981897,581.339371943028 M296.76863456981897,581.339371943028 L291.0907526849686,582.4919707991945 M291.0907526849686,582.4919707991945 L286.0450722657602,584.3996874895955 M286.0450722657602,584.3996874895955 L281.92317270233605,586.9525401847943 M281.92317270233605,586.9525401847943 L278.96359510875135,590.0032484300133 M86.28648126109465,406.2769272468613 L80.4330957499788,405.5923678286186 M80.4330957499788,405.5923678286186 L75.0485794954891,404.11648524973145 M75.0485794954891,404.11648524973145 L70.44771490161907,401.93578132437904 M70.44771490161907,401.93578132437904 L66.89924377891441,399.1779456265802 M66.89924377891441,399.1779456265802 L64.61009669824983,396.00439275299135 M64.61009669824983,396.00439275299135 L63.71345497426813,392.60068979005996 M63.71345497426813,392.60068979005996 L64.26094426799688,389.16568930587016 M64.26094426799688,389.16568930587016 L66.21989622059402,385.8998336120271 M66.21989622059402,385.8998336120271 L69.47540735049989,382.9935458780236 M69.47540735049989,382.9935458780236 L73.83707978026791,380.61611363310476 M73.83707978026791,380.61611363310476 L79.05034510291557,378.90592753898216 M79.05034510291557,378.90592753898216 L84.81121717878523,377.9624593612969 M84.81121717878523,377.9624593612969 L90.78400717236889,377.84057396741713 M375.0243925907055,603.3891622804368 L373.8218417569297,606.8393509475975 M373.8218417569297,606.8393509475975 L371.23352053673705,610.0224134430099 M371.23352053673705,610.0224134430099 L367.4101012276105,612.7522019035986 M367.4101012276105,612.7522019035986 L362.5746002527236,614.8689289430057 M362.5746002527236,614.8689289430057 L357.00954250446887,616.2486211860388 M357.00954250446887,616.2486211860388 L351.04032017917734,616.8103964883264 M351.04032017917734,616.8103964883264 L345.0161401304826,616.5213437313673 M345.0161401304826,616.5213437313673 L339.28937645475224,615.3984065402403 M339.28937645475224,615.3984065402403 L334.1949667923127,613.5073838292956 M334.1949667923127,613.5073838292956 L330.0306228664861,610.9590870606571 M330.0306228664861,610.9590870606571 L327.03944095118965,607.9026986580667 M327.03944095118965,607.9026986580667 L325.3956516495794,604.5170231089161 M325.3956516495794,604.5170231089161 L325.19459992319867,600.9999315763378 M90.78400717236889,377.84057396741713 L96.51332114140632,378.7322850609478 M96.51332114140632,378.7322850609478 L102.45863760465147,378.8081443881913 M102.45863760465147,378.8081443881913 L108.27527533002956,378.06374414329065 M108.27527533002956,378.06374414329065 L113.62608090428915,376.5423335002825 M113.62608090428915,376.5423335002825 L118.2010455934975,374.3322368671125 M118.2010455934975,374.3322368671125 L121.73538388079294,371.5617355646186 M121.73538388079294,371.5617355646186 L124.02482775654454,368.39148658117654 M124.02482775654454,368.39148658117654 L124.93743675317108,365.0052061615005 M124.93743675317108,365.0052061615005 L124.42106086190586,361.5988924237024 M124.42106086190586,361.5988924237024 L122.50631495734768,358.3695536087149 M122.50631495734768,358.3695536087149 L119.30449959866456,355.5037654727232 M119.30449959866456,355.5037654727232 L115.00114081709421,353.1669308204756 M115.00114081709421,353.1669308204756 L109.8451781590561,351.49385436503445 M375.5771708685339,603.4142213960941 L375.39290621536526,603.405935291461 M375.39290621536526,603.405935291461 L375.20864179642876,603.3975793423887 M375.20864179642876,603.3975793423887 L375.0243925907055,603.3891622804368 M109.8451781590561,351.49385436503445 L109.91619983474766,351.3967624010848 M109.91619983474766,351.3967624010848 L109.98730939759906,351.2996884063495 M109.98730939759906,351.2996884063495 L110.05850684652114,351.20263238032317 M425.4529385465301,605.5456326191786 L425.1425532240548,602.0464329030339 M425.1425532240548,602.0464329030339 L423.40744229451025,598.6921362621725 M423.40744229451025,598.6921362621725 L420.3485745775107,595.676603085346 M420.3485745775107,595.676603085346 L416.1432887242819,593.173897916511 M416.1432887242819,593.173897916511 L411.03488934936325,591.3283864034704 M411.03488934936325,591.3283864034704 L405.31858295772344,590.2464810398856 M405.31858295772344,590.2464810398856 L399.32448915401795,589.9905042423263 M399.32448915401795,589.9905042423263 L393.39869402595843,590.5752185590297 M393.39869402595843,590.5752185590297 L387.8833091855585,591.9669286184594 M387.8833091855585,591.9669286184594 L383.0969405122786,594.0854209605326 M383.0969405122786,594.0854209605326 L379.3162987244534,596.8085593872324 M379.3162987244534,596.8085593872324 L376.760266221241,599.979190485955 M376.760266221241,599.979190485955 L375.5771708685339,603.4142213960941 M110.05850684652114,351.20263238032317 L104.88687581723582,349.5154266342391 M104.88687581723582,349.5154266342391 L100.58095397238048,347.16090472277654 M100.58095397238048,347.16090472277654 L97.39214290164972,344.2769161948737 M97.39214290164972,344.2769161948737 L95.50631635053873,341.0322065524067 M95.50631635053873,341.0322065524067 L95.03299977224691,337.61647722851137 M95.03299977224691,337.61647722851137 L95.99910332237118,334.22918211004117 M95.99910332237118,334.22918211004117 L98.34755458954822,331.0679545552199 M98.34755458954822,331.0679545552199 L101.9407611686575,328.3170525706741 M101.9407611686575,328.3170525706741 L106.56874643569836,326.1366850506768 M106.56874643569836,326.1366850506768 L111.96147585008782,324.65374047773463 M111.96147585008782,324.65374047773463 L117.80456404075812,323.9544622098032 M117.80456404075812,323.9544622098032 L123.75754892899522,324.07951170783673 M123.75754892899522,324.07951170783673 L129.47360803783397,325.0216183159895 M474.10051377553884,598.8468649995518 L474.80347530197434,602.342361772024 M474.80347530197434,602.342361772024 L474.0468176174048,605.8334534746978 M474.0468176174048,605.8334534746978 L471.8739905702798,609.1162279767625 M471.8739905702798,609.1162279767625 L468.41129087515986,611.9987274421246 M468.41129087515986,611.9987274421246 L463.8606167205328,614.312286332502 M463.8606167205328,614.312286332502 L458.4877596806188,615.9214161960425 M458.4877596806188,615.9214161960425 L452.6067995510495,616.7318158535676 M452.6067995510495,616.7318158535676 L446.5617019396029,616.6959966437611 M446.5617019396029,616.6959966437611 L440.7061444482591,615.8160393276562 M440.7061444482591,615.8160393276562 L435.38260744811646,614.1435391101705 M435.38260744811646,614.1435391101705 L430.90228016899096,611.776494597101 M430.90228016899096,611.776494597101 L427.5268028697031,608.8535137060903 M427.5268028697031,608.8535137060903 L425.4529385465301,605.5456326191786 M129.47360803783397,325.0216183159895 L134.4194408960546,326.88245455988044 M134.4194408960546,326.88245455988044 L140.00521092592498,328.0075843996468 M140.00521092592498,328.0075843996468 L145.90720928473903,328.33165585223145 M145.90720928473903,328.33165585223145 L151.78330038517905,327.83585506041163 M151.78330038517905,327.83585506041163 L157.29286767391653,326.5489777236369 M157.29286767391653,326.5489777236369 L162.11662635755678,324.54575141211336 M162.11662635755678,324.54575141211336 L165.97531330553414,321.94246566192726 M165.97531330553414,321.94246566192726 L168.6457845335866,318.89012376930623 M168.6457845335866,318.89012376930623 L169.97396885059186,315.5656344892627 M169.97396885059186,315.5656344892627 L169.88367896510678,312.16151057148204 M169.88367896510678,312.16151057148204 L168.38082058007143,308.8746619580204 M168.38082058007143,308.8746619580204 L165.55296250816244,305.8950496634268 M165.55296250816244,305.8950496634268 L161.56407756862916,303.3947059881458 M474.63917393623063,598.7712109154936 L474.4596487033223,598.7964943371514 M474.4596487033223,598.7964943371514 L474.2800928025931,598.8217080015914 M474.2800928025931,598.8217080015914 L474.10051377553884,598.8468649995518 M161.56407756862916,303.3947059881458 L161.6830921271158,303.31511569825943 M161.6830921271158,303.31511569825943 L161.80218279594297,303.2355663017281 M161.80218279594297,303.2355663017281 L161.92136795886663,303.15606415493835 M523.1487876310823,591.825273034603 L520.9835198624842,588.5567910424078 M520.9835198624842,588.5567910424078 L517.5430115890142,585.6820024119502 M517.5430115890142,585.6820024119502 L513.0266093970092,583.3668460108595 M513.0266093970092,583.3668460108595 L507.6954795001638,581.7448310231194 M507.6954795001638,581.7448310231194 L501.8576392480443,580.9094564684784 M501.8576392480443,580.9094564684784 L495.8501913502849,580.9088596848137 M495.8501913502849,580.9088596848137 L490.01994743815897,581.7430623077549 M490.01994743815897,581.7430623077549 L484.7035883661063,583.3640138733938 M484.7035883661063,583.3640138733938 L480.20826176514197,585.6782631418895 M480.20826176514197,585.6782631418895 L476.7939584012019,588.5523706594846 M476.7939584012019,588.5523706594846 L474.6584448730944,591.8204238818442 M474.6584448730944,591.8204238818442 L473.92582444642665,595.293648587486 M473.92582444642665,595.293648587486 L474.63917393623063,598.7712109154936 M161.92136795886663,303.15606415493835 L157.9254902762623,300.63974487792433 M157.9254902762623,300.63974487792433 L155.10529008242355,297.6434774624797 M155.10529008242355,297.6434774624797 L153.625015636616,294.3425212964163 M153.625015636616,294.3425212964163 L153.57045710004687,290.9297876818887 M153.57045710004687,290.9297876818887 L154.94408692787928,287.60452193036 M154.94408692787928,287.60452193036 L157.66508536832404,284.56068097453306 M157.66508536832404,284.56068097453306 L161.57417344780748,281.9756285896447 M161.57417344780748,281.9756285896447 L166.44303488484448,279.9998736523268 M166.44303488484448,279.9998736523268 L171.98767800982733,278.74838319490755 M171.98767800982733,278.74838319490755 L177.88492365243465,278.29393547212436 M177.88492365243465,278.29393547212436 L183.79116733993428,278.6629471808757 M183.79116733993428,278.6629471808757 L189.36230851903787,279.83397005747565 M189.36230851903787,279.83397005747565 L194.27366323939393,281.73891227775545 M565.7329057033587,576.7207888167532 L568.2671648647374,579.9139892946198 M568.2671648647374,579.9139892946198 L569.4145231681769,583.3651292997479 M569.4145231681769,583.3651292997479 L569.1073124649688,586.8728793120671 M569.1073124649688,586.8728793120671 L567.3627499744769,590.2324241674434 M567.3627499744769,590.2324241674434 L564.2820646755683,593.247390892383 M564.2820646755683,593.247390892383 L560.0447659449364,595.7413805136558 M560.0447659449364,595.7413805136558 L554.8982043100275,597.5683789077208 M554.8982043100275,597.5683789077208 L549.143180598476,598.6213357087126 M549.143180598476,598.6213357087126 L543.1162704680885,598.8385433283149 M543.1162704680885,598.8385433283149 L537.1700485397428,598.2072681266229 M537.1700485397428,598.2072681266229 L531.6523472370948,596.7645031175222 M531.6523472370948,596.7645031175222 L526.8857774301234,594.5948166862515 M526.8857774301234,594.5948166862515 L523.1487876310823,591.825273034603 M194.27366323939393,281.73891227775545 L197.96558854670516,284.3800463471948 M197.96558854670516,284.3800463471948 L202.6566562073752,286.43607697155306 M202.6566562073752,286.43607697155306 L208.07529893442918,287.78767767642586 M208.07529893442918,287.78767767642586 L213.9075291991855,288.3563416976457 M213.9075291991855,288.3563416976457 L219.81529872085585,288.1090531883262 M219.81529872085585,288.1090531883262 L225.4561138722128,287.0601736187024 M225.4561138722128,287.0601736187024 L230.50306189727488,285.2706198742888 M230.50306189727488,285.2706198742888 L234.66383569528293,282.8442746240857 M234.66383569528293,282.8442746240857 L237.6977489084189,279.92192878619335 M237.6977489084189,279.92192878619335 L239.42960942352067,276.6729935920177 M239.42960942352067,276.6729935920177 L239.7597977790578,273.28565292140013 M239.7597977790578,273.28565292140013 L238.66992110030043,269.9559198445029 M238.66992110030043,269.9559198445029 L236.22368102715197,266.8762794693447 M566.2034476118056,576.5522092869835 L566.0466477212744,576.608450776262 M566.0466477212744,576.608450776262 L565.8898054312178,576.6646468559669 M565.8898054312178,576.6646468559669 L565.7329057033587,576.7207888167532 M236.22368102715197,266.8762794693447 L236.37899489877367,266.8217337736483 M236.37899489877367,266.8217337736483 L236.53434810239307,266.76723271488805 M236.53434810239307,266.76723271488805 L236.68975531062964,266.71278473811884 M608.489352751134,561.25041768193 L604.6918746193699,558.5360128426888 M604.6918746193699,558.5360128426888 L599.895620157188,556.4239377980173 M599.895620157188,556.4239377980173 L594.3778617551466,555.0359683238321 M594.3778617551466,555.0359683238321 L588.4573484711098,554.452115049604 M588.4573484711098,554.452115049604 L582.4758906903919,554.7060005653561 M582.4758906903919,554.7060005653561 L576.7788360288916,555.7830013003138 M576.7788360288916,555.7830013003138 L571.6951982818116,557.6210567451493 M571.6951982818116,557.6210567451493 L567.5187744118741,560.1142153519136 M567.5187744118741,560.1142153519136 L564.4911866186158,563.1186427592338 M564.4911866186158,563.1186427592338 L562.7879491692265,566.460899646963 M562.7879491692265,566.460899646963 L562.5082136519263,569.9478572240415 M562.5082136519263,569.9478572240415 L563.6688709354612,573.3778233542077 M563.6688709354612,573.3778233542077 L566.2034476118056,576.5522092869835 M236.68975531062964,266.71278473811884 L234.24553878440082,263.61691269480605 M234.24553878440082,263.61691269480605 L233.17199069785636,260.2731258915438 M233.17199069785636,260.2731258915438 L233.53112555930778,256.8767900937075 M233.53112555930778,256.8767900937075 L235.30126046222804,253.62612382860203 M235.30126046222804,253.62612382860203 L238.37847832109077,250.7106757288127 M238.37847832109077,250.7106757288127 L242.58279198146698,248.3002991633494 M242.58279198146698,248.3002991633494 L247.6687676289561,246.53529363025586 M247.6687676289561,246.53529363025586 L253.3398059267993,245.51834985040338 M253.3398059267993,245.51834985040338 L259.26541929777125,245.30859700589943 M259.26541929777125,245.30859700589943 L265.10037947725124,245.9182307546498 M265.10037947725124,245.9182307546498 L270.50470025293095,247.31181548302516 M270.50470025293095,247.31181548302516 L275.1633482056157,249.4082783955909 M275.1633482056157,249.4082783955909 L278.8045198995539,252.0856391139715 M640.7747404485401,539.2804407017308 L644.8791626910383,541.8568312876722 M644.8791626910383,541.8568312876722 L647.807477625699,544.9263199323992 M647.807477625699,544.9263199323992 L649.3883471973202,548.3100747491675 M649.3883471973202,548.3100747491675 L649.5288536262874,551.8107625611743 M649.5288536262874,551.8107625611743 L648.2200640543067,555.2240303975958 M648.2200640543067,555.2240303975958 L645.537713816328,558.350419508522 M645.537713816328,558.350419508522 L641.637970136153,561.0070757216498 M641.637970136153,561.0070757216498 L636.7483880193283,563.0384857630785 M636.7483880193283,563.0384857630785 L631.1546421529495,564.3256458207755 M631.1546421529495,564.3256458207755 L625.1838328420799,564.7931260173965 M625.1838328420799,564.7931260173965 L619.1852517733785,564.4135286839421 M619.1852517733785,564.4135286839421 L613.509799684592,563.2090993227787 M613.509799684592,563.2090993227787 L608.489352751134,561.25041768193 M278.8045198995539,252.0856391139715 L280.8959091371135,255.24718633820734 M280.8959091371135,255.24718633820734 L284.2478628895268,258.0295821674078 M284.2478628895268,258.0295821674078 L288.66665839935916,260.2714631401856 M288.66665839935916,260.2714631401856 L293.8965996722842,261.8427425491101 M293.8965996722842,261.8427425491101 L299.6347121265746,262.6521806377657 M299.6347121265746,262.6521806377657 L305.54840081085166,262.65275893970386 M305.54840081085166,262.65275893970386 L311.2948534319202,261.8444562109088 M311.2948534319202,261.8444562109088 L316.54097490655454,260.27420625805627 M316.54097490655454,260.27420625805627 L320.9828685845161,258.03320227435825 M320.9828685845161,258.03320227435825 L324.3634585565315,255.25146346040447 M324.3634585565315,255.25146346040447 L326.48742705106895,252.09032812921578 M326.48742705106895,252.09032812921578 L327.23239992358566,248.73293446624268 M327.23239992358566,248.73293446624268 L326.5559663975866,245.37361755870975 M641.1304687512061,539.0361691662898 L641.0119787762258,539.1176357423891 M641.0119787762258,539.1176357423891 L640.8934089263707,539.1990617570228 M640.8934089263707,539.1990617570228 L640.7747404485401,539.2804407017308 M326.5559663975866,245.37361755870975 L326.7325631115385,245.34920214421504 M326.7325631115385,245.34920214421504 L326.9091885997918,245.32485421153 M326.9091885997918,245.32485421153 L327.0858355475158,245.30056111849973 M673.0062762073312,516.9473688361265 L667.9635353615797,515.0512444878013 M667.9635353615797,515.0512444878013 L662.2961238638538,513.9051196854987 M662.2961238638538,513.9051196854987 L656.3313597294436,513.5750487740728 M656.3313597294436,513.5750487740728 L650.4136106961621,514.0800368613122 M650.4136106961621,514.0800368613122 L644.8845392463413,515.390993452143 M644.8845392463413,515.390993452143 L640.0635405223175,517.43237295205 M640.0635405223175,517.43237295205 L636.2292769307069,520.0864604332628 M636.2292769307069,520.0864604332628 L633.6037177025746,523.2001245534914 M633.6037177025746,523.2001245534914 L632.3391978327145,526.5935636798745 M632.3391978327145,526.5935636798745 L632.5095106916185,530.0706252250948 M632.5095106916185,530.0706252250948 L634.1055445767672,533.4301439996137 M634.1055445767672,533.4301439996137 L637.0355717812524,536.4775417833737 M637.0355717812524,536.4775417833737 L641.1304687512061,539.0361691662898 M327.0858355475158,245.30056111849973 L326.4200175476284,241.92625558079644 M326.4200175476284,241.92625558079644 L327.18798335647466,238.5584879741994 M327.18798335647466,238.5584879741994 L329.3442257977087,235.39376037726004 M329.3442257977087,235.39376037726004 L332.7623496076214,232.6165762143344 M332.7623496076214,232.6165762143344 L337.2425684981014,230.388669139298 M337.2425684981014,230.388669139298 L342.5234028531343,228.83970142261182 M342.5234028531343,228.83970142261182 L348.29698634437557,228.05978401555004 M348.29698634437557,228.05978401555004 L354.2269127557819,228.09425333777492 M354.2269127557819,228.09425333777492 L359.9676721928916,228.94112366794005 M359.9676721928916,228.94112366794005 L365.18474985467327,230.55113525197456 M365.18474985467327,230.55113525197456 L369.57396477377415,232.83063427640093 M369.57396477377415,232.83063427640093 L372.879136076379,235.6469533488472 M372.879136076379,235.6469533488472 L374.90705965938315,238.83605511373997 M691.8438013260645,490.33444614489486 L697.1010190541892,492.04530389636784 M697.1010190541892,492.04530389636784 L701.5080634852641,494.4337934009488 M701.5080634852641,494.4337934009488 L704.8077150784356,497.3609143565635 M704.8077150784356,497.3609143565635 L706.8070331289937,500.65616223760316 M706.8070331289937,500.65616223760316 L707.3887262229543,504.12739630809733 M707.3887262229543,504.12739630809733 L706.5181370795344,507.5720689557714 M706.5181370795344,507.5720689557714 L704.2453860833045,510.7889442448388 M704.2453860833045,510.7889442448388 L700.702632703792,513.5899219435723 M700.702632703792,513.5899219435723 L696.0964897572449,515.8110719015195 M696.0964897572449,515.8110719015195 L690.6959898107182,517.3223063268726 M690.6959898107182,517.3223063268726 L684.8168742142791,518.0350797970934 M684.8168742142791,518.0350797970934 L678.803031322949,517.9076096942238 M678.803031322949,517.9076096942238 L673.0062762073312,516.9473688361265 M374.90705965938315,238.83605511373997 L375.2034639380624,242.21183563747374 M375.2034639380624,242.21183563747374 L376.9004822019642,245.4499782678933 M376.9004822019642,245.4499782678933 L379.90053767813083,248.36289009743388 M379.90053767813083,248.36289009743388 L384.03038317698366,250.78172251663503 M384.03038317698366,250.78172251663503 L389.0511102948268,252.5661396354042 M389.0511102948268,252.5661396354042 L394.67195215911386,253.6125269825352 M394.67195215911386,253.6125269825352 L400.56715980060454,253.86013248567986 M400.56715980060454,253.86013248567986 L406.39495906686506,253.29455835149219 M406.39495906686506,253.29455835149219 L411.81756215509546,251.9486634883059 M411.81756215509546,251.9486634883059 L416.5207572311347,249.90061096476137 M416.5207572311347,249.90061096476137 L420.23226457077055,247.26925519932777 M420.23226457077055,247.26925519932777 L422.7375008562984,244.20724323085295 M422.7375008562984,244.20724323085295 L423.89198780612776,240.8920169100091 M692.0501352239266,490.0391998291812 L691.9814476008353,490.1376315831826 M691.9814476008353,490.1376315831826 L691.9126696352607,490.2360470219167 M691.9126696352607,490.2360470219167 L691.8438013260645,490.33444614489486 M423.89198780612776,240.8920169100091 L424.0729998321444,240.90001135691418 M424.0729998321444,240.90001135691418 L424.2540120841644,240.908073202872 M424.2540120841644,240.908073202872 L424.4350098320822,240.91619402395375 M710.4281181638071,463.399033130997 L704.6475534763408,462.49982802630717 M704.6475534763408,462.49982802630717 L698.6753217009109,462.4233385180597 M698.6753217009109,462.4233385180597 L692.8562383682436,463.1739724801769 M692.8562383682436,463.1739724801769 L687.5263082002009,464.70846875458477 M687.5263082002009,464.70846875458477 L682.9934701881198,466.93840040122586 M682.9934701881198,466.93840040122586 L679.5198334564104,469.73514914649957 M679.5198334564104,469.73514914649957 L677.3065944096363,472.93732183266115 M677.3065944096363,472.93732183266115 L676.4823020516221,476.35993038304167 M676.4823020516221,476.35993038304167 L677.0953617465386,479.8051124275793 M677.0953617465386,479.8051124275793 L679.1109631624272,483.0734558101146 M679.1109631624272,483.0734558101146 L682.4130857419993,485.9756162966407 M682.4130857419993,485.9756162966407 L686.8109772928633,488.34333506880074 M686.8109772928633,488.34333506880074 L692.0501352239266,490.0391998291812 M424.4350098320822,240.91619402395375 L425.60761462474363,237.58854775405632 M425.60761462474363,237.58854775405632 L428.14041981248766,234.52051597018914 M428.14041981248766,234.52051597018914 L431.88507891237583,231.89088682732284 M431.88507891237583,231.89088682732284 L436.6228820641329,229.85278358600874 M436.6228820641329,229.85278358600874 L442.0774098300969,228.52478911642922 M442.0774098300969,228.52478911642922 L447.93072390442927,227.9841656200762 M447.93072390442927,227.9841656200762 L453.84175502686367,228.26232768721383 M453.84175502686367,228.26232768721383 L459.4661583169829,229.34310376231068 M459.4661583169829,229.34310376231068 L464.4761230366173,231.16365937844887 M464.4761230366173,231.16365937844887 L468.579478946121,233.61805308791975 M468.579478946121,233.61805308791975 L471.53662317969355,236.5634168524457 M471.53662317969355,236.5634168524457 L473.1745804748267,239.82814683850964 M473.1745804748267,239.82814683850964 L473.3971195810439,243.22187184254057 M714.0580224258492,434.8018859352496 L719.9413501828901,435.48842485790794 M719.9413501828901,435.48842485790794 L725.3813764371862,436.9688917846918 M725.3813764371862,436.9688917846918 L730.0609931229615,439.1571614877235 M730.0609931229615,439.1571614877235 L733.7071523197365,441.92591911734087 M733.7071523197365,441.92591911734087 L736.1068187512406,445.1139129289763 M736.1068187512406,445.1139129289763 L737.1193581785035,448.5353332996903 M737.1193581785035,448.5353332996903 L736.6850083845993,451.9905555461011 M736.6850083845993,451.9905555461011 L734.8284094433116,455.27782070922586 M734.8284094433116,455.27782070922586 L731.6573385967131,458.20495220335846 M731.6573385967131,458.20495220335846 L727.3566525317763,460.6006908709244 M727.3566525317763,460.6006908709244 L722.1774261561754,462.32474475933344 M722.1774261561754,462.32474475933344 L716.422389860297,463.27611400987297 M716.422389860297,463.27611400987297 L710.4281181638071,463.399033130997 M473.3971195810439,243.22187184254057 L471.8714600087402,246.4869924312905 M471.8714600087402,246.4869924312905 L471.7527626009979,249.8689122569964 M471.7527626009979,249.8689122569964 L473.04859553470817,253.1719848017285 M473.04859553470817,253.1719848017285 L475.6846073169382,256.2049486798453 M475.6846073169382,256.2049486798453 L479.5087525462069,258.7920105790457 M479.5087525462069,258.7920105790457 L484.2998779680174,260.78311401699034 M484.2998779680174,260.78311401699034 L489.7806071113127,262.0626803472952 M489.7806071113127,262.0626803472952 L495.63332198554434,262.5564066983601 M495.63332198554434,262.5564066983601 L501.51879760242764,262.23559661899344 M501.51879760242764,262.23559661899344 L507.0958186961891,261.11891121490777 M507.0958186961891,261.11891121490777 L512.0411854610247,259.2711866632043 M512.0411854610247,259.2711866632043 L516.0685447533053,256.7996863428687 M516.0685447533053,256.7996863428687 L518.9449187188977,253.84780478389195 M714.095767420793,434.4851392486079 L714.0832998874696,434.59072323884544 M714.0832998874696,434.59072323884544 L714.0707133128578,434.69630833031323 M714.0707133128578,434.69630833031323 L714.0580224258492,434.8018859352496 M518.9449187188977,253.84780478389195 L519.1130819403159,253.88747869725506 M519.1130819403159,253.88747869725506 L519.2812166652936,253.9272033776647 M519.2812166652936,253.9272033776647 L519.4493228949345,253.96697882572306 M717.2758879320886,405.94972602170805 L711.330401912772,406.12458198428345 M711.330401912772,406.12458198428345 L705.6415321722129,407.11387377166056 M705.6415321722129,407.11387377166056 L700.5378710259324,408.86060375977047 M700.5378710259324,408.86060375977047 L696.3143021326891,411.2640637522125 M696.3143021326891,411.2640637522125 L693.2151591315303,414.18561656707465 M693.2151591315303,414.18561656707465 L691.4200953504105,417.4566144135073 M691.4200953504105,417.4566144135073 L691.0335037040134,420.88806231363736 M691.0335037040134,420.88806231363736 L692.0784803304853,424.28148624347074 M692.0784803304853,424.28148624347074 L694.4952295408686,427.4404484252586 M694.4952295408686,427.4404484252586 L698.1444067855575,430.18188225073584 M698.1444067855575,430.18188225073584 L702.8151125610786,432.3467916528638 M702.8151125610786,432.3467916528638 L708.2369352998708,433.80952224338836 M708.2369352998708,433.80952224338836 L714.095767420793,434.4851392486079 M519.4493228949345,253.96697882572306 L522.3497379347848,251.0063637037827 M522.3497379347848,251.0063637037827 L526.4071458161034,248.5335976957891 M526.4071458161034,248.5335976957891 L531.3846636305213,246.6926270955303 M531.3846636305213,246.6926270955303 L536.9919890593633,245.5905650751823 M536.9919890593633,245.5905650751823 L542.9022851620668,245.291501263658 M542.9022851620668,245.291501263658 L548.7712551481825,245.81281441108104 M548.7712551481825,245.81281441108104 L554.256930881189,247.12419839762308 M554.256930881189,247.12419839762308 L559.0395609184786,249.14938823082733 M559.0395609184786,249.14938823082733 L562.8401353870561,251.77053978174445 M562.8401353870561,251.77053978174445 L565.4366419027053,254.83503258378533 M565.4366419027053,254.83503258378533 L566.6770732928096,258.1642738094802 M566.6770732928096,258.1642738094802 L566.4883606466813,261.56406535732856 M566.4883606466813,261.56406535732856 L564.880812763661,264.83589836921874 M705.4669005641961,378.18193022124746 L711.3964184686588,377.7886153537071 M711.3964184686588,377.7886153537071 L717.3292704260659,378.22698211584026 M717.3292704260659,378.22698211584026 L722.9198028263443,379.4715502739621 M722.9198028263443,379.4715502739621 L727.8421399622141,381.4499460393359 M727.8421399622141,381.4499460393359 L731.8091962374533,384.0470619545738 M731.8091962374533,384.0470619545738 L734.5892855788461,387.1116754963365 M734.5892855788461,387.1116754963365 L736.0196731399296,390.4652203825229 M736.0196731399296,390.4652203825229 L736.0162375193563,393.9121154921388 M736.0162375193563,393.9121154921388 L734.5784269390351,397.2511065569899 M734.5784269390351,397.2511065569899 L731.7895741778793,400.2870695731211 M731.7895741778793,400.2870695731211 L727.8120904870143,402.842420347561 M727.8120904870143,402.842420347561 L722.8780930794892,404.76756018541346 M722.8780930794892,404.76756018541346 L717.2758879320886,405.94972602170805 M564.880812763661,264.83589836921874 L561.6753096306409,267.6753499209459 M561.6753096306409,267.6753499209459 L559.7487925773987,270.8753285848403 M559.7487925773987,270.8753285848403 L559.2132794246286,274.2509530010034 M559.2132794246286,274.2509530010034 L560.1004211061572,277.6070125428964 M560.1004211061572,277.6070125428964 L562.3595732808785,280.7492396321557 M562.3595732808785,280.7492396321557 L565.8605469218908,283.495547700046 M565.8605469218908,283.495547700046 L570.4009948885071,285.6866881593233 M570.4009948885071,285.6866881593233 L575.7181250146543,287.1954879298261 M575.7181250146543,287.1954879298261 L581.5038983565414,287.93433776740585 M581.5038983565414,287.93433776740585 L587.4229361728535,287.86033089697037 M587.4229361728535,287.86033089697037 L593.1321207900651,286.97775371751607 M593.1321207900651,286.97775371751607 L598.3005347103765,285.33787552778296 M598.3005347103765,285.33787552778296 L602.6288067285307,283.03590518200843 M705.3337667485873,377.87478763728825 L705.3782551672202,377.9771518042836 M705.3782551672202,377.9771518042836 L705.4226257166451,378.07953408872737 M705.4226257166451,378.07953408872737 L705.4669005641961,378.18193022124746 M602.6288067285307,283.03590518200843 L602.768006763481,283.10354242188384 M602.768006763481,283.10354242188384 L602.9071381088868,283.17122453013945 M602.9071381088868,283.17122453013945 L603.0461898073131,283.2389620822875 M693.131368673661,350.2432286219847 L687.6007013312267,351.46330302295837 M687.6007013312267,351.46330302295837 L682.7464461138495,353.4106570890441 M682.7464461138495,353.4106570890441 L678.8492245343791,355.97298255470923 M678.8492245343791,355.97298255470923 L676.1345761500106,359.0024620501961 M676.1345761500106,359.0024620501961 L674.7599703761464,362.3241607796047 M674.7599703761464,362.3241607796047 L674.8055682085767,365.7460935138882 M674.8055682085767,365.7460935138882 L676.2694183073627,369.0702996611333 M676.2694183073627,369.0702996611333 L679.0674841191717,372.10426170250844 M679.0674841191717,372.10426170250844 L683.0382543303458,374.6721256754137 M683.0382543303458,374.6721256754137 L687.9521392860486,376.62492178362766 M687.9521392860486,376.62492178362766 L693.5245485361556,377.8493013670102 M693.5245485361556,377.8493013670102 L699.4325875114298,378.274147834789 M699.4325875114298,378.274147834789 L705.3337667485873,377.87478763728825 M603.0461898073131,283.2389620822875 L607.4024110514933,280.93278268517287 M607.4024110514933,280.93278268517287 L612.6013777100225,279.2965946491106 M612.6013777100225,279.2965946491106 L618.3399665910549,278.42557142179083 M618.3399665910549,278.42557142179083 L624.2837756906563,278.37035838460895 M624.2837756906563,278.37035838460895 L630.0865213810209,279.1341654948035 M630.0865213810209,279.1341654948035 L635.4100696470368,280.6725863892507 M635.4100696470368,280.6725863892507 L639.9440684278998,282.89613140228994 M639.9440684278998,282.89613140228994 L643.4239387038642,285.6753922594043 M643.4239387038642,285.6753922594043 L645.6462828760414,288.84850980043916 M645.6462828760414,288.84850980043916 L646.4808526808545,292.23051338218477 M646.4808526808545,292.23051338218477 L645.8782508641555,295.6240639223259 M645.8782508641555,295.6240639223259 L643.8729483347015,298.8309653540045 M643.8729483347015,298.8309653540045 L640.5814506233619,301.66374578839697 M667.1556540490164,325.9921526524092 L672.5564588444856,324.5688033946281 M672.5564588444856,324.5688033946281 L678.4032541794968,323.9340638807484 M678.4032541794968,323.9340638807484 L684.3553543564446,324.1248427467906 M684.3553543564446,324.1248427467906 L690.066010847223,325.13004148293476 M690.066010847223,325.13004148293476 L695.2024246955123,326.8912123043185 M695.2024246955123,326.8912123043185 L699.4650596568556,329.3058959459587 M699.4650596568556,329.3058959459587 L702.605094763079,332.23354283351534 M702.605094763079,332.23354283351534 L704.4388731443682,335.5035967747127 M704.4388731443682,335.5035967747127 L704.8587694547643,338.9253895213477 M704.8587694547643,338.9253895213477 L703.8395601202062,342.2992108576794 M703.8395601202062,342.2992108576794 L701.4400541775715,345.427950020416 M701.4400541775715,345.427950020416 L697.7998882250452,348.12864450889316 M697.7998882250452,348.12864450889316 L693.131368673661,350.2432286219847 M640.5814506233619,301.66374578839697 L635.9963849059925,303.8003364560119 M635.9963849059925,303.8003364560119 L632.439297430388,306.5076629463747 M632.439297430388,306.5076629463747 L630.1161520708217,309.6294929329832 M630.1161520708217,309.6294929329832 L629.1618657707345,312.98550004136297 M629.1618657707345,312.98550004136297 L629.632285187048,316.3816782504553 M629.632285187048,316.3816782504553 L631.5008977356372,319.6214812849791 M631.5008977356372,319.6214812849791 L634.660167845585,322.5172371115884 M634.660167845585,322.5172371115884 L638.9276480467759,324.9010487420431 M638.9276480467759,324.9010487420431 L644.0564025578667,326.63460908963606 M644.0564025578667,326.63460908963606 L649.7493860761692,327.6172670668037 M649.7493860761692,327.6172670668037 L655.676648689353,327.791943344988 M655.676648689353,327.791943344988 L661.4945700498392,327.14849754577926 M661.4945700498392,327.14849754577926 L666.8659131877214,325.72430306521505 M666.8659131877214,325.72430306521505 L666.9625748149476,325.8135592745766 M666.9625748149476,325.8135592745766 L667.0591599927316,325.9028396381896 M667.0591599927316,325.9028396381896 L667.1556540490164,325.9921526524092 M442.73003261779235,395.8308581306523 L433.853888622031,391.6090134685023 M433.853888622031,391.6090134685023 L423.75759770800073,388.43231457779007 M423.75759770800073,388.43231457779007 L412.8049182934749,386.41454608929445 M412.8049182934749,386.41454608929445 L401.38998883113356,385.62792996135215 M401.38998883113356,385.62792996135215 L389.9233146349849,386.10060527870627 M389.9233146349849,386.10060527870627 L378.8172403162092,387.81566682199224 M378.8172403162092,387.81566682199224 L368.4713320144022,390.71173500192714 M368.4713320144022,390.71173500192714 L359.2582068315227,394.6850958189988 M359.2582068315227,394.6850958189988 L351.5102569788998,399.5933182381193 M351.5102569788998,399.5933182381193 L345.50770238600177,405.2602196954667 M345.50770238600177,405.2602196954667 L341.4684596742092,411.4820743664636 M341.4684596742092,411.4820743664636 L339.5401141197929,418.0348106485304 M339.5401141197929,418.0348106485304 L339.79436403524807,424.6820056071502 M339.79436403524807,424.6820056071502 L342.22414375575147,431.18335176192716 M342.22414375575147,431.18335176192716 L346.7435671671479,437.30336842243867 M346.7435671671479,437.30336842243867 L353.1907576437704,442.8199818264146 M353.1907576437704,442.8199818264146 L361.3334999587767,447.53266402114764 M361.3334999587767,447.53266402114764 L370.87749875848107,451.26985770708893 M370.87749875848107,451.26985770708893 L381.47701371144746,453.8953533661355 M381.47701371144746,453.8953533661355 L392.74749222121187,455.31336545120973 M392.74749222121187,455.31336545120973 L404.279654473214,455.4721302605825 M404.279654473214,455.4721302605825 L415.6545597290355,454.3658527101105 M415.6545597290355,454.3658527101105 L426.45908686036535,452.0349196603178 M426.45908686036535,452.0349196603178 L436.3011210023576,448.56438249538144 M436.3011210023576,448.56438249538144 L444.8239764982089,444.08077069177693 M444.8239764982089,444.08077069177693 L451.7194106606285,438.7473527098836 M451.7194106606285,438.7473527098836 L456.73881732448547,432.75807311448494 M456.73881732448547,432.75807311448494 L459.70209803521954,426.3303622049721 M459.70209803521954,426.3303622049721 L460.5039908212203,419.6971421384793 M460.5039908212203,419.6971421384793 L459.1176242965712,413.09832690574615 M459.1176242965712,413.09832690574615 L455.5951589432167,406.77211980206073 M455.5951589432167,406.77211980206073 L450.0656326812942,400.946455879919 M450.0656326812942,400.946455879919 L442.73003261779235,395.8308581306523 M92.93327414733437,418.30562456876703 L98.87798901386822,417.903338259844 M98.87798901386822,417.903338259844 L104.8049683123329,418.33129866024456 M104.8049683123329,418.33129866024456 L110.37200871230084,419.5648544518228 M110.37200871230084,419.5648544518228 L115.2575883546308,421.532907005806 M115.2575883546308,421.532907005806 L119.17925300062052,424.12199539126107 M119.17925300062052,424.12199539126107 L121.91007722362235,427.18273786634506 M121.91007722362235,427.18273786634506 L123.29162640205328,430.5384067940437 M123.29162640205328,430.5384067940437 L123.24336225688546,433.9950454401731 M123.24336225688546,433.9950454401731 L121.76733732519017,437.3526851763313 M121.76733732519017,437.3526851763313 L118.94831709082325,440.41687981693093 M118.94831709082325,440.41687981693093 L114.94899730956047,443.01001019628876 M114.94899730956047,443.01001019628876 L110.0006476585495,444.9816609082146 M110.0006476585495,444.9816609082146 L104.38983474639917,446.2173475682498 M92.93327414733437,418.30562456876703 L92.89166950826234,418.2025073379758 M92.89166950826234,418.2025073379758 L92.85018476563926,418.0993739538084 M92.85018476563926,418.0993739538084 L92.80879750045989,417.9962287178764 M81.81435239196912,390.10250466497973 L76.15990334860203,391.2869042406709 M76.15990334860203,391.2869042406709 L71.15000152606763,393.2162755001283 M71.15000152606763,393.2162755001283 L67.07683808679826,395.7783800457303 M67.07683808679826,395.7783800457303 L64.17825628856303,398.8240543332179 M64.17825628856303,398.8240543332179 L62.62386710408214,402.1758435831751 M62.62386710408214,402.1758435831751 L62.50507385442728,405.6382796863426 M62.50507385442728,405.6382796863426 L63.82950451923176,409.00921796061016 M63.82950451923176,409.00921796061016 L66.52051538653654,412.09168889055053 M66.52051538653654,412.09168889055053 L70.4214140276747,414.70540657689344 M70.4214140276747,414.70540657689344 L75.30457579377111,416.6973537217071 M75.30457579377111,416.6973537217071 L80.88471150219846,417.95084789996577 M80.88471150219846,417.95084789996577 L86.83548480518004,418.392432422679 M86.83548480518004,418.392432422679 L92.80879750045989,417.9962287178764 M85.89026478470083,361.5970877787592 L91.72696130930132,362.27013731888553 M91.72696130930132,362.27013731888553 L97.10393888750042,363.7276170963404 M97.10393888750042,363.7276170963404 L101.71059610061798,365.8855282799823 M101.71059610061798,365.8855282799823 L105.2805264816688,368.6194253468019 M105.2805264816688,368.6194253468019 L107.60703405623451,371.7715406627305 M107.60703405623451,371.7715406627305 L108.55502047073605,375.1598038675364 M108.55502047073605,375.1598038675364 L108.06895441845404,378.5883466843956 M108.06895441845404,378.5883466843956 L106.17627674583372,381.8587431842339 M106.17627674583372,381.8587431842339 L102.9858742791937,384.78154959300525 M102.9858742791937,384.78154959300525 L98.6820470235424,387.187308718302 M98.6820470235424,387.187308718302 L93.51380365827248,388.9364282475947 M93.51380365827248,388.9364282475947 L87.78045375723457,389.9273418531167 M87.78045375723457,389.9273418531167 L81.81435239196912,390.10250466497973 M85.89026478470083,361.5970877787592 L85.90600398385374,361.4919131421829 M85.90600398385374,361.4919131421829 L85.92186189585067,361.38673960225094 M85.92186189585067,361.38673960225094 L85.93782352614261,361.281575712984 M90.4408325994059,332.87701281783575 L84.46141070976103,332.99876176057404 M84.46141070976103,332.99876176057404 L78.69412737806636,333.9411737774029 M78.69412737806636,333.9411737774029 L73.47504434216546,335.6494456612556 M73.47504434216546,335.6494456612556 L69.10848655738289,338.02421738136775 M69.10848655738289,338.02421738136775 L65.84930751159237,340.92725360494643 M65.84930751159237,340.92725360494643 L63.888119918159305,344.18945661618034 M63.888119918159305,344.18945661618034 L63.33995900263477,347.6206165025168 M63.33995900263477,347.6206165025168 L64.23753390346724,351.0205151389467 M64.23753390346724,351.0205151389467 L66.52916604620418,354.19052207159757 M66.52916604620418,354.19052207159757 L70.0815301153566,356.94527722464363 M70.0815301153566,356.94527722464363 L74.68746876289015,359.12354586170443 M74.68746876289015,359.12354586170443 L80.07794364920358,360.59778055376455 M80.07794364920358,360.59778055376455 L85.93782352614261,361.281575712984 M109.52358211899707,306.5598267603122 L114.68523416670223,308.2310255016742 M114.68523416670223,308.2310255016742 L118.99332772595028,310.56523801052765 M118.99332772595028,310.56523801052765 L122.19864939413208,313.4278112874489 M122.19864939413208,313.4278112874489 L124.11546963744382,316.6535284908671 M124.11546963744382,316.6535284908671 L124.63236668359843,320.0560233860351 M124.63236668359843,320.0560233860351 L123.71869391164125,323.438508685741 M123.71869391164125,323.438508685741 L121.42666140454583,326.6052058044932 M121.42666140454583,326.6052058044932 L117.88835826921672,329.37260401308544 M117.88835826921672,329.37260401308544 L113.30828143507756,331.5802258368707 M113.30828143507756,331.5802258368707 L107.95151243832998,333.0999331551274 M107.95151243832998,333.0999331551274 L102.12840599960361,333.84350008494266 M102.12840599960361,333.84350008494266 L96.17649120025214,333.7677256752539 M96.17649120025214,333.7677256752539 L90.4408325994059,332.87701281783575 M109.52358211899707,306.5598267603122 L109.59468407547848,306.46284377329437 M109.59468407547848,306.46284377329437 L109.66587401550004,306.3658787363572 M109.66587401550004,306.3658787363572 L109.73715193797022,306.2689316489952 M129.17416512787617,280.1173417404312 L123.45179214608515,279.1762953444737 M123.45179214608515,279.1762953444737 L117.49221901594433,279.05138657988346 M117.49221901594433,279.05138657988346 L111.64265125763177,279.7498778867913 M111.64265125763177,279.7498778867913 L106.24392776778006,281.2311537459166 M106.24392776778006,281.2311537459166 L101.61078285604214,283.4090682012455 M101.61078285604214,283.4090682012455 L98.01355195610074,286.15687597524266 M98.01355195610074,286.15687597524266 L95.66244707498845,289.3145488122681 M95.66244707498845,289.3145488122681 L94.69521662471169,292.69803622400786 M94.69521662471169,292.69803622400786 L95.16900030053722,296.1099271539768 M95.16900030053722,296.1099271539768 L97.05686226152136,299.3509917710887 M97.05686226152136,299.3509917710887 L100.2491594944965,302.2317414693279 M100.2491594944965,302.2317414693279 L104.5598153935959,304.583619839778 M104.5598153935959,304.583619839778 L109.73715193797022,306.2689316489952 M161.30044546510345,258.514792112392 L165.29370945612416,261.0123165262426 M165.29370945612416,261.0123165262426 L168.12465726968765,263.98857005695356 M168.12465726968765,263.98857005695356 L169.62913649926261,267.2717147059075 M169.62913649926261,267.2717147059075 L169.71948319183625,270.6720037519236 M169.71948319183625,270.6720037519236 L168.3897868228333,273.9927490999969 M168.3897868228333,273.9927490999969 L165.7163207357617,277.04165461310316 M165.7163207357617,277.04165461310316 L161.85332844920038,279.64201034751716 M161.85332844920038,279.64201034751716 L157.0242028006895,281.64298252099525 M157.0242028006895,281.64298252099525 L151.50851788247704,282.9284120266518 M151.50851788247704,282.9284120266518 L145.62591357538426,283.42365505485856 M145.62591357538426,283.42365505485856 L139.71738473208677,283.0999481715767 M139.71738473208677,283.0999481715767 L134.12544627502268,281.9760841539498 M134.12544627502268,281.9760841539498 L129.17416512787617,280.1173417404312 M161.30044546510345,258.514792112392 L161.41959268554143,258.43529157577893 M161.41959268554143,258.43529157577893 L161.5388160989111,258.355831887101 M161.5388160989111,258.355831887101 L161.65813410921513,258.2764193955753 M194.04644981680065,236.88344511034018 L189.12969156180964,234.9806557985517 M189.12969156180964,234.9806557985517 L183.55241041327253,233.8109565746479 M183.55241041327253,233.8109565746479 L177.63964756001093,233.44236200538896 M177.63964756001093,233.44236200538896 L171.73588259815386,233.89629601193732 M171.73588259815386,233.89629601193732 L166.18509908907697,235.14637187829837 M166.18509908907697,235.14637187829837 L161.31083352528657,237.11989392040266 M161.31083352528657,237.11989392040266 L157.3973925215044,239.70202546132123 M157.3973925215044,239.70202546132123 L154.673346703646,242.74242813005782 M154.673346703646,242.74242813005782 L153.29815388030724,246.0639388633989 M153.29815388030724,246.0639388633989 L153.3527264479398,249.4728199504427 M153.3527264479398,249.4728199504427 L154.8345927084281,252.77005098808146 M154.8345927084281,252.77005098808146 L157.65787095678488,255.76293815245816 M157.65787095678488,255.76293815245816 L161.65813410921513,258.2764193955753 M236.04294406419447,222.0376201791194 L238.49185718088088,225.11377585306678 M238.49185718088088,225.11377585306678 L239.58290779142223,228.43974241368224 M239.58290779142223,228.43974241368224 L239.25232490114172,231.8232526531459 M239.25232490114172,231.8232526531459 L237.51852265492954,235.06851511017913 M237.51852265492954,235.06851511017913 L234.4812315714333,237.98755839207098 M234.4812315714333,237.98755839207098 L230.31583845095304,240.4111623314203 M230.31583845095304,240.4111623314203 L225.2632968533076,242.19869463315908 M225.2632968533076,242.19869463315908 L219.61623819620294,243.24638957373818 M219.61623819620294,243.24638957373818 L213.7019377097483,243.4933988072506 M213.7019377097483,243.4933988072506 L207.86326841366633,242.9253770179957 M207.86326841366633,242.9253770179957 L202.43865254037834,241.57530291265368 M202.43865254037834,241.57530291265368 L197.74242426288043,239.5215949087278 M197.74242426288043,239.5215949087278 L194.04644981680065,236.88344511034018 M236.04294406419447,222.0376201791194 L236.1984298763332,221.98313621282657 M236.1984298763332,221.98313621282657 L236.35395506255372,221.92869683328075 M236.35395506255372,221.92869683328075 L236.509534311597,221.87431047597852 M278.67088612576293,207.26373037139047 L275.02571633060506,204.5894043589993 M275.02571633060506,204.5894043589993 L270.36194515729557,202.49531827223416 M270.36194515729557,202.49531827223416 L264.9516747674265,201.10331376169248 M264.9516747674265,201.10331376169248 L259.1102848837531,200.49437135776063 M259.1102848837531,200.49437135776063 L253.1781356278304,200.70388633100083 M253.1781356278304,200.70388633100083 L247.50083526949098,201.71967690917262 M247.50083526949098,201.71967690917262 L242.40923567018606,203.48268121744266 M242.40923567018606,203.48268121744266 L238.20026377304748,205.89032536658044 M238.20026377304748,205.89032536658044 L235.11962532163318,208.8024693508126 M235.11962532163318,208.8024693508126 L233.34750790075074,212.04945269393966 M233.34750790075074,212.04945269393966 L232.98794561577867,215.44194176966943 M232.98794561577867,215.44194176966943 L234.06264789554794,218.78194260597047 M234.06264789554794,218.78194260597047 L236.509534311597,221.87431047597852 M326.47503321781664,200.55931817317068 L327.1521992066136,203.91482603555454 M327.1521992066136,203.91482603555454 L326.40639113481774,207.26841407247093 M326.40639113481774,207.26841407247093 L324.2800665898292,210.4259673691921 M324.2800665898292,210.4259673691921 L320.89573489050855,213.2045549689512 M320.89573489050855,213.2045549689512 L316.44892972378284,215.44302091275003 M316.44892972378284,215.44302091275003 L311.1970113514485,217.01149281408604 M311.1970113514485,217.01149281408604 L305.444212669475,217.81888037768505 M305.444212669475,217.81888037768505 L299.52399730021057,217.81830273047808 M299.52399730021057,217.81830273047808 L293.7795566587151,217.00978109258176 M293.7795566587151,217.00978109258176 L288.5438531778039,215.44028090124905 M288.5438531778039,215.44028090124905 L284.12019568584117,213.2009389623843 M284.12019568584117,213.2009389623843 L280.7645616085716,210.42169509286634 M280.7645616085716,210.42169509286634 L278.67088612576293,207.26373037139047 M326.47503321781664,200.55931817317068 L326.6518247645392,200.53493044723862 M326.6518247645392,200.53493044723862 L326.8286451165467,200.51061012665303 M326.8286451165467,200.51061012665303 L327.005486950995,200.48634458359538 M374.87945256570606,194.02917205930916 L372.8492982591501,190.8436897735586 M372.8492982591501,190.8436897735586 L369.54048879994485,188.03056801838073 M369.54048879994485,188.03056801838073 L365.1464412559148,185.75365750679862 M365.1464412559148,185.75365750679862 L359.92361848669583,184.14547453488885 M359.92361848669583,184.14547453488885 L354.1765359988673,183.2995661737732 M354.1765359988673,183.2995661737732 L348.24007635532047,183.2651360072877 M348.24007635532047,183.2651360072877 L342.46012933151155,184.04416749202005 M342.46012933151155,184.04416749202005 L337.1734712245146,185.59137590627944 M337.1734712245146,185.59137590627944 L332.6883074229866,187.8167530082711 M332.6883074229866,187.8167530082711 L329.26640603265434,190.59078421183924 M329.26640603265434,190.59078421183924 L327.1077743988733,193.75191990091864 M327.1077743988733,193.75191990091864 L326.33894840765475,197.11586636109223 M326.33894840765475,197.11586636109223 L327.005486950995,200.48634458359538 M423.9183818048817,196.082801028705 L422.76262623702956,199.39426665777557 M422.76262623702956,199.39426665777557 L420.25463098942123,202.45280624546552 M420.25463098942123,202.45280624546552 L416.53903295823073,205.08117882527642 M416.53903295823073,205.08117882527642 L411.8306518032073,207.12690998427274 M411.8306518032073,207.12690998427274 L406.4020676891912,208.47127959415795 M406.4020676891912,208.47127959415795 L400.5678395481103,209.0362128432837 M400.5678395481103,209.0362128432837 L394.6661285399985,208.78888791206296 M394.6661285399985,208.78888791206296 L389.0390866146209,207.74368634359354 M389.0390866146209,207.74368634359354 L384.0128226833613,205.96129162504906 M384.0128226833613,205.96129162504906 L379.8784246161932,203.54520119002513 M379.8784246161932,203.54520119002513 L376.87506416063366,200.63559228509544 M376.87506416063366,200.63559228509544 L375.1761789867137,197.40112244937706 M375.1761789867137,197.40112244937706 L374.87945256570606,194.02917205930916 M423.9183818048817,196.082801028705 L424.09959340003905,196.0907864055011 M424.09959340003905,196.0907864055011 L424.28080522169853,196.09883910488935 M424.28080522169853,196.09883910488935 L424.46200252350576,196.10695071249836 M473.47810042788853,198.41001291868392 L473.25530227564064,195.02013803485264 M473.25530227564064,195.02013803485264 L471.6155264310969,191.75911302020094 M471.6155264310969,191.75911302020094 L468.65511164347447,188.81709279950738 M468.65511164347447,188.81709279950738 L464.54722487438346,186.36548601797895 M464.54722487438346,186.36548601797895 L459.53173358787063,184.54699804334678 M459.53173358787063,184.54699804334678 L453.9011299872338,183.46744959949893 M453.9011299872338,183.46744959949893 L447.9835855634311,183.18960351167362 M447.9835855634311,183.18960351167362 L442.12382385597357,183.72961289239663 M442.12382385597357,183.72961289239663 L436.66328908414386,185.05609897676246 M436.66328908414386,185.05609897676246 L431.92026915442943,187.09188764180965 M431.92026915442943,187.09188764180965 L428.17148765245895,189.7185311148148 M428.17148765245895,189.7185311148148 L425.63589536871933,192.78308042825674 M425.63589536871933,192.78308042825674 L424.46200252350576,196.10695071249836 M519.0761896267409,209.0238991103597 L516.1966613879224,211.97243628624673 M516.1966613879224,211.97243628624673 L512.1648738141441,214.4411372154496 M512.1648738141441,214.4411372154496 L507.21406087365483,216.28676934559388 M507.21406087365483,216.28676934559388 L501.6308913707143,217.40219036169486 M501.6308913707143,217.40219036169486 L495.73892202779723,217.72263722315944 M495.73892202779723,217.72263722315944 L489.8797453496226,217.22946986872535 M489.8797453496226,217.22946986872535 L484.3929615950045,215.9513523871339 M484.3929615950045,215.9513523871339 L479.5965401851569,213.96250382663226 M479.5965401851569,213.96250382663226 L475.7681644375563,211.37837236412156 M475.7681644375563,211.37837236412156 L473.12923213391895,208.3488449442696 M473.12923213391895,208.3488449442696 L471.8319566671401,205.04951605002302 M471.8319566671401,205.04951605002302 L471.95077160577915,201.6714304806007 M471.95077160577915,201.6714304806007 L473.47810042788853,198.41001291868392 M519.0761896267409,209.0238991103597 L519.2445386215036,209.06352806816088 M519.2445386215036,209.06352806816088 L519.4128590894572,209.10320773565635 M519.4128590894572,209.10320773565635 L519.5811510317073,209.14293811344822 M565.0628586585785,219.99954840228511 L566.6721509279971,216.73141943747498 M566.6721509279971,216.73141943747498 L566.8610406394348,213.335478044355 M566.8610406394348,213.335478044355 L565.6192102212249,210.01000830765898 M565.6192102212249,210.01000830765898 L563.0198116947481,206.94898815368464 M563.0198116947481,206.94898815368464 L559.2150220184519,204.33080768001574 M559.2150220184519,204.33080768001574 L554.4270999496814,202.30791391774318 M554.4270999496814,202.30791391774318 L548.9353638554262,200.99801696082227 M548.9353638554262,200.99801696082227 L543.0599178732903,200.47729500324434 M543.0599178732903,200.47729500324434 L537.1431067298215,200.77601966086064 M537.1431067298215,200.77601966086064 L531.5296059708314,201.87683197038723 M531.5296059708314,201.87683197038723 L526.5466118657835,203.7157152534721 M526.5466118657835,203.7157152534721 L522.4847458059637,206.18567819195238 M522.4847458059637,206.18567819195238 L519.5811510317073,209.14293811344822 M602.852721046132,238.17897242021968 L598.5196923717001,240.47834200796657 M598.5196923717001,240.47834200796657 L593.3455852742411,242.11636782405148 M593.3455852742411,242.11636782405148 L587.6301011344158,242.99794818420895 M587.6301011344158,242.99794818420895 L581.7045232538442,243.07187147210107 M581.7045232538442,243.07187147210107 L575.9123492002873,242.3338561103558 M575.9123492002873,242.3338561103558 L570.5893294455846,240.8267606029948 M570.5893294455846,240.8267606029948 L566.0438446141848,238.63809558924845 M566.0438446141848,238.63809558924845 L562.5389785319855,235.8948909133009 M562.5389785319855,235.8948909133009 L560.2773030796716,232.75621562978802 M560.2773030796716,232.75621562978802 L559.389152149552,229.40395079606185 M559.389152149552,229.40395079606185 L559.9252269787569,226.03214445801575 M559.9252269787569,226.03214445801575 L561.853842636159,222.83578635956417 M561.853842636159,222.83578635956417 L565.0628586585785,219.99954840228511 M602.852721046132,238.17897242021968 L602.992075621454,238.24653323547955 M602.992075621454,238.24653323547955 L603.1313614328815,238.31413886892494 M603.1313614328815,238.31413886892494 L603.2705675109924,238.38179988411974 M640.8475409525906,256.78578405828296 L644.142640387618,253.95619909243857 M644.142640387618,253.95619909243857 L646.150116670734,250.75291621361555 M646.150116670734,250.75291621361555 L646.7533386013006,247.3631960645609 M646.7533386013006,247.3631960645609 L645.9178006246984,243.98501109893024 M645.9178006246984,243.98501109893024 L643.6929580201638,240.8154774632902 M643.6929580201638,240.8154774632902 L640.209206038257,238.0393565751699 M640.209206038257,238.0393565751699 L635.6701694074607,235.81832430222494 M635.6701694074607,235.81832430222494 L630.3407210004191,234.2816422340818 M630.3407210004191,234.2816422340818 L624.5315563705844,233.51869852639243 M624.5315563705844,233.51869852639243 L618.5811828620097,233.57384914897392 M618.5811828620097,233.57384914897392 L612.8362657557216,234.4438877878091 M612.8362657557216,234.4438877878091 L607.631575136639,236.07822653257142 M607.631575136639,236.07822653257142 L603.2705675109924,238.38179988411974 M667.1614224669272,280.8192357775034 L661.7841530601356,282.24182781686255 M661.7841530601356,282.24182781686255 L655.9597991100388,282.88454971212207 M655.9597991100388,282.88454971212207 L650.0259711759627,282.71006994769914 M650.0259711759627,282.71006994769914 L644.3266709946681,281.72851753979626 M644.3266709946681,281.72851753979626 L639.1922152318994,279.99690784561807 M639.1922152318994,279.99690784561807 L634.9199797783738,277.61577908957037 M634.9199797783738,277.61577908957037 L631.757175602198,274.7232831474586 M631.757175602198,274.7232831474586 L629.8864539305134,271.4871283986945 M629.8864539305134,271.4871283986945 L629.4154710967816,268.0947758043589 M629.4154710967816,268.0947758043589 L630.3707707321421,264.7425503045332 M630.3707707321421,264.7425503045332 L632.6964461092016,261.62423916207456 M632.6964461092016,261.62423916207456 L636.2574328051408,258.91996516513865 M636.2574328051408,258.91996516513865 L640.8475409525906,256.78578405828296 M667.1614224669272,280.8192357775034 L667.2581924227577,280.9083915531471 M667.2581924227577,280.9083915531471 L667.3548858458105,280.99757145673857 M667.3548858458105,280.99757145673857 L667.4514880479094,281.08678397507333 M693.4563528466485,305.3106048105615 L698.1300126870278,303.1983946512683 M698.1300126870278,303.1983946512683 L701.7741684476373,300.50073283198384 M701.7741684476373,300.50073283198384 L704.1762812250595,297.3755080008141 M704.1762812250595,297.3755080008141 L705.1965632670997,294.0054774874412 M705.1965632670997,294.0054774874412 L704.7761444276609,290.587530741376 M704.7761444276609,290.587530741376 L702.9402803584378,287.3211534522313 M702.9402803584378,287.3211534522313 L699.7967194412272,284.39679923125516 M699.7967194412272,284.39679923125516 L695.5293251132684,281.9848320449909 M695.5293251132684,281.9848320449909 L690.3871961403725,280.22564289817933 M690.3871961403725,280.22564289817933 L684.6702016678835,279.2215753673079 M684.6702016678835,279.2215753673079 L678.7115093478956,279.0310112077178 M678.7115093478956,279.0310112077178 L672.8582509553551,279.665036388194 M672.8582509553551,279.665036388194 L667.4514880479094,281.08678397507333 M705.6727414476488,332.91118818521437 L699.7650184878944,333.3101013051085 M699.7650184878944,333.3101013051085 L693.8504145984759,332.885730447019 M693.8504145984759,332.885730447019 L688.2718005773627,331.66272165037793 M688.2718005773627,331.66272165037793 L683.3524311242411,329.7121121877299 M683.3524311242411,329.7121121877299 L679.3772146122751,327.147124220794 M679.3772146122751,327.147124220794 L676.5759976965023,324.1165611482634 M676.5759976965023,324.1165611482634 L675.1104731467965,320.79608029306337 M675.1104731467965,320.79608029306337 L675.0647729738882,317.37798363645845 M675.0647729738882,317.37798363645845 L676.440852890219,314.0600098498825 M676.440852890219,314.0600098498825 L679.1584652096515,311.0339286600999 M679.1584652096515,311.0339286600999 L683.0599681228537,308.474478258939 M683.0599681228537,308.474478258939 L687.9195741940628,306.5293097092376 M687.9195741940628,306.5293097092376 L693.4563528466485,305.3106048105615 M705.6727414476488,332.91118818521437 L705.717280969182,333.01343775542756 M705.717280969182,333.01343775542756 L705.7617024914769,333.11570542395793 M705.7617024914769,333.11570542395793 L705.8060282064,333.21798692621337 M717.6286087144829,360.95473977692956 L723.2370199513941,359.77389381452866 M723.2370199513941,359.77389381452866 L728.1764666565566,357.85090370059015 M728.1764666565566,357.85090370059015 L732.1583241465157,355.2984070092651 M732.1583241465157,355.2984070092651 L734.9502200575785,352.26583580649805 M734.9502200575785,352.26583580649805 L736.3895663797277,348.9305762704381 M736.3895663797277,348.9305762704381 L736.3929420599832,345.4875345635605 M736.3929420599832,345.4875345635605 L734.9609040122214,342.1377399730859 M734.9609040122214,342.1377399730859 L732.1776713843813,339.07655469299425 M732.1776713843813,339.07655469299425 L728.2061634618162,336.48234487586774 M728.2061634618162,336.48234487586774 L723.2783263984586,334.50616337564225 M723.2783263984586,334.50616337564225 L717.6815662790079,333.2629883865454 M717.6815662790079,333.2629883865454 L711.7421212302577,332.8251123724787 M711.7421212302577,332.8251123724787 L705.8060282064,333.21798692621337 M714.4454467428557,389.45834012881096 L708.5800816032636,388.7834753055501 M708.5800816032636,388.7834753055501 L703.1521995700662,387.32237338275166 M703.1521995700662,387.32237338275166 L698.4762597795459,385.1598749160057 M698.4762597795459,385.1598749160057 L694.822977001852,382.4214948067353 M694.822977001852,382.4214948067353 L692.4034878170066,379.266052454629 M692.4034878170066,379.266052454629 L691.3572942321493,375.8764108212961 M691.3572942321493,375.8764108212961 L691.7442608621716,372.4487888851358 M691.7442608621716,372.4487888851358 L693.541268276354,369.18143930953727 M693.541268276354,369.18143930953727 L696.6438098628312,366.2631460094506 M696.6438098628312,366.2631460094506 L700.8720349136913,363.86236820941264 M700.8720349136913,363.86236820941264 L705.9813404359932,362.1175879199668 M705.9813404359932,362.1175879199668 L711.6765170189692,361.1294005279631 M711.6765170189692,361.1294005279631 L717.6286087144829,360.95473977692956 M714.4454467428557,389.45834012881096 L714.4329671572395,389.56380657417975 M714.4329671572395,389.56380657417975 L714.4203683977012,389.6692741207772 M714.4203683977012,389.6692741207772 L714.4076652093768,389.774734190402 M710.7742090642118,418.3400904063302 L716.7751604736989,418.2173077401672 M716.7751604736989,418.2173077401672 L722.5365950347209,417.26699467968126 M722.5365950347209,417.26699467968126 L727.7215633539026,415.544855052805 M727.7215633539026,415.544855052805 L732.0269990206148,413.15177697774857 M732.0269990206148,413.15177697774857 L735.20154982285,410.22789707117255 M735.20154982285,410.22789707117255 L737.0601565722864,406.9442846699318 M737.0601565722864,406.9442846699318 L737.4949261455727,403.4929030962975 M737.4949261455727,403.4929030962975 L736.4811955598295,400.0752871177665 M736.4811955598295,400.0752871177665 L734.0787980568334,396.89083930062947 M734.0787980568334,396.89083930062947 L730.4285284660489,394.125162256289 M730.4285284660489,394.125162256289 L725.7436624294853,391.939327869628 M725.7436624294853,391.939327869628 L720.2975539817119,390.4605088466885 M720.2975539817119,390.4605088466885 L714.4076652093768,389.774734190402 M692.3761683602293,444.9507224801643 L687.1311358479506,443.2567355173541 M687.1311358479506,443.2567355173541 L682.728299090503,440.89163900183166 M682.728299090503,440.89163900183166 L679.4224469186718,437.9926935078778 M679.4224469186718,437.9926935078778 L677.4045466609693,434.7279718802366 M677.4045466609693,434.7279718802366 L676.7907505945541,431.28660882131953 M676.7907505945541,431.28660882131953 L677.6159101367632,427.86779552470534 M677.6159101367632,427.86779552470534 L679.8315681846414,424.669174820928 M679.8315681846414,424.669174820928 L683.3090346442173,421.87552926640757 M683.3090346442173,421.87552926640757 L687.8468910282752,419.6480725023915 M687.8468910282752,419.6480725023915 L693.1827381504752,418.11527960107696 M693.1827381504752,418.11527960107696 L699.0082956398455,417.36547897708107 M699.0082956398455,417.36547897708107 L704.9871856633213,417.4418835654449 M704.9871856633213,417.4418835654449 L710.7742090642118,418.3400904063302 M692.3761683602293,444.9507224801643 L692.3074056519974,445.049045252327 M692.3074056519974,445.049045252327 L692.2385524994372,445.1473517283502 M692.2385524994372,445.1473517283502 L692.1696089014076,445.2456419077454 M673.3114575054256,471.82913887178876 L679.1147061244803,472.78831945216155 M679.1147061244803,472.78831945216155 L685.1352727269334,472.91564881284376 M685.1352727269334,472.91564881284376 L691.020948085348,472.20366235240516 M691.020948085348,472.20366235240516 L696.4274594000917,470.6940967431463 M696.4274594000917,470.6940967431463 L701.0387133645943,468.4753999974645 M701.0387133645943,468.4753999974645 L704.5853787497881,465.6775166907604 M704.5853787497881,465.6775166907604 L706.8606148449867,462.46419632148724 M706.8606148449867,462.46419632148724 L707.7321182681594,459.0233315891777 M707.7321182681594,459.0233315891777 L707.1497168265007,455.555936114779 M707.1497168265007,455.555936114779 L705.148110731433,452.26433344346833 M705.148110731433,452.26433344346833 L701.8447262438758,449.3404514750955 M701.8447262438758,449.3404514750955 L697.4327226597204,446.95460563576694 M697.4327226597204,446.95460563576694 L692.1696089014076,445.2456419077454 M641.4003171478091,493.8935748443639 L637.3008051342063,491.33776693077283 M637.3008051342063,491.33776693077283 L634.3674607495254,488.29372815315276 M634.3674607495254,488.29372815315276 L632.7695986011818,484.93791360341737 M632.7695986011818,484.93791360341737 L632.5990507946658,481.46468719177966 M632.5990507946658,481.46468719177966 L633.864940991044,478.07499224540834 M633.864940991044,478.07499224540834 L636.4933950968248,474.9647647257359 M636.4933950968248,474.9647647257359 L640.3319096546161,472.3136074437277 M640.3319096546161,472.3136074437277 L645.1582691951037,470.2744822198147 M645.1582691951037,470.2744822198147 L650.6935016872253,468.96497354724664 M650.6935016872253,468.96497354724664 L656.6178566556464,468.4605432568866 M656.6178566556464,468.4605432568866 L662.5892909905801,468.7902495772851 M662.5892909905801,468.7902495772851 L668.2630526505236,469.9351084814551 M668.2630526505236,469.9351084814551 L673.3114575054256,471.82913887178876 M641.4003171478091,493.8935748443639 L641.2816956788929,493.97495166050356 M641.2816956788929,493.97495166050356 L641.1629942441314,494.0562879605966 M641.1629942441314,494.0562879605966 L641.044194069354,494.137577243353 M608.7229349688621,516.0833746786342 L613.7490282891513,518.0399032229388 M613.7490282891513,518.0399032229388 L619.4308525533766,519.2430088146655 M619.4308525533766,519.2430088146655 L625.4361583366381,519.622188971661 M625.4361583366381,519.622188971661 L631.4136507203361,519.155222536788 M631.4136507203361,519.155222536788 L637.0136462691305,517.8694771948121 M637.0136462691305,517.8694771948121 L641.9086786276255,515.8403002433881 M641.9086786276255,515.8403002433881 L645.8127544180861,513.1865651253424 M645.8127544180861,513.1865651253424 L648.498065986437,510.0636145917001 M648.498065986437,510.0636145917001 L649.808274202122,506.65410208365853 M649.808274202122,506.65410208365853 L649.667562404921,503.1572671100101 M649.667562404921,503.1572671100101 L648.0848770781845,499.7772377150968 M648.0848770781845,499.7772377150968 L645.1532434122828,496.71112958155476 M645.1532434122828,496.71112958155476 L641.044194069354,494.137577243353 M566.389805733075,531.3683568790411 L563.8523593577022,528.1974559752197 M563.8523593577022,528.1974559752197 L562.6903705676589,524.771256709136 M562.6903705676589,524.771256709136 L562.9703882963781,521.2881299099695 M562.9703882963781,521.2881299099695 L564.6755037488554,517.9495460852179 M564.6755037488554,517.9495460852179 L567.7064553215116,514.9484215212801 M567.7064553215116,514.9484215212801 L571.887533343089,512.4580044598424 M571.887533343089,512.4580044598424 L576.9768463290268,510.6219706281996 M576.9768463290268,510.6219706281996 L582.6802696833963,509.5461546212712 M582.6802696833963,509.5461546212712 L588.6684224601488,509.2925484045596 M588.6684224601488,509.2925484045596 L594.5955712981104,509.8757593933359 M594.5955712981104,509.8757593933359 L600.1195234860395,511.2622021400258 M600.1195234860395,511.2622021400258 L604.9211727226157,513.3719543673562 M604.9211727226157,513.3719543673562 L608.7229349688621,516.0833746786342 M566.389805733075,531.3683568790411 L566.2328305942922,531.4245366330588 M566.2328305942922,531.4245366330588 L566.0758130070712,531.4806710276953 M566.0758130070712,531.4806710276953 L565.918737916199,531.5367513631645 M523.2869878625465,546.6246684255359 L527.0281890733174,549.3911770581566 M527.0281890733174,549.3911770581566 L531.8001223541819,551.5584864156374 M531.8001223541819,551.5584864156374 L537.3240256735808,552.999671040675 M537.3240256735808,552.999671040675 L543.2769249889132,553.6302548244845 M543.2769249889132,553.6302548244845 L549.3105965000777,553.4132851013082 M549.3105965000777,553.4132851013082 L555.0720692268712,552.3614816236391 M555.0720692268712,552.3614816236391 L560.2243896747043,550.5364846641264 M560.2243896747043,550.5364846641264 L564.4664200573113,548.0452277427212 M564.4664200573113,548.0452277427212 L567.5505336524552,545.0335654718212 M567.5505336524552,545.0335654718212 L569.2970217180998,541.677703909989 M569.2970217180998,541.677703909989 L569.6045442410204,538.1738010013452 M569.6045442410204,538.1738010013452 L568.4558674219268,534.726447332131 M568.4558674219268,534.726447332131 L565.918737916199,531.5367513631645 M474.722985842947,553.5629961568661 L474.0088217034709,550.0892432738756 M474.0088217034709,550.0892432738756 L474.74224982375597,546.6198245874856 M474.74224982375597,546.6198245874856 L476.8801450951826,543.3553537638421 M476.8801450951826,543.3553537638421 L480.2982652286636,540.4843977761369 M480.2982652286636,540.4843977761369 L484.79862225880737,538.172686798543 M484.79862225880737,538.172686798543 L490.12093457867445,536.5535134585148 M490.12093457867445,536.5535134585148 L495.9577110749177,535.7202260898115 M495.9577110749177,535.7202260898115 L501.97189437218293,535.7208222186813 M501.97189437218293,535.7208222186813 L507.81628481492436,536.5552802333958 M507.81628481492436,536.5552802333958 L513.1534021778114,538.1755158293337 M513.1534021778114,538.1755158293337 L517.6748836392394,540.4881329454062 M517.6748836392394,540.4881329454062 L521.1192693768808,543.359769300405 M521.1192693768808,543.359769300405 L523.2869878625465,546.6246684255359 M474.722985842947,553.5629961568661 L474.5432592581492,553.5882518870316 M474.5432592581492,553.5882518870316 L474.36350197033136,553.6134379364504 M474.36350197033136,553.6134379364504 L474.1837215295072,553.6385673815224 M425.48156526193935,560.3300007330877 L427.5577625813176,563.6342619438275 M427.5577625813176,563.6342619438275 L430.9370345502503,566.5540451623664 M430.9370345502503,566.5540451623664 L435.42239728520565,568.9185008719846 M435.42239728520565,568.9185008719846 L440.7519163879714,570.5891722704304 M440.7519163879714,570.5891722704304 L446.6140524876545,571.4681675081006 M446.6140524876545,571.4681675081006 L452.6659397182026,571.5039475577076 M452.6659397182026,571.5039475577076 L458.55350241360657,570.6944339232768 M458.55350241360657,570.6944339232768 L463.9323880564696,569.0870635613411 M463.9323880564696,569.0870635613411 L468.48816395887354,566.7760349282613 M468.48816395887354,566.7760349282613 L471.95474045837454,563.8966887728733 M471.95474045837454,563.8966887728733 L474.1299936087234,560.6175065731217 M474.1299936087234,560.6175065731217 L474.8874862934931,557.1302364305953 M474.8874862934931,557.1302364305953 L474.1837215295072,553.6385673815224 M375.54981338240776,558.2009225898784 L376.7342410412721,554.769652774536 M376.7342410412721,554.769652774536 L379.2931455863375,551.6024944233587 M379.2931455863375,551.6024944233587 L383.0780319672034,548.8823394932041 M383.0780319672034,548.8823394932041 L387.86977187239506,546.7661687549294 M387.86977187239506,546.7661687549294 L393.3913442792851,545.3759841047062 M393.3913442792851,545.3759841047062 L399.32378642943087,544.7919107382653 M399.32378642943087,544.7919107382653 L405.3246037288346,545.0476069353791 M405.3246037288346,545.0476069353791 L411.0473226941545,546.1283263993753 M411.0473226941545,546.1283263993753 L416.1614540495433,547.9718153045098 M416.1614540495433,547.9718153045098 L420.3714604097964,550.4717782047235 M420.3714604097964,550.4717782047235 L423.4337640301653,553.4840081099641 M423.4337640301653,553.4840081099641 L425.17082667070815,556.834631564792 M425.17082667070815,556.834631564792 L425.48156526193935,560.3300007330877 M375.54981338240776,558.2009225898784 L375.3653419193979,558.1926455563336 M375.3653419193979,558.1926455563336 L375.18087069114637,558.1842987548181 M375.18087069114637,558.1842987548181 L374.9964146934369,558.1758909073336 M325.11070231856513,555.7892760965498 L325.31196524873786,559.3025170944268 M325.31196524873786,559.3025170944268 L326.957586073621,562.6844872674233 M326.957586073621,562.6844872674233 L329.95211430699925,565.7375317560561 M329.95211430699925,565.7375317560561 L334.1211248530129,568.2830412847642 M334.1211248530129,568.2830412847642 L339.2212490633458,570.1719961207168 M339.2212490633458,570.1719961207168 L344.9544409151485,571.293705541159 M344.9544409151485,571.293705541159 L350.9853861496392,571.5824422828198 M350.9853861496392,571.5824422828198 L356.9613141366966,571.0212811660659 M356.9613141366966,571.0212811660659 L362.53262494762174,569.6430974793076 M362.53262494762174,569.6430974793076 L367.37356019148,567.5286852768863 M367.37356019148,567.5286852768863 L371.2012772359929,564.8018828192753 M371.2012772359929,564.8018828192753 L373.79250914072264,561.6223031782267 M373.79250914072264,561.6223031782267 L374.9964146934369,558.1758909073336 M278.8278865957422,544.8046409556692 L281.7908036913396,541.7572774308288 M281.7908036913396,541.7572774308288 L285.9173419986039,539.2072244052189 M285.9173419986039,539.2072244052189 L290.96869190490105,537.3016003421873 M290.96869190490105,537.3016003421873 L296.6529467255227,536.1502659974003 M296.6529467255227,536.1502659974003 L302.64181922135583,535.8195494737803 M302.64181922135583,535.8195494737803 L308.58951210105414,536.3285306746418 M308.58951210105414,536.3285306746418 L314.1526721172036,537.6478673190763 M314.1526721172036,537.6478673190763 L319.0099307840674,539.7015313313541 M319.0099307840674,539.7015313313541 L322.8805262402767,542.3711070562152 M322.8805262402767,542.3711070562152 L325.54037821418336,545.5025756445174 M325.54037821418336,545.5025756445174 L326.83519881798264,548.9150993527321 M326.83519881798264,548.9150993527321 L326.6894031386262,552.4114336638909 M326.6894031386262,552.4114336638909 L325.11070231856513,555.7892760965498 M278.8278865957422,544.8046409556692 L278.65719835119876,544.7636717497173 M278.65719835119876,544.7636717497173 L278.48654109485506,544.7226504467908 M278.48654109485506,544.7226504467908 L278.31591482783796,544.6815770475205 M232.25536262498656,533.4702821195931 L230.56518598780477,536.8426028165644 M230.56518598780477,536.8426028165644 L230.31529306914382,540.3491620639529 M230.31529306914382,540.3491620639529 L231.52100586014123,543.7852788119759 M231.52100586014123,543.7852788119759 L234.1126071405578,546.95018223809 M234.1126071405578,546.95018223809 L237.93927990714218,549.6587665003839 M237.93927990714218,549.6587665003839 L242.77776205094239,551.75248828664 M242.77776205094239,551.75248828664 L248.34536449431113,553.1087044785428 M248.34536449431113,553.1087044785428 L254.31653827608193,553.6479391765672 M254.31653827608193,553.6479391765672 L260.34197096580147,553.3385873173241 M260.34197096580147,553.3385873173241 L266.06922209908305,552.1987741728886 M266.06922209908305,552.1987741728886 L271.16331139232057,550.2953049637508 M271.16331139232057,550.2953049637508 L275.3265339343865,547.739701126564 M275.3265339343865,547.739701126564 L278.31591482783796,544.6815770475205 M194.2504215327333,514.7516865564496 L198.6896999403993,512.3889900614503 M198.6896999403993,512.3889900614503 L203.9662034235681,510.706516753087 M203.9662034235681,510.706516753087 L209.77506870373836,509.8012439301593 M209.77506870373836,509.8012439301593 L215.78084462234597,509.7253412360793 M215.78084462234597,509.7253412360793 L221.63682072005312,510.48316858133984 M221.63682072005312,510.48316858133984 L227.00484745399538,512.0310708586297 M227.00484745399538,512.0310708586297 L231.5748042590221,514.2798314895509 M231.5748042590221,514.2798314895509 L235.08243002698978,517.0997546069166 M235.08243002698978,517.0997546069166 L237.32455090315221,520.328115452241 M237.32455090315221,520.328115452241 L238.1709437213448,523.7784189143865 M238.1709437213448,523.7784189143865 L237.57195572251788,527.2511819880551 M237.57195572251788,527.2511819880551 L235.5615093042212,530.5454187427925 M235.5615093042212,530.5454187427925 L232.25536262498656,533.4702821195931 M194.2504215327333,514.7516865564496 L194.11054145925502,514.6822494884332 M194.11054145925502,514.6822494884332 L193.9707339227746,514.6127673008466 M193.9707339227746,514.6127673008466 L193.83101026289506,514.543229138988 M156.18705239786684,495.6636816053282 L152.78261820401445,498.56185034262927 M152.78261820401445,498.56185034262927 L150.67059657903417,501.84476021312 M150.67059657903417,501.84476021312 L149.9748267923246,505.3210400981048 M149.9748267923246,505.3210400981048 L150.73662986565324,508.7878438318928 M150.73662986565324,508.7878438318928 L152.91225089433303,512.042661272333 M152.91225089433303,512.042661272333 L156.37522531244872,514.8951827031588 M156.37522531244872,514.8951827031588 L160.92361618206093,517.1784848313216 M160.92361618206093,517.1784848313216 L166.29178872137413,518.7588464675678 M166.29178872137413,518.7588464675678 L172.16592961648558,519.5436578524268 M172.16592961648558,519.5436578524268 L178.20243641878523,519.4869224545125 M178.20243641878523,519.4869224545125 L184.0481693410149,518.5919661069308 M184.0481693410149,518.5919661069308 L189.3612147550978,516.9112432260617 M189.3612147550978,516.9112432260617 L193.83101026289506,514.543229138988 M194.06160789500652,559.708576965071 L193.83101026289506,514.543229138988 M93.27512715952696,463.3645289898681 L92.93327414733437,418.30562456876703 M194.48055230405694,559.9172638386539 L194.2504215327333,514.7516865564496 M93.15078388837429,463.05478928642094 L92.80879750045989,417.9962287178764 M232.44314734057633,578.6564440711525 L232.25536262498656,533.4702821195931 M82.16809262952927,435.1300217023955 L81.81435239196912,390.10250466497973 M278.4521961403379,589.8800494694061 L278.31591482783796,544.6815770475205 M86.23898077327772,406.5927919344127 L85.89026478470083,361.5970877787592 M278.96359510875135,590.0032484300133 L278.8278865957422,544.8046409556692 M86.28648126109465,406.2769272468613 L85.93782352614261,361.281575712984 M325.19459992319867,600.9999315763378 L325.11070231856513,555.7892760965498 M90.78400717236889,377.84057396741713 L90.4408325994059,332.87701281783575 M375.0243925907055,603.3891622804368 L374.9964146934369,558.1758909073336 M109.8451781590561,351.49385436503445 L109.52358211899707,306.5598267603122 M375.5771708685339,603.4142213960941 L375.54981338240776,558.2009225898784 M110.05850684652114,351.20263238032317 L109.73715193797022,306.2689316489952 M425.4529385465301,605.5456326191786 L425.48156526193935,560.3300007330877 M129.47360803783397,325.0216183159895 L129.17416512787617,280.1173417404312 M474.10051377553884,598.8468649995518 L474.1837215295072,553.6385673815224 M161.56407756862916,303.3947059881458 L161.30044546510345,258.514792112392 M474.63917393623063,598.7712109154936 L474.722985842947,553.5629961568661 M161.92136795886663,303.15606415493835 L161.65813410921513,258.2764193955753 M523.1487876310823,591.825273034603 L523.2869878625465,546.6246684255359 M194.27366323939393,281.73891227775545 L194.04644981680065,236.88344511034018 M565.7329057033587,576.7207888167532 L565.918737916199,531.5367513631645 M236.22368102715197,266.8762794693447 L236.04294406419447,222.0376201791194 M566.2034476118056,576.5522092869835 L566.389805733075,531.3683568790411 M236.68975531062964,266.71278473811884 L236.509534311597,221.87431047597852 M608.489352751134,561.25041768193 L608.7229349688621,516.0833746786342 M278.8045198995539,252.0856391139715 L278.67088612576293,207.26373037139047 M640.7747404485401,539.2804407017308 L641.044194069354,494.137577243353 M326.5559663975866,245.37361755870975 L326.47503321781664,200.55931817317068 M641.1304687512061,539.0361691662898 L641.4003171478091,493.8935748443639 M327.0858355475158,245.30056111849973 L327.005486950995,200.48634458359538 M673.0062762073312,516.9473688361265 L673.3114575054256,471.82913887178876 M374.90705965938315,238.83605511373997 L374.87945256570606,194.02917205930916 M691.8438013260645,490.33444614489486 L692.1696089014076,445.2456419077454 M423.89198780612776,240.8920169100091 L423.9183818048817,196.082801028705 M692.0501352239266,490.0391998291812 L692.3761683602293,444.9507224801643 M424.4350098320822,240.91619402395375 L424.46200252350576,196.10695071249836 M710.4281181638071,463.399033130997 L710.7742090642118,418.3400904063302 M473.3971195810439,243.22187184254057 L473.47810042788853,198.41001291868392 M714.0580224258492,434.8018859352496 L714.4076652093768,389.774734190402 M518.9449187188977,253.84780478389195 L519.0761896267409,209.0238991103597 M714.095767420793,434.4851392486079 L714.4454467428557,389.45834012881096 M519.4493228949345,253.96697882572306 L519.5811510317073,209.14293811344822 M717.2758879320886,405.94972602170805 L717.6286087144829,360.95473977692956 M564.880812763661,264.83589836921874 L565.0628586585785,219.99954840228511 M705.4669005641961,378.18193022124746 L705.8060282064,333.21798692621337 M602.6288067285307,283.03590518200843 L602.852721046132,238.17897242021968 M705.3337667485873,377.87478763728825 L705.6727414476488,332.91118818521437 M603.0461898073131,283.2389620822875 L603.2705675109924,238.38179988411974 M693.131368673661,350.2432286219847 L693.4563528466485,305.3106048105615 M640.5814506233619,301.66374578839697 L640.8475409525906,256.78578405828296 M667.1556540490164,325.9921526524092 L667.4514880479094,281.08678397507333 M666.8659131877214,325.72430306521505 L667.1614224669272,280.8192357775034 M442.73003261779235,395.8308581306523 L442.75853614734405,368.852636908213 M442.75853614734405,368.852636908213 L450.0990323540914,373.9648099665474 M450.0990323540914,373.9648099665474 L455.6322545488376,379.78657593670147 M455.6322545488376,379.78657593670147 L459.1570805298587,386.108552707982 M459.1570805298587,386.108552707982 L460.54438475926565,392.70295812566354 M460.54438475926565,392.70295812566354 L459.74197012044476,399.33174827732444 M459.74197012044476,399.33174827732444 L456.7767240475735,405.75516928500923 M456.7767240475735,405.75516928500923 L451.7539770850949,411.74045404135035 M451.7539770850949,411.74045404135035 L444.8539466515088,417.07031663255935 M444.8539466515088,417.07031663255935 L436.32540421615545,421.5509409979989 M436.32540421615545,421.5509409979989 L426.4767982724787,425.01916664772074 M426.4767982724787,425.01916664772074 L415.66505329424837,427.3485476493585 M415.66505329424837,427.3485476493585 L404.28254716832936,428.4540887119335 M404.28254716832936,428.4540887119335 L392.742678421532,428.2954295929248 M392.742678421532,428.2954295929248 L381.46466917651134,426.8783615577993 M381.46466917651134,426.8783615577993 L370.8580740158874,424.2546141878534 M370.8580740158874,424.2546141878534 L361.3077033873892,420.5199098421895 M361.3077033873892,420.5199098421895 L353.15952897210576,415.81036807160206 M353.15952897210576,415.81036807160206 L346.7080424441281,410.29743267264666 M346.7080424441281,410.29743267264666 L342.1856132290613,404.1814986613268 M342.1856132290613,404.1814986613268 L339.754224624666,397.68449224353486 M339.754224624666,397.68449224353486 L339.49981831058955,391.0417372578347 M339.49981831058955,391.0417372578347 L341.42946277164964,384.4933807053567 M341.42946277164964,384.4933807053567 L345.47141007896636,378.27568722763573 M345.47141007896636,378.27568722763573 L351.4779750776487,372.6125780292777 M351.4779750776487,372.6125780292777 L359.23109491386816,367.7076418756227 M359.23109491386816,367.7076418756227 L368.45036254844524,363.73694255686877 M368.45036254844524,363.73694255686877 L378.80316456472616,360.84281492186767 M378.80316456472616,360.84281492186767 L389.91663645235894,359.1289028365514 M389.91663645235894,359.1289028365514 L401.39094714969895,358.65654434680647 M401.39094714969895,358.65654434680647 L412.8134788305362,359.44263322517213 M412.8134788305362,359.44263322517213 L423.7734541591459,361.45904943918697 M423.7734541591459,361.45904943918697 L433.87647328534825,364.6336199034856 M433.87647328534825,364.6336199034856 L442.75853614734405,368.852636908213" stroke="black"  stroke-width="4"  fill="red"/></svg>